<svg xmlns="http://www.w3.org/2000/svg" width="20" height="20" viewBox="0 0 20 20" fill="none">
  <path d="M9.99998 4.9987C10.4602 4.9987 10.8333 4.6256 10.8333 4.16536C10.8333 3.70513 10.4602 3.33203 9.99998 3.33203C9.53974 3.33203 9.16665 3.70513 9.16665 4.16536C9.16665 4.6256 9.53974 4.9987 9.99998 4.9987Z" stroke="#768293" stroke-width="2" stroke-linecap="round" stroke-linejoin="round"/>
  <path d="M9.99998 10.832C10.4602 10.832 10.8333 10.4589 10.8333 9.9987C10.8333 9.53846 10.4602 9.16536 9.99998 9.16536C9.53974 9.16536 9.16665 9.53846 9.16665 9.9987C9.16665 10.4589 9.53974 10.832 9.99998 10.832Z" stroke="#768293" stroke-width="2" stroke-linecap="round" stroke-linejoin="round"/>
  <path d="M9.99998 16.6654C10.4602 16.6654 10.8333 16.2923 10.8333 15.832C10.8333 15.3718 10.4602 14.9987 9.99998 14.9987C9.53974 14.9987 9.16665 15.3718 9.16665 15.832C9.16665 16.2923 9.53974 16.6654 9.99998 16.6654Z" stroke="#768293" stroke-width="2" stroke-linecap="round" stroke-linejoin="round"/>
  <path d="M15.8333 4.9987C16.2935 4.9987 16.6666 4.6256 16.6666 4.16536C16.6666 3.70513 16.2935 3.33203 15.8333 3.33203C15.3731 3.33203 15 3.70513 15 4.16536C15 4.6256 15.3731 4.9987 15.8333 4.9987Z" stroke="#768293" stroke-width="2" stroke-linecap="round" stroke-linejoin="round"/>
  <path d="M15.8333 10.832C16.2935 10.832 16.6666 10.4589 16.6666 9.9987C16.6666 9.53846 16.2935 9.16536 15.8333 9.16536C15.3731 9.16536 15 9.53846 15 9.9987C15 10.4589 15.3731 10.832 15.8333 10.832Z" stroke="#768293" stroke-width="2" stroke-linecap="round" stroke-linejoin="round"/>
  <path d="M15.8333 16.6654C16.2935 16.6654 16.6666 16.2923 16.6666 15.832C16.6666 15.3718 16.2935 14.9987 15.8333 14.9987C15.3731 14.9987 15 15.3718 15 15.832C15 16.2923 15.3731 16.6654 15.8333 16.6654Z" stroke="#768293" stroke-width="2" stroke-linecap="round" stroke-linejoin="round"/>
  <path d="M4.16665 4.9987C4.62688 4.9987 4.99998 4.6256 4.99998 4.16536C4.99998 3.70513 4.62688 3.33203 4.16665 3.33203C3.70641 3.33203 3.33331 3.70513 3.33331 4.16536C3.33331 4.6256 3.70641 4.9987 4.16665 4.9987Z" stroke="#768293" stroke-width="2" stroke-linecap="round" stroke-linejoin="round"/>
  <path d="M4.16665 10.832C4.62688 10.832 4.99998 10.4589 4.99998 9.9987C4.99998 9.53846 4.62688 9.16536 4.16665 9.16536C3.70641 9.16536 3.33331 9.53846 3.33331 9.9987C3.33331 10.4589 3.70641 10.832 4.16665 10.832Z" stroke="#768293" stroke-width="2" stroke-linecap="round" stroke-linejoin="round"/>
  <path d="M4.16665 16.6654C4.62688 16.6654 4.99998 16.2923 4.99998 15.832C4.99998 15.3718 4.62688 14.9987 4.16665 14.9987C3.70641 14.9987 3.33331 15.3718 3.33331 15.832C3.33331 16.2923 3.70641 16.6654 4.16665 16.6654Z" stroke="#768293" stroke-width="2" stroke-linecap="round" stroke-linejoin="round"/>
</svg>