<svg width="20" height="20" viewBox="0 0 20 20" fill="none" xmlns="http://www.w3.org/2000/svg">
<path d="M5.00033 9.16683V12.5002M15.0003 7.50016V10.8335M14.167 3.3335C16.2076 3.3335 17.3113 3.6458 17.8604 3.88803C17.9336 3.92029 17.9701 3.93642 18.0757 4.03714C18.1389 4.09751 18.2544 4.27466 18.2841 4.3569C18.3337 4.49411 18.3337 4.56911 18.3337 4.71911V13.6761C18.3337 14.4334 18.3337 14.8121 18.2201 15.0067C18.1046 15.2047 17.9932 15.2967 17.7769 15.3728C17.5644 15.4476 17.1353 15.3652 16.2771 15.2003C15.6765 15.0849 14.9641 15.0002 14.167 15.0002C11.667 15.0002 9.16699 16.6668 5.83366 16.6668C3.79307 16.6668 2.68938 16.3545 2.14023 16.1123C2.06709 16.08 2.03053 16.0639 1.92499 15.9632C1.86173 15.9028 1.74626 15.7257 1.71655 15.6434C1.66699 15.5062 1.66699 15.4312 1.66699 15.2812L1.66699 6.32421C1.66699 5.5669 1.66699 5.18825 1.78056 4.99362C1.89608 4.79563 2.00748 4.70359 2.22371 4.62751C2.43627 4.55271 2.86535 4.63515 3.72352 4.80004C4.32417 4.91545 5.03656 5.00016 5.83366 5.00016C8.33366 5.00016 10.8337 3.3335 14.167 3.3335ZM12.0837 10.0002C12.0837 11.1508 11.1509 12.0835 10.0003 12.0835C8.84973 12.0835 7.91699 11.1508 7.91699 10.0002C7.91699 8.84957 8.84973 7.91683 10.0003 7.91683C11.1509 7.91683 12.0837 8.84957 12.0837 10.0002Z" stroke="white" stroke-width="1.5" stroke-linecap="round" stroke-linejoin="round"/>
</svg>
