<svg width="178" height="178" viewBox="0 0 178 178" fill="none" xmlns="http://www.w3.org/2000/svg">
<g clip-path="url(#clip0_1242_27848)">
<path d="M16.5617 143.886H12.6612C9.87511 143.886 7.36763 141.657 7.08902 138.592L1.51685 17.119C1.51685 14.3329 3.74571 11.8254 6.5318 11.8254H10.4323C7.64623 11.8254 5.41737 14.0543 5.41737 17.119L10.9895 138.592C10.9895 141.657 13.497 143.886 16.5617 143.886Z" fill="#344900"/>
<path d="M16.5618 143.886H14.3329C11.5469 143.886 9.03938 141.657 8.76077 138.592L3.1886 17.119C3.1886 14.3329 5.41747 11.8254 8.20355 11.8254H10.4324C7.64633 11.8254 5.41747 14.0543 5.41747 17.119L10.9896 138.592C10.9896 141.657 13.4971 143.886 16.5618 143.886Z" fill="#6D9000"/>
<path d="M98.7513 17.119L104.323 138.592C104.323 141.378 102.095 143.886 99.3085 143.886H16.2831C13.4971 143.886 10.9896 141.657 10.711 138.592L5.13879 17.119C5.13879 14.3329 7.36767 11.8254 10.1538 11.8254H93.1791C96.2438 11.8254 98.7513 14.0543 98.7513 17.119Z" fill="#DDDDDD"/>
<path d="M100.702 136.085C100.702 138.314 99.0299 139.985 96.801 139.985H18.7906C16.5617 139.985 14.8901 138.314 14.6115 136.085C9.87513 44.9799 12.6612 92.9006 9.03931 19.6265C9.03931 17.3976 10.711 15.726 12.9398 15.726H90.9503C93.1791 15.726 94.8508 17.3976 95.1294 19.6265L100.702 136.085Z" fill="white"/>
<path d="M97.9155 80.9204L97.3583 68.1044H11.2682L11.8254 80.9204H97.9155Z" fill="#DDDDDD"/>
<path d="M90.9503 29.935H59.4675C59.1889 29.935 59.1889 29.935 59.1889 29.6564C59.1889 29.3777 59.1889 29.3777 59.4675 29.3777H90.9503C91.2289 29.3777 91.2289 29.3777 91.2289 29.6564C91.2289 29.935 91.2289 29.935 90.9503 29.935ZM54.1739 29.935H43.0296C42.751 29.935 42.751 29.935 42.751 29.6564C42.751 29.3777 42.751 29.3777 43.0296 29.3777H54.1739C54.4525 29.3777 54.4525 29.3777 54.4525 29.6564C54.4525 29.935 54.4525 29.935 54.1739 29.935ZM91.2289 36.343H76.184C75.9054 36.343 75.9054 36.343 75.9054 36.0644C75.9054 35.7857 75.9054 35.7857 76.184 35.7857H91.2289C91.5075 35.7857 91.5075 35.7857 91.5075 36.0644C91.5075 36.343 91.5075 36.343 91.2289 36.343ZM71.7263 36.343H51.9451C51.6665 36.343 51.6664 36.343 51.6664 36.0644C51.6664 35.7857 51.6665 35.7857 51.9451 35.7857H71.7263C72.0049 35.7857 72.0049 35.7857 72.0049 36.0644C72.0049 36.343 72.0049 36.343 71.7263 36.343ZM50.2734 36.343H43.5868C43.3082 36.343 43.3082 36.343 43.3082 36.0644C43.3082 35.7857 43.3082 35.7857 43.5868 35.7857H50.2734C50.552 35.7857 50.552 35.7857 50.552 36.0644C50.552 36.343 50.2734 36.343 50.2734 36.343ZM91.7861 42.751H63.0894C62.8108 42.751 62.8108 42.751 62.8108 42.4724C62.8108 42.1937 62.8108 42.1937 63.0894 42.1937H91.7861C92.0647 42.1937 92.0647 42.1937 92.0647 42.4724C92.0647 42.751 91.7861 42.751 91.7861 42.751ZM60.0247 42.751H43.5868C43.3082 42.751 43.3082 42.751 43.3082 42.4724C43.3082 42.1937 43.3082 42.1937 43.5868 42.1937H60.0247C60.3033 42.1937 60.3033 42.1937 60.3033 42.4724C60.3033 42.751 60.3033 42.751 60.0247 42.751ZM92.0647 49.4376H62.5322C62.2536 49.4376 62.2536 49.4376 62.2536 49.159C62.2536 48.8804 62.2536 48.8803 62.5322 48.8803H92.0647C92.3433 48.8803 92.3433 48.8804 92.3433 49.159C92.3433 49.4376 92.3433 49.4376 92.0647 49.4376ZM58.9103 49.4376H44.144C43.8654 49.4376 43.8654 49.4376 43.8654 49.159C43.8654 48.8804 43.8654 48.8803 44.144 48.8803H58.9103C59.1889 48.8803 59.1889 48.8804 59.1889 49.159C59.1889 49.4376 58.9103 49.4376 58.9103 49.4376ZM92.6219 55.8456H44.7012C44.4226 55.8456 44.4226 55.8456 44.4226 55.567C44.4226 55.2884 44.4226 55.2884 44.7012 55.2884H92.3433C92.6219 55.2884 92.6219 55.2884 92.6219 55.567V55.8456ZM92.9005 62.2536H65.3183C65.0397 62.2536 65.0397 62.2536 65.0397 61.975C65.0397 61.6964 65.0397 61.6964 65.3183 61.6964H92.9005C93.1792 61.6964 93.1791 61.6964 93.1791 61.975C93.1791 62.2536 93.1792 62.2536 92.9005 62.2536ZM60.5819 62.2536H34.1141C33.8355 62.2536 33.8355 62.2536 33.8355 61.975C33.8355 61.6964 33.8355 61.6964 34.1141 61.6964H60.5819C60.8605 61.6964 60.8605 61.6964 60.8605 61.975C60.8605 62.2536 60.8605 62.2536 60.5819 62.2536ZM29.935 62.2536H17.6762C17.3976 62.2536 17.3976 62.2536 17.3976 61.975C17.3976 61.6964 17.3976 61.6964 17.6762 61.6964H29.935C30.2136 61.6964 30.2136 61.6964 30.2136 61.975C30.2136 62.2536 30.2136 62.2536 29.935 62.2536Z" fill="#1B2600"/>
<path d="M38.0147 40.2435L38.8505 54.4525H18.7907L17.9548 40.2435L27.4275 31.6066L38.0147 40.2435Z" fill="#9B9B9B"/>
<path d="M39.6863 40.5221C39.4077 40.8007 38.8505 41.0794 38.5719 40.8007L27.4275 31.8853L17.3976 40.8007C17.119 41.0794 16.5618 41.0794 16.2832 40.8007C16.0046 40.5221 16.0046 39.9649 16.2832 39.6863L26.8703 30.4922C27.1489 30.2136 27.7061 30.2136 27.9847 30.4922L39.6863 39.6863C39.9649 39.6863 39.9649 39.9649 39.6863 40.5221Z" fill="#4D6D00"/>
<path d="M36.6215 32.7211L36.9001 37.1788L34.1141 34.9499L33.8354 32.7211H36.6215Z" fill="#9B9B9B"/>
<path d="M30.2136 38.8505C30.2136 40.2435 29.3778 41.358 27.9848 41.358C26.5917 41.358 25.4773 40.2435 25.4773 38.8505C25.4773 37.4575 26.3131 36.343 27.7062 36.343C29.0992 36.343 30.2136 37.4575 30.2136 38.8505Z" fill="white"/>
<path d="M29.3778 38.8504C29.3778 39.6863 28.8205 40.2435 27.9847 40.2435C27.1489 40.2435 26.5917 39.6863 26.5917 38.8504C26.5917 38.0146 27.1489 37.4574 27.9847 37.4574C28.5419 37.4574 29.3778 38.0146 29.3778 38.8504Z" fill="#1B2600"/>
<path d="M31.8852 43.3082L32.4424 54.4526H25.1986L24.3628 43.3082H31.8852Z" fill="white"/>
<path d="M36.9002 45.537V48.6017H34.3928L34.1142 45.537H36.9002ZM22.6912 45.537L22.9698 48.6017H20.1837V45.537H22.6912ZM31.8853 44.4226L32.4425 54.4525H26.0345L25.4773 44.4226H31.8853Z" fill="#1B2600"/>
<path d="M37.4574 31.328V32.4425C37.4574 32.7211 37.4574 32.7211 37.1788 32.7211H33.2782C32.9996 32.7211 32.9996 32.4425 32.9996 32.4425V31.328C32.9996 31.0494 32.9996 31.0494 33.2782 31.0494H37.4574V31.328Z" fill="#4D6D00"/>
<path d="M40.5221 54.4526L40.8008 56.1242H17.3976L17.119 54.4526H40.5221Z" fill="#9B9B9B"/>
<path d="M30.7708 74.2338C30.7708 72.2835 31.8852 71.1691 33.5568 71.1691C34.1141 71.1691 34.9499 71.1691 35.5071 71.7263C35.7857 71.7263 35.7857 72.0049 35.5071 72.2835H35.2285C34.6713 72.0049 34.1141 72.0049 33.5568 72.0049C32.1638 72.0049 31.328 73.1193 31.328 74.5124C31.328 75.9054 32.4424 77.0199 33.8354 77.0199C34.3927 77.0199 34.9499 77.0198 35.5071 76.7412H35.7857C36.0643 77.0198 36.0643 77.2985 35.7857 77.2985C35.2285 77.5771 34.3927 77.8557 33.8354 77.8557C32.1638 77.5771 30.7708 76.184 30.7708 74.2338ZM36.6215 74.2338C36.6215 72.2835 37.736 71.1691 39.4076 71.1691C41.3579 71.1691 42.4723 72.5621 42.7509 74.2338C42.7509 76.184 41.6365 77.2985 39.9648 77.2985C38.0146 77.5771 36.6215 76.184 36.6215 74.2338ZM41.9151 74.2338C41.9151 72.8407 40.8007 71.7263 39.4076 71.7263C38.0146 71.7263 37.1788 72.8407 37.1788 74.2338C37.1788 75.6268 38.0146 76.7412 39.6862 76.7412C41.0793 76.7412 41.9151 75.6268 41.9151 74.2338ZM44.144 77.0199L43.8654 71.7263C43.8654 71.4477 44.144 71.1691 44.4226 71.1691C44.7012 71.1691 44.7012 71.1691 44.9798 71.4477L48.6017 76.184L48.3231 71.4477C48.3231 71.1691 48.3231 71.1691 48.6017 71.1691C48.8803 71.1691 48.8803 71.4477 49.1589 71.4477L49.4375 76.7412C49.4375 77.0198 49.1589 77.2985 48.8803 77.2985C48.6017 77.2985 48.6017 77.2985 48.3231 77.0199L44.4226 72.2835L44.7012 77.0199C44.7012 77.2985 44.4226 77.2985 44.4226 77.2985C44.144 77.5771 44.144 77.2985 44.144 77.0199ZM52.5022 77.0199L52.2236 72.0049H50.552C50.2734 72.0049 50.2734 71.7263 50.2734 71.7263C50.2734 71.4477 50.2734 71.4477 50.552 71.4477H54.7311C55.0097 71.4477 55.0097 71.7263 55.0097 71.7263C55.0097 72.0049 54.7311 72.0049 54.7311 72.0049H52.7808L53.0594 77.0199C53.0594 77.2985 52.7808 77.2985 52.7808 77.2985C52.5022 77.5771 52.5022 77.2985 52.5022 77.0199ZM56.4028 77.0199L56.1241 71.7263C56.1241 71.4477 56.1241 71.4477 56.4028 71.4477H58.353C59.7461 71.4477 60.8605 72.0049 60.8605 73.1193C60.8605 73.6765 60.5819 74.5124 59.7461 74.791C60.5819 75.0696 60.8605 75.9054 60.8605 76.7412V77.0199C60.8605 77.2985 60.5819 77.2985 60.5819 77.2985C60.3033 77.2985 60.3033 77.0199 60.0247 77.0199V76.7412C60.0247 76.184 60.0247 75.6268 59.4675 75.3482C59.4675 75.0696 59.1888 75.0696 58.6316 75.0696H56.96V77.0199C56.96 77.2985 56.6814 77.2985 56.6814 77.2985C56.4028 77.5771 56.4028 77.2985 56.4028 77.0199ZM58.353 74.2338C59.1888 74.2338 60.0247 73.9552 60.0247 73.1193C60.0247 72.2835 59.1888 72.0049 58.353 72.0049H56.96L57.2386 74.2338H58.353ZM62.2535 77.2985C62.2535 77.2985 61.9749 77.0198 62.2535 76.7412L64.2038 71.4477C64.2038 71.1691 64.4824 71.1691 64.761 71.1691C65.0396 71.1691 65.0396 71.4477 65.3182 71.4477L67.8257 76.7412V77.2985C67.5471 77.5771 67.2685 77.5771 67.2685 77.2985L66.7113 75.9054H63.6466L63.0894 77.2985C62.8108 77.5771 62.2535 77.5771 62.2535 77.2985ZM63.6466 75.0696H65.8755L64.4824 72.2835L63.6466 75.0696ZM68.1043 74.2338C68.1043 72.2835 69.2188 71.1691 70.8904 71.1691C71.4476 71.1691 72.2835 71.1691 72.8407 71.7263L73.1193 72.0049C73.1193 72.2835 72.8407 72.2835 72.5621 72.2835C72.0048 72.0049 71.4476 72.0049 70.8904 72.0049C69.4974 72.0049 68.6615 73.1193 68.6615 74.5124C68.6615 75.9054 69.4974 77.0199 71.169 77.0199C71.7262 77.0199 72.2835 77.0198 72.8407 76.7412H73.1193C73.3979 77.0198 73.3979 77.2985 73.1193 77.2985C72.5621 77.5771 71.7262 77.8557 71.169 77.8557C69.776 77.5771 68.3829 76.184 68.1043 74.2338ZM76.184 77.0199L75.9054 72.0049H74.2337C73.9551 72.0049 73.9551 71.7263 73.9551 71.7263C73.9551 71.4477 73.9551 71.4477 74.2337 71.4477H78.4128C78.6914 71.4477 78.6914 71.7263 78.6914 71.7263C78.6914 72.0049 78.4128 72.0049 78.4128 72.0049H76.7412L77.0198 77.0199C77.0198 77.2985 76.7412 77.2985 76.7412 77.2985C76.4626 77.5771 76.184 77.2985 76.184 77.0199Z" fill="#6D9000"/>
<path d="M44.4226 96.2439L42.1937 97.3583C42.1937 97.3583 35.5071 91.7861 34.3927 91.2289C33.2782 90.6717 31.328 92.622 31.0494 92.9006C30.7708 93.1792 29.3777 94.015 28.5419 93.1792C27.7061 92.3434 29.3777 90.1145 29.3777 90.1145C29.3777 90.1145 31.0494 88.4428 33.2782 87.607C35.5071 86.7712 36.9002 87.8856 38.8504 89.0001C40.5221 90.1145 41.3579 89.2787 41.3579 89.2787L44.4226 96.2439ZM27.7061 97.9155C27.7061 98.1941 27.7061 98.4728 27.4275 98.4728L26.5916 99.8658C26.313 100.423 25.4772 100.702 24.92 100.144C24.3628 99.8658 24.0842 99.03 24.6414 98.4728L25.4772 97.0797C25.7558 96.5225 26.5916 96.2439 27.1489 96.8011C27.4275 97.0797 27.7061 97.3583 27.7061 97.9155Z" fill="white"/>
<path d="M30.2137 98.4727C30.2137 98.7513 30.2136 99.0299 29.935 99.0299L28.2634 101.816C27.9848 102.373 27.149 102.652 26.5917 102.095C26.0345 101.816 25.7559 100.98 26.3131 100.423L27.9848 97.6369C28.2634 97.0797 29.0992 96.8011 29.6564 97.3583C29.935 97.6369 30.2137 97.9155 30.2137 98.4727Z" fill="white"/>
<path d="M32.1638 99.8658C32.1638 100.144 32.1638 100.423 31.8852 100.423L30.4922 102.93C30.2135 103.488 29.3777 103.766 28.8205 103.209C28.2633 102.93 27.9847 102.095 28.5419 101.537L30.2135 99.03C30.4922 98.4728 31.328 98.1941 31.8852 98.7514C32.1638 99.03 32.1638 99.5872 32.1638 99.8658Z" fill="white"/>
<path d="M34.1141 101.537C34.1141 101.816 34.1141 102.095 33.8355 102.095L32.721 103.766C32.4424 104.324 31.6066 104.602 31.0494 104.045C30.4922 103.766 30.2136 102.93 30.7708 102.373L31.8852 100.702C32.1638 100.144 32.9996 99.8658 33.5569 100.423C33.8355 100.98 34.1141 101.259 34.1141 101.537Z" fill="white"/>
<path d="M25.7559 88.7215L21.5768 97.3583C21.2982 97.9155 20.7409 97.9155 20.4623 97.6369L18.2335 96.5225C17.6762 96.2439 17.6762 95.6867 17.9549 95.4081L22.134 86.7712C22.4126 86.214 22.9698 86.214 23.2484 86.4926L25.4773 87.607C25.7559 87.607 26.0345 88.1642 25.7559 88.7215ZM48.6018 96.5225L46.3729 97.6369C45.8157 97.9155 45.2585 97.6369 45.2585 97.3583L41.0794 88.7215C40.8008 88.1642 41.0794 87.607 41.358 87.607L43.5869 86.4926C44.1441 86.214 44.7013 86.4926 44.7013 86.7712L48.8804 95.4081C49.159 95.6867 48.8804 96.2439 48.6018 96.5225Z" fill="#6D9000"/>
<path d="M49.1589 95.1294L44.9798 86.4926C44.7012 85.9353 43.8654 85.6567 43.3082 85.9354L41.0793 87.0498C40.5221 87.3284 40.2435 88.1642 40.5221 88.7214L40.8007 89.2786C39.9649 89.8359 38.5718 88.7214 38.2932 88.7214C36.6215 87.8856 35.2285 86.7712 32.9996 87.607H32.721C31.328 87.0498 29.3777 87.607 27.9847 88.7214C27.1489 89.5573 26.0344 89.2786 25.4772 89.2786L25.7558 88.7214C26.0344 88.1642 25.7558 87.3284 25.1986 87.0498L22.9697 85.9354C22.4125 85.6567 21.5767 85.9353 21.2981 86.4926L17.1189 95.1294C16.8403 95.6867 17.1189 96.5225 17.6762 96.8011L19.905 97.9155C20.4622 98.1941 21.2981 97.9155 21.5767 97.3583L21.8553 96.8011L24.3628 98.1941C23.8055 99.03 24.0842 99.8658 24.92 100.144C25.4772 100.423 25.7558 100.423 26.0344 100.423C25.7558 101.259 26.0344 102.095 26.5916 102.373C27.1489 102.652 27.4275 102.652 27.9847 102.373C27.9847 102.93 28.2633 103.209 28.5419 103.488C29.0991 103.766 29.6563 103.766 30.2135 103.488C30.2135 103.766 30.4922 104.324 30.7708 104.324C31.328 104.881 32.4424 104.602 32.721 103.766L32.9996 103.209L34.3927 104.324C34.9499 104.881 36.0643 104.881 36.6216 104.045C36.9002 103.766 36.9002 103.209 36.9002 102.93C37.4574 103.209 38.0146 102.93 38.5718 102.373C38.8504 102.095 38.8504 101.537 38.8504 101.259C39.4076 101.537 40.2435 101.259 40.5221 100.702C40.8007 100.423 40.8007 99.8658 40.8007 99.5872C41.3579 99.8658 42.1937 99.5872 42.4723 99.03C43.0295 98.4727 42.7509 97.6369 42.4723 97.0797L44.144 96.2439L44.7012 97.0797C44.9798 97.6369 45.8156 97.9155 46.3729 97.6369L48.6017 96.5225C49.1589 96.5225 49.4376 95.6867 49.1589 95.1294ZM21.2981 97.0797C21.0195 97.3583 20.7409 97.6369 20.4622 97.3583L18.2334 96.2439C17.9548 95.9653 17.6762 95.6866 17.9548 95.408L22.1339 86.7712C22.4125 86.4926 22.6911 86.214 22.9697 86.4926L25.1986 87.607C25.4772 87.8856 25.7558 88.1642 25.4772 88.4428C25.4772 89 21.0195 97.6369 21.2981 97.0797ZM25.1986 99.8658C24.6414 99.5872 24.6414 99.03 24.92 98.4727L25.7558 97.0797C26.0344 96.5225 26.5916 96.5225 27.1489 96.8011C27.7061 97.0797 27.7061 97.6369 27.4275 98.1941C27.1489 98.4727 26.5916 99.8658 26.5916 99.5872C26.313 100.144 25.4772 100.144 25.1986 99.8658ZM26.8702 102.095C26.313 101.816 26.313 101.259 26.5916 100.702C26.8702 100.423 27.9847 98.4727 28.2633 97.9155C28.5419 97.3583 29.0991 97.3583 29.6563 97.6369C30.2136 97.9155 30.2135 98.4727 29.9349 99.03L28.2633 101.816C27.7061 102.095 27.1489 102.373 26.8702 102.095ZM30.2135 102.93C29.9349 103.488 29.3777 103.488 28.8205 103.209C28.2633 102.93 28.2633 102.373 28.5419 101.816L30.2135 99.3086C30.4922 98.7513 31.0494 98.7513 31.6066 99.03C32.1638 99.3086 32.1638 99.8658 31.8852 100.423C31.6066 100.98 29.9349 103.209 30.2135 102.93ZM32.721 103.766C32.4424 104.324 31.8852 104.324 31.328 104.045C30.7708 103.766 30.7708 103.209 31.0494 102.652L32.1638 100.98C32.4424 100.423 32.9996 100.423 33.5569 100.702C34.1141 100.98 34.1141 101.537 33.8355 102.095L32.721 103.766ZM42.1937 99.03C41.9151 99.3086 41.3579 99.5872 40.8007 99.3086C40.5221 99.03 37.736 97.0797 38.0146 97.0797H37.736V97.3583L39.9649 99.3086C40.2435 99.5872 40.5221 100.144 40.2435 100.702C39.9649 100.98 39.4076 101.259 38.8504 100.98C38.5718 100.702 36.3429 99.03 36.6216 99.03H36.3429V99.3086L38.2932 100.702C38.8504 100.98 38.8504 101.537 38.5718 102.095C38.2932 102.373 37.736 102.652 37.1788 102.373C36.9002 102.095 35.2285 100.98 35.5071 100.98H35.2285V101.259L36.6216 102.373C36.9002 102.652 37.1788 103.209 36.9002 103.766C36.6215 104.045 36.0643 104.324 35.5071 104.045L34.1141 102.93L34.3927 102.373C34.9499 101.537 34.6713 100.702 33.8355 100.423C33.2782 100.144 32.721 100.144 32.4424 100.144C32.721 99.3086 32.4424 98.7514 31.8852 98.4727C31.6066 98.1941 31.0494 98.1941 30.4922 98.4727C30.4922 97.9155 30.2136 97.3583 29.6563 97.0797C29.0991 96.8011 28.2633 96.8011 27.7061 97.3583C27.7061 97.0797 27.4275 96.8011 27.1489 96.5225C26.5916 95.9653 25.4772 96.2439 25.1986 97.0797L24.92 97.6369L22.4125 96.2439L25.7558 89.5573C26.8702 89.8359 27.9847 89.8359 28.8205 89C29.9349 88.1642 31.328 87.607 32.4424 87.607C30.7708 88.4428 29.3777 89.8359 29.3777 89.8359C29.0991 90.1145 27.4275 92.3433 28.5419 93.4578C29.3777 94.2936 31.0494 93.7364 31.6066 92.9006C31.8852 92.622 33.5569 90.6717 34.6713 91.2289C35.7857 91.7861 41.3579 96.2439 42.7509 97.3583C42.4723 97.9155 42.4723 98.4727 42.1937 99.03ZM42.1937 97.0797C41.0793 96.2439 35.5071 91.5075 34.3927 91.2289C33.2782 90.6717 31.328 92.3433 30.7708 93.1792C30.4922 93.4578 29.3777 94.015 28.5419 93.4578C27.9847 92.9006 29.0991 91.2289 29.3777 90.6717C29.3777 90.6717 31.0494 89 33.2782 88.1642C35.2285 87.607 36.3429 88.1642 38.0146 89.2786C38.2932 89.2786 39.6862 90.6717 41.0793 90.1145L44.144 96.2439L42.1937 97.0797ZM48.3231 96.2439L46.0942 97.3583C45.8156 97.6369 45.2584 97.3583 45.2584 97.0797C40.8007 87.8856 41.3579 89.2786 41.0793 88.4428C40.8007 88.1642 41.0793 87.607 41.3579 87.607L43.5868 86.4926C43.8654 86.214 44.4226 86.4926 44.4226 86.7712L48.6017 95.408C48.8803 95.6866 48.6017 96.2439 48.3231 96.2439ZM92.9005 89.8359H61.1391C60.8605 89.8359 60.8605 89.8359 60.8605 89.5573C60.8605 89.2787 60.8605 89.2786 61.1391 89.2786H92.6219C92.9005 89.2786 92.9005 89.2787 92.9005 89.5573V89.8359ZM57.7958 89.8359H53.8953C53.6167 89.8359 53.6167 89.8359 53.6167 89.5573C53.6167 89.2787 53.6167 89.2786 53.8953 89.2786H57.7958C58.0744 89.2786 58.0744 89.2787 58.0744 89.5573C58.0744 89.8359 58.0744 89.8359 57.7958 89.8359ZM93.1791 96.5225H78.1342C77.8556 96.5225 77.8556 96.5225 77.8556 96.2439C77.8556 95.9653 77.8556 95.9653 78.1342 95.9653H93.1791C93.4577 95.9653 93.4577 95.9653 93.4577 96.2439C93.4577 96.5225 93.4577 96.5225 93.1791 96.5225ZM75.6268 96.5225H53.8953C53.6167 96.5225 53.6167 96.5225 53.6167 96.2439C53.6167 95.9653 53.6167 95.9653 53.8953 95.9653H75.6268C75.9054 95.9653 75.9054 95.9653 75.9054 96.2439C75.9054 96.5225 75.6268 96.5225 75.6268 96.5225ZM93.4577 102.93H65.0396C64.761 102.93 64.761 102.93 64.761 102.652C64.761 102.373 64.761 102.373 65.0396 102.373H93.7363C94.0149 102.373 94.0149 102.373 94.0149 102.652C94.0149 102.93 93.7363 102.93 93.4577 102.93ZM61.9749 102.93H55.0097C54.7311 102.93 54.7311 102.93 54.7311 102.652C54.7311 102.373 54.7311 102.373 55.0097 102.373H61.9749C62.2535 102.373 62.2536 102.373 62.2536 102.652C62.2536 102.93 62.2535 102.93 61.9749 102.93ZM94.0149 109.338H59.1889C58.9102 109.338 58.9102 109.338 58.9102 109.06C58.9102 108.781 58.9102 108.781 59.1889 108.781H94.0149C94.2935 108.781 94.2936 108.781 94.2936 109.06C94.2936 109.338 94.0149 109.338 94.0149 109.338ZM55.2883 109.338H26.0344C25.7558 109.338 25.7558 109.338 25.7558 109.06C25.7558 108.781 25.7558 108.781 26.0344 108.781H55.2883C55.5669 108.781 55.5669 108.781 55.5669 109.06C55.5669 109.338 55.5669 109.338 55.2883 109.338ZM22.1339 109.338H18.2334C17.9548 109.338 17.9548 109.338 17.9548 109.06C17.9548 108.781 17.9548 108.781 18.2334 108.781H22.1339C22.4125 108.781 22.4125 108.781 22.4125 109.06C22.4125 109.338 22.4125 109.338 22.1339 109.338ZM94.2936 115.746H88.4428C88.1642 115.746 88.1642 115.746 88.1642 115.468C88.1642 115.189 88.1642 115.189 88.4428 115.189H94.2936C94.5722 115.189 94.5722 115.189 94.5722 115.468C94.5722 115.746 94.5722 115.746 94.2936 115.746ZM84.2636 115.746H49.9948C49.7162 115.746 49.7162 115.746 49.7162 115.468C49.7162 115.189 49.7162 115.189 49.9948 115.189H84.5423C84.8209 115.189 84.8209 115.189 84.8209 115.468C84.8209 115.746 84.5422 115.746 84.2636 115.746ZM46.0942 115.746H19.0692C18.7906 115.746 18.7906 115.746 18.7906 115.468C18.7906 115.189 18.7906 115.189 19.0692 115.189H46.0942C46.3729 115.189 46.3729 115.189 46.3729 115.468C46.3729 115.746 46.0942 115.746 46.0942 115.746ZM94.2936 134.692H73.3979C73.1193 134.692 73.1193 134.692 73.1193 134.413C73.1193 134.135 73.1193 134.135 73.3979 134.135H94.2936C94.5722 134.135 94.5722 134.135 94.5722 134.413C94.5722 134.692 94.2936 134.692 94.2936 134.692ZM53.3381 134.692H22.1339C21.8553 134.692 21.8553 134.692 21.8553 134.413C21.8553 134.135 21.8553 134.135 22.1339 134.135H53.0595C53.3381 134.135 53.3381 134.135 53.3381 134.413V134.692ZM87.0497 133.02C86.7711 132.742 86.7711 133.02 87.0497 133.02C86.7711 132.742 86.7711 132.463 87.0497 132.463L92.0647 131.906C91.7861 130.513 90.9502 129.677 90.393 129.398C89.8358 129.398 89.5572 129.677 89 129.398C88.4428 129.398 88.1642 128.841 87.8855 128.562C87.3283 127.727 87.3283 127.727 86.7711 128.284C85.9353 129.12 85.6567 129.12 85.0995 128.841C84.2636 128.562 83.985 129.398 83.1492 128.562C82.8706 128.284 82.8706 128.284 82.592 128.562C82.3134 128.841 82.3134 128.841 82.0348 128.841C81.7562 130.513 80.3631 132.463 78.4129 131.906C77.8556 131.906 77.8556 131.349 77.577 131.07C76.184 132.463 74.2337 132.742 72.5621 132.184C72.2835 132.184 72.2835 131.906 72.2835 131.906C72.2835 131.627 72.5621 131.627 72.5621 131.627C73.9551 132.184 75.9054 131.906 77.0198 130.513C76.7412 129.12 77.0198 127.727 78.1342 127.169V125.776C78.1342 124.383 78.6915 123.269 78.9701 121.876C78.9701 121.597 79.2487 121.597 79.5273 121.597C79.8059 121.597 80.0845 121.597 80.0845 121.876C80.3631 122.712 80.9203 123.826 81.1989 124.941C81.4776 126.055 81.7562 127.169 81.4775 128.284C82.3134 127.448 82.592 128.284 82.8706 128.284C83.4278 128.284 83.7064 128.005 84.5423 128.284C85.0995 128.562 85.0995 128.562 85.6567 128.005C85.9353 127.727 86.4925 127.169 87.0497 127.448C87.6069 127.727 87.8856 128.841 88.4428 129.12H89.2786C87.6069 126.055 88.7214 121.04 90.9502 120.761C91.2289 120.761 91.5075 120.761 91.7861 121.04C92.9005 122.154 93.1791 123.826 92.9005 125.219C92.6219 126.891 91.5075 128.562 90.1144 129.12C90.6716 129.677 91.5075 130.513 91.7861 131.906C91.7861 132.184 91.7861 132.463 91.2289 132.463L87.0497 133.02ZM78.1342 130.234L78.4129 131.07C79.2487 131.349 79.8059 131.07 80.3631 130.513C80.9203 129.956 81.4775 129.12 81.4775 128.284C80.3631 128.005 80.3631 126.891 79.2487 126.891C79.2487 128.284 78.9701 129.398 78.1342 130.234ZM78.6915 127.448C78.1342 128.005 77.8556 128.841 77.8556 129.677C78.4129 128.841 78.6915 128.284 78.6915 127.448ZM91.7861 120.761C90.393 120.761 89 125.498 90.6716 128.284C92.0647 127.727 93.1791 126.334 93.1791 124.662C93.4577 122.712 92.3433 120.761 91.7861 120.761ZM81.7562 128.005C81.7562 126.891 81.7562 126.055 81.4775 124.941C81.1989 123.826 80.9203 122.712 80.3631 121.876C79.8059 122.99 79.5273 124.105 79.5273 125.498V126.891C80.6417 126.612 80.9203 127.727 81.7562 128.005Z" fill="#1B2600"/>
<path d="M75.3482 23.2484C75.9055 23.2484 76.1841 22.6912 76.1841 22.134C75.0696 19.0693 72.2835 17.119 68.9402 17.119H66.99C66.1541 17.119 65.5969 16.5618 65.3183 15.726L65.0397 11.2682C65.0397 10.1538 63.9253 9.31798 62.8108 9.31798H58.9103C57.7959 9.31798 56.9601 8.48215 56.6815 7.36772L56.4028 5.13884C56.1242 2.07415 53.3382 -0.433329 49.9948 -0.15472C47.2088 0.123888 45.2585 2.63137 45.5371 5.41745L45.8157 7.36772C45.8157 8.48215 44.9799 9.31798 44.1441 9.31798H40.2435C39.1291 9.31798 38.2933 10.1538 38.5719 11.2682L38.8505 15.726C38.8505 16.5618 38.2933 17.119 37.4575 17.119H35.5072C33.5569 17.119 31.8853 17.9548 30.7709 19.0693C29.935 19.9051 29.3778 21.0195 29.3778 22.134C29.3778 22.6912 29.6564 23.2484 30.2136 23.2484H75.3482Z" fill="#6D9000"/>
<path d="M53.0595 4.58157C53.0595 5.41739 52.5023 6.25321 51.3879 6.25321C50.2735 6.25321 49.4376 5.41739 49.4376 4.58157C49.4376 3.46713 49.9948 2.90991 51.1093 2.90991C52.2237 2.90991 53.0595 3.74574 53.0595 4.58157Z" fill="white"/>
<path d="M35.2285 163.667H41.0793V169.518H35.2285V163.667Z" fill="#344900"/>
<path d="M41.0793 163.667H78.4129V169.518H41.0793V163.667Z" fill="#6D9000"/>
<path d="M57.5172 163.667H61.9749V169.518H57.5172V163.667Z" fill="white"/>
<path d="M42.4724 157.816H48.3232V163.667H42.4724V157.816Z" fill="#344900"/>
<path d="M48.3231 157.816H85.6567V163.667H48.3231V157.816Z" fill="#6D9000"/>
<path d="M48.3231 163.11H85.6567V163.667H48.3231V163.11Z" fill="#8DB300"/>
<path d="M64.7611 157.816H69.2189V163.667H64.7611V157.816Z" fill="white"/>
<path d="M153.916 167.289C153.916 168.125 153.08 168.961 152.244 168.961H145.836C144.443 168.961 143.329 167.846 143.05 166.453C132.184 100.144 136.085 124.383 135.249 118.811C134.135 123.826 138.871 100.423 125.219 168.125C125.219 168.404 124.662 168.682 124.383 168.682H118.254C117.418 168.682 116.582 167.846 116.582 167.01C116.582 167.01 119.09 99.8658 119.926 96.5225C120.204 96.5225 153.08 97.6369 152.801 97.6369C152.244 116.025 152.244 95.408 153.916 167.289Z" fill="#6D9000"/>
<path d="M132.184 46.0943L139.985 46.6515L145 100.702C144.722 103.488 121.319 101.259 121.597 98.7514L124.662 54.7312L132.184 46.0943Z" fill="#9B9B9B"/>
<path d="M154.195 104.881C151.966 109.617 142.493 108.224 139.985 106.831C137.478 105.438 135.249 80.6418 134.971 77.2984C129.956 76.4626 126.055 75.9054 126.055 75.9054L127.169 73.6765L125.498 69.776H134.413V67.8258C134.692 61.6964 134.97 52.5023 139.707 46.6515C139.707 46.6515 143.329 46.6515 146.393 47.4873C148.901 48.0445 151.13 49.4376 151.687 51.6664C151.966 53.0595 156.702 72.2835 150.573 77.2984C150.573 78.9701 150.573 78.9701 151.13 80.6418C151.687 82.3134 152.244 85.0995 152.801 87.8856C154.473 94.2936 155.588 102.095 154.195 104.881Z" fill="#DDDDDD"/>
<path d="M128.284 106.274C125.498 107.388 120.204 105.995 118.254 105.438C117.697 105.159 117.14 104.602 117.418 104.045L120.204 81.4776C120.204 81.4776 120.204 75.0696 120.483 68.1044C118.533 69.776 116.304 71.4477 114.632 71.4477C109.339 72.2835 94.5723 61.975 94.5723 61.975L97.637 56.4028L112.682 60.8606C112.96 60.8606 113.518 60.8606 113.796 60.582L123.826 48.6018C127.169 44.7013 132.463 45.8157 132.463 45.8157C132.463 45.8157 129.12 49.7162 128.005 60.0247C126.612 70.8905 131.349 104.881 128.284 106.274Z" fill="#DDDDDD"/>
<path d="M129.398 41.0793C129.398 41.0793 122.712 42.1937 121.04 38.5718C119.368 34.9499 126.055 29.6563 127.448 23.2483C128.841 16.8403 135.806 20.7409 136.642 24.6414C136.642 24.6414 140.821 19.905 145 25.7558C149.18 31.6066 147.229 38.2932 150.851 41.3579C154.473 44.4226 133.299 46.9301 129.398 41.0793Z" fill="#1B2600"/>
<path d="M140.543 38.5719L139.428 46.6515L133.02 52.5023L132.184 46.0943V44.7013C130.513 44.9799 128.841 44.7013 128.005 43.8654C126.055 41.358 126.612 31.6067 126.612 31.6067C130.791 24.0842 139.707 30.2136 139.707 30.2136C139.707 30.2136 139.985 32.1639 139.985 34.3927C140.821 34.6714 141.379 35.5072 141.379 36.6216C141.657 37.1788 141.379 38.2933 140.543 38.5719Z" fill="#F1F7F6"/>
<path d="M143.05 34.9499L141.657 35.2286C141.1 32.9997 137.757 33.5569 137.478 35.7858C131.906 35.5072 131.906 28.2633 131.906 28.2633C130.234 33.2783 126.055 33.8355 126.055 33.8355L124.383 31.0494L131.627 24.6414L139.707 27.4275L143.05 34.9499ZM129.12 36.9002C129.12 37.1788 128.841 37.4574 128.562 37.4574C128.284 37.4574 128.005 37.1788 128.005 36.9002C128.005 36.6216 128.284 36.343 128.562 36.343C129.12 36.343 129.398 36.343 129.12 36.9002ZM129.677 35.7858C129.398 35.5072 128.562 35.5072 128.284 35.5072H128.005V35.2286C128.562 35.2286 129.398 34.9499 129.677 35.7858C129.955 35.7858 129.955 35.7858 129.677 35.7858ZM133.299 37.4574C133.299 37.736 133.02 38.0146 132.742 38.0146C132.463 38.0146 132.184 37.736 132.184 37.4574C132.184 37.1788 132.463 36.9002 132.742 36.9002C133.02 36.9002 133.299 37.1788 133.299 37.4574ZM133.856 36.9002C133.577 36.6216 133.02 36.343 132.184 36.343V36.0644C132.184 35.7858 132.184 35.7858 132.463 36.0644C133.299 36.0644 133.856 36.343 133.856 36.9002C134.135 36.6216 134.135 36.6216 133.856 36.9002ZM130.791 38.8505H129.955C129.677 38.5719 129.677 38.2932 129.955 38.0146C130.234 37.736 130.513 38.0146 130.513 37.4574V36.6216H130.791C130.791 36.9002 130.791 37.1788 130.513 37.4574C130.513 37.736 130.234 37.736 129.955 38.0146C129.677 38.0146 129.955 38.2932 129.955 38.2932C130.234 38.5719 130.513 38.5719 130.791 38.8505C131.07 38.8505 130.791 38.5719 130.791 38.8505ZM131.627 40.5221C131.349 40.8007 131.07 41.6366 130.513 41.3579C129.955 41.3579 129.677 40.8007 129.677 40.2435C129.955 40.5221 130.791 40.8007 131.627 40.5221Z" fill="#1B2600"/>
<path d="M139.985 37.1788C139.985 36.9002 139.985 36.9002 139.985 37.1788C140.264 36.6216 140.264 36.343 140.264 35.7858C140.264 35.2285 139.707 34.9499 139.428 35.2285H139.15V34.9499C139.707 34.6713 140.264 34.9499 140.543 35.7858C140.543 36.0644 140.543 36.6216 139.985 37.1788Z" fill="#1B2600"/>
<path d="M145.836 168.961L146.115 174.811L151.687 174.533V168.961H145.836Z" fill="#F1F7F6"/>
<path d="M146.672 172.304C146.672 171.747 146.393 171.468 145.836 171.468C145.558 171.468 145 171.747 145 172.025L144.443 173.976L138.592 175.926C137.757 176.205 137.199 177.04 137.199 177.876C137.199 177.876 137.199 178.155 137.478 178.155H154.194C154.194 178.155 154.473 178.155 154.473 177.876V175.647C154.473 175.647 154.473 172.583 151.966 172.304C151.966 172.304 150.851 174.812 148.622 174.533C146.672 174.254 146.672 172.304 146.672 172.304Z" fill="#1B2600"/>
<path d="M151.966 175.369C151.687 175.926 151.966 176.205 151.966 176.762H153.637V175.647C153.637 175.647 153.637 174.811 153.359 174.254C153.08 174.254 152.244 174.811 151.966 175.369Z" fill="#2F2E35"/>
<path d="M117.975 168.961V175.09L123.826 174.254L123.548 168.961H117.975Z" fill="#F1F7F6"/>
<path d="M126.055 177.876L109.338 178.155C109.338 178.155 109.06 178.155 109.06 177.876C109.06 177.04 109.617 176.205 110.453 175.926L116.304 173.976L116.861 172.025C116.861 171.747 117.418 171.468 117.697 171.468C118.254 171.468 118.533 171.747 118.533 172.304C118.533 172.304 118.811 173.976 120.204 174.254C122.433 174.533 123.826 172.025 123.826 172.025C124.941 172.304 125.498 173.14 125.776 173.976C126.055 175.09 126.055 175.926 126.055 176.762V177.876Z" fill="#1B2600"/>
<path d="M126.055 176.762H124.383C123.826 175.647 124.662 174.533 125.776 173.976C126.055 174.812 126.055 175.369 126.055 175.369V176.762Z" fill="#2F2E35"/>
<path d="M134.97 119.09L134.692 116.304V116.025H134.97V119.09C135.249 119.09 135.249 119.09 134.97 119.09Z" fill="#1B2600"/>
<path d="M125.498 69.776C132.184 69.2188 141.378 69.2188 142.214 69.2188C143.886 69.4974 145.836 68.6616 146.672 66.9899C146.393 67.8258 145.836 68.6616 145 69.2188C144.165 69.776 143.05 69.776 142.214 69.776C141.378 69.776 132.463 70.0546 125.498 69.776Z" fill="#9B9B9B"/>
<path d="M97.3583 56.6814V57.5172C97.0797 59.1889 96.2438 60.3033 95.1294 61.4177C94.8508 61.6963 94.5722 61.6963 94.2936 61.975V61.1391C94.2936 59.1889 95.1294 57.7958 96.5224 56.96C96.8011 56.96 97.0797 56.96 97.3583 56.6814Z" fill="#1B2600"/>
<path d="M97.0797 57.7959C96.8011 59.4675 95.9653 60.582 94.8509 61.6964L94.2936 61.4178H94.015C90.6717 61.4178 85.6568 58.6317 87.3284 57.2387C86.4926 56.4028 87.607 55.8456 87.607 55.8456C87.0498 54.7312 88.4429 54.4526 88.4429 54.4526L87.8856 53.8954L85.0995 51.9451C84.5423 51.3879 84.2637 50.2734 84.8209 50.2734C86.4926 50.8307 89.0001 52.2237 91.2289 53.6167V53.3381C90.9503 52.5023 90.9503 51.6665 91.2289 51.3879C92.0648 50.8307 95.4081 55.567 96.2439 57.2387C96.2439 57.2387 96.2439 57.5173 96.5225 57.5173C96.8011 57.5173 97.0797 57.5173 97.0797 57.7959Z" fill="#F1F7F6"/>
<path d="M92.6219 55.2884L91.5075 53.6167V53.3381H91.7861L92.6219 55.2884C92.6219 55.0098 92.6219 55.0098 92.6219 55.2884ZM89.5572 58.6317C88.1642 57.5172 87.6069 57.2386 87.6069 57.2386V56.96H87.8855C87.6069 56.96 88.1642 56.96 89.5572 58.6317C89.5572 58.353 89.5572 58.353 89.5572 58.6317ZM89.8358 56.96C88.4428 55.8456 87.8855 55.567 87.8855 55.567V55.2884H88.1642C87.8855 55.567 88.4428 55.567 89.8358 56.96C90.1144 56.96 90.1144 56.96 89.8358 56.96ZM90.6716 55.567C89.2786 54.4525 88.7214 54.1739 88.7214 54.1739V53.8953C88.7214 54.1739 89.5572 54.1739 90.6716 55.567C90.9502 55.567 90.9502 55.567 90.6716 55.567ZM132.742 44.7012C132.463 44.7012 132.463 44.7012 132.742 44.7012C132.463 44.4226 132.463 44.7012 132.742 44.7012C133.577 44.144 134.692 43.8654 135.806 43.5868H136.085V43.8654C134.135 44.7012 133.02 44.7012 132.742 44.7012ZM124.662 85.3781L119.09 60.3033C118.811 59.4675 118.533 58.9103 117.975 58.3531L115.189 55.2884C114.911 55.0098 114.632 55.0097 114.353 55.567C113.239 59.1889 112.682 60.3033 112.96 61.6964L118.532 86.7711C118.811 87.607 119.368 88.1642 120.204 87.8856L123.269 87.3284C124.383 87.0497 124.94 86.2139 124.662 85.3781Z" fill="#1B2600"/>
<path d="M124.105 83.1492L124.662 85.6567C124.941 86.4925 124.383 87.3284 123.547 87.3284L120.483 87.8856C119.647 88.1642 118.811 87.607 118.811 86.7711L118.254 84.2637L124.105 83.1492Z" fill="#6D9000"/>
<path d="M119.09 60.0247C118.811 58.6316 117.697 57.7958 116.861 56.96L115.189 55.2884C114.911 55.0097 114.632 55.0097 114.353 55.567L113.518 57.7958C113.239 58.9103 112.682 60.0247 112.96 61.4177L119.09 60.0247Z" fill="#9B9B9B"/>
<path d="M116.861 56.96L115.189 55.2884C114.911 55.0097 114.632 55.0097 114.353 55.567L113.518 57.7958C114.075 58.0744 114.632 58.0744 115.189 58.0744C116.025 57.7958 116.582 57.5172 116.861 56.96ZM126.055 75.9054C126.334 75.9054 127.169 74.5123 127.169 73.1193C127.448 71.169 126.612 70.0546 125.498 69.776C125.498 69.776 125.219 69.776 125.219 70.0546C124.383 71.169 125.219 75.6268 126.055 75.9054Z" fill="#1B2600"/>
<path d="M117.697 71.169C117.697 71.169 114.911 72.2835 117.418 72.8407C117.418 72.8407 115.468 74.2337 117.697 74.2337C117.418 74.5123 117.14 74.791 117.418 74.791C117.418 75.9054 122.433 76.4626 125.219 75.0696L126.055 75.3482L126.334 75.6268C126.891 75.3482 128.005 72.0049 126.891 70.6118C126.055 70.3332 125.776 70.3332 125.219 70.0546C124.941 69.776 124.383 69.776 123.826 69.4974C122.99 68.383 121.597 67.2685 120.483 66.7113L121.04 69.2188C120.204 69.2188 119.368 69.2188 118.254 69.4974C113.796 70.0546 117.697 71.169 117.697 71.169Z" fill="#F1F7F6"/>
<path d="M117.697 71.4477C117.418 71.1691 117.697 71.1691 117.697 71.4477L119.926 71.1691V71.4477H117.697ZM117.418 73.1193C117.418 72.8407 117.418 72.8407 117.418 73.1193L119.647 72.8407V73.1193H117.418ZM117.697 74.5124C117.418 74.2338 117.697 74.2338 117.697 74.5124L119.647 74.2338V74.5124H117.697Z" fill="#1B2600"/>
<path d="M151.408 80.9204L135.806 77.5771C138.592 77.8557 142.214 78.4129 146.115 78.6915C148.065 78.9701 149.458 78.4129 150.573 77.5771C151.13 78.9701 151.13 79.2487 151.408 80.9204Z" fill="#9B9B9B"/>
<path d="M176.762 13.4971V32.9997C176.762 33.5569 176.205 34.1141 175.647 34.1141H163.11L156.702 39.4077C156.423 39.6863 155.866 39.4077 155.866 38.8505V34.1141H152.244C151.687 34.1141 151.13 33.5569 151.13 32.9997V13.4971C151.13 12.9398 151.687 12.3826 152.244 12.3826H175.647C176.205 12.6612 176.762 12.9398 176.762 13.4971Z" fill="#DDDDDD"/>
<path d="M174.533 15.726V30.4922C174.533 30.7708 174.254 31.328 173.697 31.328H154.473C154.194 31.328 153.637 31.0494 153.637 30.4922V15.726C153.637 15.4474 153.916 14.8901 154.473 14.8901H173.697C174.254 15.1687 174.533 15.4474 174.533 15.726Z" fill="#4D6D00"/>
<path d="M168.044 23.0824C169.312 22.2098 169.632 20.475 168.759 19.2076C167.886 17.9403 166.152 17.6204 164.884 18.493C163.617 19.3656 163.297 21.1004 164.17 22.3678C165.042 23.6351 166.777 23.9551 168.044 23.0824Z" fill="white"/>
<path d="M167.289 20.7409C167.751 20.7409 168.125 20.3667 168.125 19.905C168.125 19.4434 167.751 19.0692 167.289 19.0692C166.827 19.0692 166.453 19.4434 166.453 19.905C166.453 20.3667 166.827 20.7409 167.289 20.7409Z" fill="#4D6D00"/>
<path d="M164.224 21.5767L165.617 23.2484L164.503 24.0842H163.946V24.6414L163.389 25.1986H162.831L162.553 26.0345L161.717 26.8703H160.881V27.7061L160.324 28.5419H158.652V27.1489L164.224 21.5767Z" fill="white"/>
<path opacity="0.25" d="M97.3583 56.6814L100.702 56.96V57.7958L97.3583 56.6814ZM101.259 70.8904L94.2936 62.2536L101.259 66.4327V70.8904Z" fill="#1B2600"/>
</g>
<defs>
<clipPath id="clip0_1242_27848">
<rect width="178" height="178" fill="white"/>
</clipPath>
</defs>
</svg>
