<svg width="16" height="17" viewBox="0 0 16 17" fill="none" xmlns="http://www.w3.org/2000/svg">
<path d="M7.99984 6.50015V9.16682M7.99984 11.8335H8.0065M7.07671 3.09464L1.59346 12.5657C1.28932 13.091 1.13725 13.3537 1.15973 13.5693C1.17933 13.7573 1.27784 13.9282 1.43075 14.0394C1.60605 14.1668 1.90956 14.1668 2.51658 14.1668H13.4831C14.0901 14.1668 14.3936 14.1668 14.5689 14.0394C14.7218 13.9282 14.8203 13.7573 14.8399 13.5693C14.8624 13.3537 14.7104 13.091 14.4062 12.5657L8.92296 3.09463C8.61991 2.57119 8.46839 2.30947 8.2707 2.22157C8.09826 2.14489 7.90141 2.14489 7.72897 2.22157C7.53128 2.30947 7.37976 2.57119 7.07671 3.09464Z" stroke="#FF0031" stroke-width="1.5" stroke-linecap="round" stroke-linejoin="round"/>
</svg>
