<svg width="32" height="32" viewBox="0 0 32 32" fill="none" xmlns="http://www.w3.org/2000/svg">
<g clip-path="url(#clip0_452_42772)">
<path d="M24.1942 22.3343C24.712 22.3343 25.1317 21.9146 25.1317 21.3968V11.4871C25.1317 6.48649 21.0635 2.41824 16.0629 2.41824C11.0624 2.41824 6.99414 6.48649 6.99414 11.4871V21.3968C6.99414 21.9146 7.41389 22.3343 7.93164 22.3343H24.1942Z" fill="#FF4A00"/>
<path d="M16.063 2.4183C16.0419 2.4183 16.0211 2.41893 16 2.41912V22.3343H24.1943C24.712 22.3343 25.1318 21.9146 25.1318 21.3968V11.4871C25.1318 6.48655 21.0636 2.4183 16.063 2.4183Z" fill="#F13700"/>
<path d="M14.4246 22.3343V14.1181C14.4246 13.6004 14.8443 13.1806 15.3621 13.1806H16.638C17.1557 13.1806 17.5755 13.6004 17.5755 14.1181V22.3343H14.4246Z" fill="#FF6F2F"/>
<path d="M17.5754 14.1181C17.5754 13.6004 17.1557 13.1806 16.6379 13.1806H16V22.3343H17.5755V14.1181H17.5754Z" fill="#FF4A00"/>
<path d="M20.4518 10.4026C18.3836 10.4026 16.7009 12.0852 16.7009 14.1534C16.7009 16.2216 18.3836 17.9042 20.4518 17.9042C20.9696 17.9042 21.3893 17.4845 21.3893 16.9667V11.3402C21.3893 10.8223 20.9696 10.4026 20.4518 10.4026Z" fill="#FDBF00"/>
<path d="M11.6743 10.3673C11.1566 10.3673 10.7368 10.7871 10.7368 11.3048V16.9314C10.7368 17.4492 11.1566 17.8689 11.6743 17.8689C13.7425 17.8689 15.4251 16.1863 15.4251 14.1181C15.4251 12.0499 13.7424 10.3673 11.6743 10.3673Z" fill="#FCE000"/>
<path d="M25.4546 20.4594H6.67139C6.15364 20.4594 5.73389 20.8791 5.73389 21.3969V25.3041C5.73389 25.8218 6.15364 26.2416 6.67139 26.2416H25.4546C25.9724 26.2416 26.3921 25.8218 26.3921 25.3041V21.3969C26.3921 20.8791 25.9724 20.4594 25.4546 20.4594Z" fill="#FFF5F5"/>
<path d="M25.4546 20.4594H16V26.2416H25.4546C25.9724 26.2416 26.3921 25.8218 26.3921 25.3041V21.3969C26.3921 20.8791 25.9724 20.4594 25.4546 20.4594Z" fill="#EEE1DD"/>
<path d="M26.9767 24.3666H5.14941C4.63166 24.3666 4.21191 24.7864 4.21191 25.3041V28.6442C4.21191 29.1619 4.63166 29.5817 5.14941 29.5817H26.9767C27.4945 29.5817 27.9142 29.1619 27.9142 28.6442V25.3041C27.9142 24.7864 27.4945 24.3666 26.9767 24.3666Z" fill="#EEE1DD"/>
<path d="M26.9766 24.3666H16V29.5817H26.9767C27.4944 29.5817 27.9142 29.1619 27.9142 28.6442V25.3041C27.9141 24.7864 27.4944 24.3666 26.9766 24.3666Z" fill="#C4B4AF"/>
<path d="M27.0787 15.9652C26.8838 15.9652 26.6874 15.9047 26.5191 15.7793C26.104 15.4698 26.0183 14.8825 26.3277 14.4673C26.8444 13.7743 26.8491 12.165 26.3364 11.4986C26.0206 11.0883 26.0974 10.4997 26.5077 10.184C26.9181 9.86826 27.5068 9.94489 27.8224 10.3553C28.8429 11.6819 28.8472 14.2248 27.8311 15.588C27.7438 15.7052 27.6303 15.8004 27.4997 15.8659C27.369 15.9314 27.2248 15.9654 27.0787 15.9652ZM30.0511 17.6485C29.8597 17.6485 29.6665 17.59 29.4999 17.4687C29.0814 17.1638 28.9893 16.5774 29.2942 16.1589C30.3936 14.6498 30.3978 11.2658 29.3022 9.80639C28.9913 9.39233 29.075 8.80464 29.4891 8.49376C29.9031 8.18283 30.4908 8.26658 30.8017 8.68064C31.5675 9.7007 32.0042 11.2653 32 12.9733C31.9958 14.6668 31.5619 16.2303 30.8097 17.263C30.7227 17.3826 30.6086 17.4799 30.4767 17.5469C30.3449 17.6139 30.199 17.6487 30.0511 17.6485Z" fill="#FF4A00"/>
<path d="M4.92134 15.9652C4.77519 15.9654 4.63102 15.9314 4.50037 15.8659C4.36972 15.8004 4.25622 15.7052 4.16897 15.5879C3.15284 14.2248 3.15709 11.6819 4.17759 10.3553C4.49328 9.945 5.08203 9.86819 5.49228 10.1839C5.90266 10.4997 5.97941 11.0883 5.66366 11.4986C5.15097 12.165 5.15559 13.7743 5.67228 14.4673C5.98172 14.8825 5.89603 15.4698 5.48091 15.7793C5.31937 15.9001 5.12305 15.9653 4.92134 15.9652ZM1.94891 17.6485C1.801 17.6487 1.65514 17.6139 1.52329 17.5469C1.39144 17.4799 1.27734 17.3826 1.19034 17.2629C0.438093 16.2304 0.00428073 14.6668 3.07311e-05 12.9733C-0.00421927 11.2654 0.432531 9.70082 1.19834 8.68069C1.50922 8.26657 2.09678 8.18294 2.51097 8.49382C2.92503 8.80469 3.00872 9.39238 2.69784 9.80644C1.60222 11.2659 1.60647 14.6499 2.70584 16.1589C3.01072 16.5774 2.91859 17.1639 2.50009 17.4688C2.3401 17.5857 2.14706 17.6486 1.94891 17.6485Z" fill="#FF6F2F"/>
</g>
<defs>
<clipPath id="clip0_452_42772">
<rect width="32" height="32" fill="white"/>
</clipPath>
</defs>
</svg>
