<svg width="32" height="32" viewBox="0 0 32 32" fill="none" xmlns="http://www.w3.org/2000/svg">
<rect x="0.25" y="0.25" width="31.5" height="31.5" rx="15.75" fill="white"/>
<rect x="0.25" y="0.25" width="31.5" height="31.5" rx="15.75" stroke="#CBCBCB" stroke-width="0.5"/>
<path d="M10.255 21.4641C10.2666 21.5356 10.3034 21.6005 10.3588 21.647C10.4143 21.6936 10.4845 21.7187 10.5569 21.7177H11.5712C11.6151 21.7174 11.6583 21.7075 11.6979 21.6887C11.7376 21.6699 11.7726 21.6427 11.8007 21.6091C11.8289 21.5761 11.8497 21.5375 11.8617 21.4959C11.8737 21.4542 11.8766 21.4104 11.8701 21.3675L11.2392 17.5275H11.6075C16.1961 17.9472 18.1946 20.637 18.2128 20.6611C18.2408 20.7006 18.278 20.7327 18.3211 20.7547C18.3641 20.7768 18.4119 20.7882 18.4603 20.7879C18.4912 20.7888 18.5219 20.7837 18.5509 20.7728C18.612 20.7536 18.6653 20.7155 18.7033 20.6639C18.7413 20.6124 18.7619 20.5501 18.7622 20.486V17.12H19.3931C19.4732 17.12 19.55 17.0882 19.6066 17.0316C19.6632 16.975 19.695 16.8982 19.695 16.8181V14.6415C19.695 14.5614 19.6632 14.4847 19.6066 14.428C19.55 14.3714 19.4732 14.3396 19.3931 14.3396H18.7622V10.9917C18.7606 10.9316 18.741 10.8733 18.7061 10.8243C18.6711 10.7754 18.6223 10.738 18.566 10.717C18.5057 10.6967 18.4405 10.696 18.3798 10.715C18.3191 10.734 18.2659 10.7716 18.2278 10.8226C18.2067 10.8528 16.015 13.7208 11.5682 13.9713H9.69653C9.4488 13.9713 9.21104 14.0689 9.03474 14.2429C8.85845 14.4169 8.75781 14.6534 8.75464 14.9011V16.5857C8.75526 16.8201 8.84359 17.0459 9.00225 17.2185C9.16091 17.3911 9.37842 17.4981 9.612 17.5185L10.255 21.4641ZM11.215 21.114H10.8105L10.2248 17.5275H10.6294L11.215 21.114ZM19.0912 14.9434V16.5041H18.7622V14.9434H19.0912ZM18.1584 11.7766V19.6891C17.2709 18.8196 15.2724 17.3011 11.8701 16.9389V14.5419C14.2256 14.3861 16.4515 13.4073 18.1584 11.7766ZM9.35841 16.5857V14.9011C9.35841 14.8115 9.39403 14.7255 9.45744 14.662C9.52085 14.5986 9.60685 14.563 9.69653 14.563H11.2663V16.9238H9.69653C9.60685 16.9238 9.52085 16.8881 9.45744 16.8247C9.39403 16.7613 9.35841 16.6753 9.35841 16.5857ZM20.5584 13.9109C20.5827 13.9633 20.6214 14.0077 20.6701 14.0387C20.7188 14.0698 20.7754 14.0862 20.8331 14.086C20.8768 14.0857 20.92 14.0765 20.9599 14.0589L22.7924 13.2317C22.8288 13.2154 22.8616 13.192 22.8889 13.163C22.9162 13.1339 22.9375 13.0997 22.9516 13.0624C22.9656 13.0251 22.9721 12.9853 22.9707 12.9455C22.9693 12.9056 22.96 12.8664 22.9433 12.8302C22.9098 12.758 22.8492 12.7019 22.7745 12.6742C22.6999 12.6465 22.6173 12.6494 22.5448 12.6823L20.7094 13.5094C20.673 13.5257 20.6401 13.5491 20.6128 13.5781C20.5855 13.6072 20.5642 13.6414 20.5502 13.6787C20.5361 13.7161 20.5296 13.7558 20.5311 13.7957C20.5325 13.8355 20.5418 13.8747 20.5584 13.9109ZM21.2829 10.3819L19.9244 11.8641C19.8846 11.9072 19.8581 11.9609 19.8482 12.0187C19.8383 12.0765 19.8455 12.1359 19.8689 12.1897C19.8923 12.2435 19.9308 12.2894 19.9798 12.3216C20.0288 12.3539 20.0862 12.3711 20.1448 12.3713C20.1867 12.3716 20.2282 12.3632 20.2667 12.3465C20.3052 12.3299 20.3397 12.3054 20.3682 12.2747L21.7267 10.7894C21.7748 10.7297 21.7984 10.6539 21.7927 10.5774C21.787 10.5009 21.7524 10.4295 21.6959 10.3776C21.6394 10.3258 21.5653 10.2973 21.4886 10.2981C21.4119 10.2989 21.3384 10.3289 21.2829 10.3819ZM22.7924 17.7811L20.9599 16.9509C20.9238 16.9345 20.8849 16.9253 20.8453 16.9239C20.8056 16.9225 20.7661 16.9289 20.729 16.9428C20.6918 16.9567 20.6578 16.9777 20.6288 17.0048C20.5998 17.0318 20.5764 17.0643 20.5599 17.1004C20.5435 17.1365 20.5343 17.1754 20.5329 17.215C20.5315 17.2547 20.5379 17.2942 20.5518 17.3313C20.5657 17.3685 20.5867 17.4025 20.6138 17.4315C20.6408 17.4605 20.6733 17.4839 20.7094 17.5004L22.5448 18.3306C22.5837 18.3483 22.6259 18.3575 22.6686 18.3577C22.7374 18.3574 22.8041 18.3336 22.8575 18.2902C22.9109 18.2468 22.9479 18.1865 22.9624 18.1192C22.9768 18.0519 22.9678 17.9817 22.9369 17.9202C22.906 17.8587 22.855 17.8097 22.7924 17.7811ZM19.9335 19.1457L21.2829 20.6309C21.3114 20.6617 21.346 20.6861 21.3845 20.7028C21.4229 20.7194 21.4644 20.7278 21.5063 20.7275C21.5812 20.7274 21.6532 20.6994 21.7086 20.6491C21.7673 20.5949 21.8022 20.5197 21.8056 20.44C21.809 20.3602 21.7806 20.2823 21.7267 20.2234L20.3773 18.7381C20.3514 18.706 20.3191 18.6795 20.2826 18.6603C20.2461 18.6411 20.206 18.6296 20.1648 18.6265C20.1236 18.6234 20.0823 18.6288 20.0433 18.6424C20.0043 18.6559 19.9684 18.6773 19.938 18.7052C19.9076 18.7331 19.8833 18.767 19.8665 18.8047C19.8497 18.8424 19.8408 18.8832 19.8404 18.9245C19.8399 18.9657 19.848 19.0067 19.864 19.0447C19.88 19.0828 19.9037 19.1171 19.9335 19.1457ZM22.9433 15.203H21.0354C20.9553 15.203 20.8785 15.2348 20.8219 15.2914C20.7653 15.3481 20.7335 15.4248 20.7335 15.5049C20.7335 15.585 20.7653 15.6618 20.8219 15.7184C20.8785 15.775 20.9553 15.8068 21.0354 15.8068H22.9433C23.0234 15.8068 23.1002 15.775 23.1568 15.7184C23.2134 15.6618 23.2452 15.585 23.2452 15.5049C23.2452 15.4248 23.2134 15.3481 23.1568 15.2914C23.1002 15.2348 23.0234 15.203 22.9433 15.203Z" fill="black"/>
</svg>
