<svg width="32" height="32" viewBox="0 0 32 32" fill="none" xmlns="http://www.w3.org/2000/svg">
<rect x="0.25" y="0.25" width="31.5" height="31.5" rx="15.75" fill="white"/>
<rect x="0.25" y="0.25" width="31.5" height="31.5" rx="15.75" stroke="#CBCBCB" stroke-width="0.5"/>
<g clip-path="url(#clip0_19_27797)">
<path d="M14.3219 13.2843C14.3509 13.3139 14.3854 13.3374 14.4235 13.3535C14.4616 13.3695 14.5025 13.3779 14.5438 13.3781C14.6267 13.3775 14.7061 13.345 14.7657 13.2874L16.2688 11.7843C16.3272 11.7259 16.3601 11.6466 16.3601 11.564C16.3601 11.4814 16.3272 11.4021 16.2688 11.3437C16.2104 11.2853 16.1311 11.2524 16.0485 11.2524C15.9659 11.2524 15.8866 11.2853 15.8282 11.3437L14.5469 12.6249L13.9251 11.9968C13.867 11.938 13.788 11.9046 13.7054 11.904C13.6228 11.9034 13.5433 11.9357 13.4844 11.9937C13.4256 12.0517 13.3922 12.1307 13.3916 12.2134C13.391 12.296 13.4233 12.3755 13.4813 12.4343L14.3219 13.2843Z" fill="black"/>
<path d="M21.2969 13.0531V10.0375C21.2966 9.69199 21.1592 9.36072 20.9148 9.11641C20.6705 8.87209 20.3393 8.7347 19.9938 8.73438H11.8531C11.1625 8.73438 10.5969 9.29063 10.5969 9.975L10.55 17.8531H9.29688C9.21407 17.8534 9.13472 17.8864 9.07617 17.9449C9.01761 18.0035 8.98461 18.0828 8.98438 18.1656V19.5188C8.98528 19.9418 9.14909 20.3483 9.44179 20.6538C9.73448 20.9593 10.1336 21.1404 10.5563 21.1594V21.1625H17.5813V21.1594C17.6125 21.1625 17.6438 21.1625 17.675 21.1625C18.1108 21.162 18.5286 20.9886 18.8367 20.6805C19.1449 20.3723 19.3182 19.9545 19.3188 19.5188V13.3625H20.9844C21.0254 13.3633 21.0661 13.3558 21.1041 13.3406C21.1422 13.3253 21.1768 13.3026 21.2059 13.2738C21.2351 13.2449 21.2581 13.2106 21.2737 13.1727C21.2894 13.1348 21.2972 13.0941 21.2969 13.0531ZM9.60938 19.5219V18.4813H16.0313V19.5219C16.0317 19.8919 16.1572 20.251 16.3875 20.5406H10.6281C10.358 20.5406 10.0989 20.4332 9.90782 20.2422C9.71677 20.0511 9.60942 19.7921 9.60938 19.5219ZM18.6938 10.0375V19.5219C18.6938 19.7921 18.5864 20.0512 18.3954 20.2422C18.2043 20.4333 17.9452 20.5406 17.675 20.5406C17.4048 20.5406 17.1457 20.4333 16.9546 20.2422C16.7636 20.0512 16.6563 19.7921 16.6563 19.5219V18.1688C16.656 18.0859 16.623 18.0066 16.5645 17.948C16.5059 17.8895 16.4266 17.8565 16.3438 17.8563H11.1781L11.225 9.97813C11.2258 9.89605 11.2428 9.81494 11.275 9.73942C11.3071 9.6639 11.3539 9.59546 11.4125 9.538C11.4711 9.48055 11.5404 9.4352 11.6166 9.40455C11.6927 9.3739 11.7742 9.35855 11.8563 9.35938H18.8875C18.7602 9.56261 18.6931 9.79771 18.6938 10.0375ZM20.6719 12.7406H19.3188V10.0375C19.3188 9.85765 19.3902 9.68517 19.5174 9.55799C19.6445 9.43082 19.817 9.35938 19.9969 9.35938C20.1767 9.35938 20.3492 9.43082 20.4764 9.55799C20.6036 9.68517 20.675 9.85765 20.675 10.0375V12.7406H20.6719Z" fill="black"/>
<path d="M17.3562 15.3312H12.3718C12.2889 15.3312 12.2095 15.3641 12.1509 15.4227C12.0923 15.4813 12.0593 15.5608 12.0593 15.6437C12.0593 15.7266 12.0923 15.8061 12.1509 15.8647C12.2095 15.9233 12.2889 15.9562 12.3718 15.9562H17.3593C17.4422 15.9558 17.5215 15.9225 17.5798 15.8636C17.6382 15.8047 17.6707 15.725 17.6703 15.6421C17.6699 15.5593 17.6365 15.4799 17.5776 15.4216C17.5187 15.3633 17.4391 15.3308 17.3562 15.3312ZM15.3875 16.6093H12.3718C12.2889 16.6093 12.2095 16.6423 12.1509 16.7009C12.0923 16.7595 12.0593 16.8389 12.0593 16.9218C12.0593 17.0047 12.0923 17.0842 12.1509 17.1428C12.2095 17.2014 12.2889 17.2343 12.3718 17.2343H15.3875C15.4703 17.2343 15.5498 17.2014 15.6084 17.1428C15.667 17.0842 15.7 17.0047 15.7 16.9218C15.7 16.8389 15.667 16.7595 15.6084 16.7009C15.5498 16.6423 15.4703 16.6093 15.3875 16.6093ZM21.7968 14.3718C21.4737 14.3722 21.164 14.5008 20.9355 14.7292C20.707 14.9577 20.5785 15.2675 20.5781 15.5906V21.0062C20.5776 21.0177 20.5786 21.0293 20.5812 21.0406V21.0468C20.5812 21.0562 20.5843 21.0625 20.5843 21.0718C20.5841 21.0735 20.5843 21.0752 20.5848 21.0769C20.5854 21.0785 20.5863 21.08 20.5875 21.0812C20.5891 21.0886 20.5912 21.0959 20.5937 21.1031C20.5937 21.1062 20.5968 21.1093 20.5968 21.1125C20.6 21.1187 20.6031 21.1281 20.6062 21.1343C20.6062 21.1352 20.6065 21.1359 20.6071 21.1365C20.6077 21.1371 20.6085 21.1375 20.6093 21.1375L21.5312 23.0843C21.5566 23.1374 21.5965 23.1823 21.6462 23.2138C21.696 23.2453 21.7536 23.2622 21.8125 23.2625H21.8156C21.8749 23.2623 21.9329 23.2452 21.9828 23.2131C22.0326 23.1809 22.0722 23.1352 22.0968 23.0812L22.9875 21.1343V21.1312C22.9906 21.125 22.9937 21.1156 22.9968 21.1093C22.9972 21.107 22.9983 21.1048 23 21.1031C23.0035 21.0952 23.0056 21.0867 23.0062 21.0781C23.0062 21.075 23.0062 21.075 23.0093 21.0718C23.0119 21.0627 23.013 21.0532 23.0125 21.0437V21.0375C23.0125 21.0281 23.0156 21.0156 23.0156 21.0031V15.5906C23.0152 15.2675 22.8866 14.9577 22.6582 14.7292C22.4297 14.5008 22.1199 14.3722 21.7968 14.3718ZM21.2031 20.6937V16.5593H22.3906V20.6937H21.2031ZM21.7968 14.9968C21.8748 14.9968 21.952 15.0121 22.0241 15.042C22.0961 15.0718 22.1616 15.1155 22.2167 15.1707C22.2719 15.2258 22.3156 15.2913 22.3454 15.3633C22.3753 15.4354 22.3906 15.5126 22.3906 15.5906V15.9343H21.2031V15.5906C21.203 15.5126 21.2184 15.4354 21.2482 15.3633C21.278 15.2913 21.3218 15.2258 21.3769 15.1707C21.4321 15.1155 21.4975 15.0718 21.5696 15.042C21.6416 15.0121 21.7188 14.9968 21.7968 14.9968ZM21.8093 22.2093L21.3875 21.3156H22.2187L21.8093 22.2093Z" fill="black"/>
</g>
<defs>
<clipPath id="clip0_19_27797">
<rect width="16" height="16" fill="white" transform="translate(8 8)"/>
</clipPath>
</defs>
</svg>
