<svg width="16" height="17" viewBox="0 0 16 17" fill="none" xmlns="http://www.w3.org/2000/svg">
<path d="M9.33329 2.01362V4.76732C9.33329 5.14069 9.33329 5.32737 9.40595 5.46998C9.46987 5.59542 9.57186 5.69741 9.6973 5.76132C9.83991 5.83398 10.0266 5.83398 10.4 5.83398H13.1537M13.3333 7.15947V11.9673C13.3333 13.0874 13.3333 13.6475 13.1153 14.0753C12.9236 14.4516 12.6176 14.7576 12.2413 14.9493C11.8134 15.1673 11.2534 15.1673 10.1333 15.1673H5.86663C4.74652 15.1673 4.18647 15.1673 3.75864 14.9493C3.38232 14.7576 3.07636 14.4516 2.88461 14.0753C2.66663 13.6475 2.66663 13.0874 2.66663 11.9673V5.03398C2.66663 3.91388 2.66663 3.35383 2.88461 2.926C3.07636 2.54968 3.38232 2.24372 3.75864 2.05197C4.18647 1.83398 4.74652 1.83398 5.86663 1.83398H8.00781C8.49699 1.83398 8.74158 1.83398 8.97176 1.88924C9.17583 1.93824 9.37092 2.01905 9.54986 2.1287C9.7517 2.25239 9.92465 2.42534 10.2706 2.77124L12.396 4.89673C12.7419 5.24263 12.9149 5.41558 13.0386 5.61741C13.1482 5.79636 13.229 5.99145 13.278 6.19552C13.3333 6.4257 13.3333 6.67029 13.3333 7.15947Z" stroke="#0098FF" stroke-width="1.5" stroke-linecap="round" stroke-linejoin="round"/>
</svg>
