<svg width="32" height="32" viewBox="0 0 32 32" fill="none" xmlns="http://www.w3.org/2000/svg">
<g clip-path="url(#clip0_452_42796)">
<path d="M30.1325 24.5024L16.1908 17.7646C16.1314 17.7358 16.0662 17.7209 16.0001 17.7209H16.0001L15.8069 24.4162L16.0001 32C16.0655 32 16.13 31.9852 16.1889 31.9568L29.9881 25.2878C30.1515 25.2088 30.2333 25.0529 30.2333 24.8971V24.5695C30.2029 24.5427 30.169 24.5201 30.1325 24.5024Z" fill="#FF656F"/>
<path d="M30.2332 7.10269C30.2332 7.07962 30.2308 7.05669 30.2272 7.03387C30.2092 7.16862 30.1305 7.296 29.9881 7.36481L16.1889 14.0337C16.13 14.0622 16.0655 14.077 16.0001 14.077L15.8713 15.9654L16.0001 17.7942C16.0647 17.7942 16.1293 17.8086 16.1889 17.8374L29.9882 24.5064C30.1515 24.5854 30.2333 24.7413 30.2333 24.8971V7.10287L30.2334 7.10269H30.2332Z" fill="#FF8188"/>
<path d="M16.0002 17.7209C15.9341 17.7209 15.8689 17.7358 15.8095 17.7646L1.86778 24.5024C1.83133 24.5201 1.79745 24.5427 1.76709 24.5695V24.8971C1.76709 25.0529 1.84878 25.2088 2.01221 25.2878L15.8114 31.9568C15.8703 31.9852 15.9348 32 16.0002 32L16.0002 17.7209Z" fill="#23A8FE"/>
<path d="M4.17365 23.388L1.86778 24.5024C1.83133 24.5201 1.79745 24.5427 1.76709 24.5696V24.8971C1.76709 25.053 1.84878 25.2088 2.01221 25.2878L4.17371 26.3324L4.17365 23.388Z" fill="#0193FA"/>
<path d="M16 14.077C15.9346 14.077 15.8701 14.0622 15.8112 14.0338L2.01197 7.36482C1.87122 7.29676 1.79147 7.1717 1.77197 7.0387C1.76874 7.05988 1.76707 7.08127 1.76697 7.1027L1.76685 7.10276L1.76697 7.10295V24.8971C1.76697 24.7413 1.84866 24.5854 2.0121 24.5064L15.8113 17.8374C15.8702 17.809 15.9348 17.7942 16.0002 17.7942V14.077H16Z" fill="#60B8FE"/>
<path d="M4.1736 8.76257V8.76051L4.17347 8.76026L4.1736 8.7602C4.1736 8.73145 4.17616 8.70276 4.18035 8.67432C4.19203 8.59547 4.21982 8.51986 4.26197 8.4522L2.01197 7.36482C1.87122 7.29676 1.79147 7.1717 1.77197 7.0387C1.76874 7.05988 1.76707 7.08127 1.76697 7.1027L1.76685 7.10276L1.76697 7.10295V24.8971C1.76697 24.7413 1.84866 24.5854 2.0121 24.5064L4.1736 23.4618V8.76257Z" fill="#23A8FE"/>
<path d="M30.231 7.06862C30.2304 7.06056 30.2304 7.0525 30.2294 7.0445C30.228 7.03425 30.2254 7.02425 30.2233 7.01412C30.2214 7.00513 30.2203 6.996 30.2179 6.98706C30.2153 6.97725 30.2113 6.96781 30.2079 6.95819C30.2049 6.94931 30.2024 6.94025 30.1988 6.93156C30.195 6.92263 30.1899 6.91419 30.1855 6.90544C30.181 6.8965 30.1771 6.88731 30.1719 6.87862C30.1666 6.86987 30.1601 6.86175 30.1542 6.85331C30.1486 6.84531 30.1436 6.837 30.1374 6.82937C30.1293 6.81931 30.1197 6.81012 30.1104 6.80069C30.1053 6.79537 30.1008 6.78963 30.0953 6.78456C30.0633 6.75531 30.0272 6.7309 29.9881 6.71212L16.1889 0.04325C16.13 0.0147561 16.0655 -3.07727e-05 16.0001 4.80817e-08L15.8069 7.10288L16.0001 14.2058C16.0655 14.2058 16.13 14.191 16.1889 14.1625L29.9881 7.4935C30.1635 7.40881 30.2439 7.2355 30.231 7.06862Z" fill="#FFD301"/>
<path d="M18.822 1.31575L16.1889 0.04325C16.13 0.0147561 16.0655 -3.07727e-05 16.0001 4.80817e-08L15.9263 2.71519L18.822 1.31575Z" fill="#FFC20C"/>
<path d="M1.76691 7.10288V7.10444C1.76747 7.25975 1.84903 7.41488 2.01191 7.49356L15.8112 14.1626C15.8701 14.191 15.9346 14.2058 16 14.2058V0C15.9347 6.72563e-06 15.8701 0.0147919 15.8113 0.04325L2.01203 6.71219C1.84872 6.79112 1.76703 6.94688 1.76691 7.10262H1.76685L1.76691 7.10288Z" fill="#FEE55A"/>
<path d="M4.50253 8.23606L16.0001 2.67944V0H16C15.9347 6.72563e-06 15.8701 0.0147919 15.8113 0.04325L2.01203 6.71219C1.84872 6.79112 1.76703 6.94688 1.76691 7.10262H1.76685L1.76691 7.10288V7.10444C1.76747 7.25975 1.84903 7.41488 2.01191 7.49356L4.21078 8.55625C4.25928 8.424 4.35597 8.30687 4.50253 8.23606Z" fill="#FFD301"/>
</g>
<defs>
<clipPath id="clip0_452_42796">
<rect width="32" height="32" fill="white"/>
</clipPath>
</defs>
</svg>
