<svg width="40" height="40" viewBox="0 0 40 40" fill="none" xmlns="http://www.w3.org/2000/svg">
<path d="M31.446 26.6013L23.656 29.98C23.6981 30.2087 23.72 30.4408 23.7213 30.6733C23.7146 31.7407 23.2848 32.7617 22.5261 33.5125C21.7675 34.2633 20.742 34.6824 19.6747 34.678H12.5547C12.3779 34.678 12.2083 34.6078 12.0833 34.4827C11.9582 34.3577 11.888 34.1881 11.888 34.0113C11.888 33.8345 11.9582 33.665 12.0833 33.5399C12.2083 33.4149 12.3779 33.3447 12.5547 33.3447H19.6747C20.0289 33.3503 20.3807 33.2853 20.7096 33.1536C21.0385 33.022 21.3379 32.8262 21.5903 32.5776C21.8428 32.3291 22.0433 32.0329 22.1802 31.7061C22.317 31.3793 22.3875 31.0286 22.3875 30.6743C22.3875 30.3201 22.317 29.9693 22.1802 29.6426C22.0433 29.3158 21.8428 29.0195 21.5903 28.771C21.3379 28.5225 21.0385 28.3267 20.7096 28.195C20.3807 28.0633 20.0289 27.9984 19.6747 28.004H13.7893C13.137 28.0606 12.4807 27.9591 11.876 27.708C9.83539 26.6993 7.60736 26.1258 5.33333 26.024V24.6667C5.33333 24.4899 5.2631 24.3203 5.13807 24.1953C5.01305 24.0702 4.84348 24 4.66667 24H0.666667C0.489856 24 0.320286 24.0702 0.195262 24.1953C0.0702379 24.3203 0 24.4899 0 24.6667V39.3333C0 39.5101 0.0702379 39.6797 0.195262 39.8047C0.320286 39.9298 0.489856 40 0.666667 40H4.66667C4.84348 40 5.01305 39.9298 5.13807 39.8047C5.2631 39.6797 5.33333 39.5101 5.33333 39.3333V38.282C5.33333 38.282 16.7333 39.3333 16.9667 39.3333C17.6656 39.3369 18.3507 39.139 18.94 38.7633L33.6387 30.544C34.1022 30.2451 34.4392 29.7857 34.585 29.2538C34.7308 28.7218 34.6751 28.1548 34.4287 27.6613C34.1622 27.1359 33.7041 26.733 33.149 26.5358C32.5938 26.3386 31.9842 26.3617 31.446 26.6013Z" fill="black"/>
<path d="M32 11.1185C31.2358 11.2999 30.4388 11.2915 29.6787 11.0938L27.7847 12.9878C28.026 13.2078 28.3401 13.3308 28.6667 13.3332C28.8435 13.3332 29.013 13.4034 29.1381 13.5284C29.2631 13.6535 29.3333 13.823 29.3333 13.9998V17.3332C29.3333 17.51 29.2631 17.6796 29.1381 17.8046C29.013 17.9296 28.8435 17.9998 28.6667 17.9998C28.3131 18.0002 27.9742 18.1408 27.7242 18.3908C27.4743 18.6407 27.3337 18.9797 27.3333 19.3332C27.3333 19.51 27.2631 19.6796 27.1381 19.8046C27.013 19.9296 26.8435 19.9998 26.6667 19.9998H10.6667C10.4899 19.9998 10.3203 19.9296 10.1953 19.8046C10.0702 19.6796 9.99999 19.51 9.99999 19.3332C9.99964 18.9797 9.85905 18.6407 9.60908 18.3908C9.35911 18.1408 9.02017 18.0002 8.66666 17.9998C8.48985 17.9998 8.32028 17.9296 8.19526 17.8046C8.07023 17.6796 7.99999 17.51 7.99999 17.3332V13.9998C7.99999 13.823 8.07023 13.6535 8.19526 13.5284C8.32028 13.4034 8.48985 13.3332 8.66666 13.3332C9.02017 13.3328 9.35911 13.1922 9.60908 12.9423C9.85905 12.6923 9.99964 12.3534 9.99999 11.9998C9.99999 11.823 10.0702 11.6535 10.1953 11.5284C10.3203 11.4034 10.4899 11.3332 10.6667 11.3332H18.9827C19.2024 10.7638 19.5382 10.2464 19.9687 9.81384L21.116 8.6665H5.99999C5.82318 8.6665 5.65361 8.73674 5.52859 8.86177C5.40357 8.98679 5.33333 9.15636 5.33333 9.33317V21.9998C5.33333 22.1766 5.40357 22.3462 5.52859 22.4712C5.65361 22.5963 5.82318 22.6665 5.99999 22.6665H31.3333C31.5101 22.6665 31.6797 22.5963 31.8047 22.4712C31.9298 22.3462 32 22.1766 32 21.9998V11.1185Z" fill="black"/>
<path d="M39.3333 0H36.6667C36.4899 0 36.3203 0.0702379 36.1953 0.195262C36.0702 0.320286 36 0.489856 36 0.666667V1.33333H25.6107C25.0122 1.33167 24.4193 1.44871 23.8664 1.67769C23.3134 1.90667 22.8114 2.24304 22.3893 2.66733L17.724 7.33333H22.4493L24.53 5.25267C24.6557 5.13123 24.8241 5.06403 24.9989 5.06555C25.1737 5.06707 25.3409 5.13718 25.4645 5.26079C25.5882 5.38439 25.6583 5.5516 25.6598 5.7264C25.6613 5.9012 25.5941 6.0696 25.4727 6.19533L20.886 10.782C20.4452 11.2049 20.1568 11.7619 20.066 12.366C20.0107 12.7469 20.0477 13.1356 20.1738 13.4992C20.2999 13.8629 20.5115 14.191 20.7907 14.456C21.2732 14.9313 21.9226 15.1989 22.5999 15.2018C23.2772 15.2047 23.9288 14.9425 24.4153 14.4713L29.3367 9.55133C29.9175 9.82913 30.5603 9.95186 31.2026 9.90758C31.8449 9.86331 32.4648 9.65353 33.002 9.29867C33.0777 9.25347 33.1617 9.22374 33.249 9.21122C33.3363 9.19869 33.4252 9.20362 33.5106 9.2257C33.596 9.24779 33.6761 9.28659 33.7464 9.33988C33.8167 9.39316 33.8757 9.45986 33.92 9.53611C33.9644 9.61236 33.9931 9.69664 34.0046 9.78409C34.0161 9.87153 34.0102 9.96038 33.9871 10.0455C33.964 10.1306 33.9243 10.2103 33.8702 10.28C33.8161 10.3497 33.7488 10.4079 33.672 10.4513C33.5593 10.5167 33.4467 10.5727 33.3333 10.63V16.446C34.2776 16.0034 35.1716 15.4607 36 14.8273V15.3333C36 15.5101 36.0702 15.6797 36.1953 15.8047C36.3203 15.9298 36.4899 16 36.6667 16H39.3333C39.5101 16 39.6797 15.9298 39.8047 15.8047C39.9298 15.6797 40 15.5101 40 15.3333V0.666667C40 0.489856 39.9298 0.320286 39.8047 0.195262C39.6797 0.0702379 39.5101 0 39.3333 0Z" fill="#4D6D00"/>
<path d="M10.5516 13.8845C10.8884 13.5478 11.1293 13.1273 11.2494 12.6665H18.7167C18.707 13.1826 18.8054 13.6951 19.0056 14.1709C19.2059 14.6467 19.5035 15.0753 19.8794 15.4292C20.5931 16.1395 21.5558 16.5433 22.5627 16.5545C23.6059 16.5441 24.6059 16.1362 25.3587 15.4138L26.8434 13.9292C27.167 14.2418 27.5652 14.4667 28 14.5825V16.7512C27.5392 16.8711 27.1186 17.1118 26.7818 17.4485C26.445 17.7852 26.2041 18.2057 26.084 18.6665H11.2494C11.1293 18.2057 10.8884 17.7852 10.5516 17.4485C10.2148 17.1118 9.79425 16.8711 9.33337 16.7512V14.5818C9.79425 14.4619 10.2148 14.2212 10.5516 13.8845Z" fill="#8DB300"/>
</svg>
