<svg width="17" height="17" viewBox="0 0 17 17" fill="none" xmlns="http://www.w3.org/2000/svg">
<path d="M9.83317 2.01367V4.76737C9.83317 5.14073 9.83317 5.32742 9.90583 5.47003C9.96975 5.59547 10.0717 5.69745 10.1972 5.76137C10.3398 5.83403 10.5265 5.83403 10.8998 5.83403H13.6535M6.49984 11.1673L7.83317 12.5007L10.8332 9.50065M9.83317 1.83398H6.3665C5.2464 1.83398 4.68635 1.83398 4.25852 2.05197C3.8822 2.24372 3.57624 2.54968 3.38449 2.926C3.1665 3.35383 3.1665 3.91388 3.1665 5.03398V11.9673C3.1665 13.0874 3.1665 13.6475 3.38449 14.0753C3.57624 14.4516 3.8822 14.7576 4.25852 14.9493C4.68635 15.1673 5.2464 15.1673 6.3665 15.1673H10.6332C11.7533 15.1673 12.3133 15.1673 12.7412 14.9493C13.1175 14.7576 13.4234 14.4516 13.6152 14.0753C13.8332 13.6475 13.8332 13.0874 13.8332 11.9673V5.83398L9.83317 1.83398Z" stroke="#41BD00" stroke-width="1.5" stroke-linecap="round" stroke-linejoin="round"/>
</svg>
