<svg width="20" height="20" viewBox="0 0 20 20" fill="none" xmlns="http://www.w3.org/2000/svg">
<path d="M10 0C4.486 0 0 4.486 0 10C0 15.514 4.486 20 10 20C15.514 20 20 15.514 20 10C20 4.486 15.514 0 10 0ZM10 18.6667C5.2212 18.6667 1.33333 14.7788 1.33333 10C1.33333 5.2212 5.2212 1.33333 10 1.33333C14.7788 1.33333 18.6667 5.2212 18.6667 10C18.6667 14.7788 14.7788 18.6667 10 18.6667Z" fill="#EB5757"/>
<path d="M13.5552 8.88867H6.44412C5.83145 8.88867 5.33301 9.38712 5.33301 9.99978C5.33301 10.6124 5.83145 11.1109 6.44412 11.1109H13.5552C14.1679 11.1109 14.6663 10.6124 14.6663 9.99978C14.6663 9.38712 14.1679 8.88867 13.5552 8.88867Z" fill="#EB5757"/>
</svg>
