<svg width="17" height="17" viewBox="0 0 17 17" fill="none" xmlns="http://www.w3.org/2000/svg">
<path d="M8.335 16.67C12.9304 16.67 16.67 12.9304 16.67 8.335C16.67 3.73965 12.9304 0 8.335 0C3.7396 0 0 3.73965 0 8.335C0 12.9304 3.73965 16.67 8.335 16.67ZM8.335 1.11131C12.3191 1.11131 15.5587 4.35084 15.5587 8.335C15.5587 12.3192 12.3192 15.5587 8.335 15.5587C4.35084 15.5587 1.11131 12.3192 1.11131 8.335C1.11131 4.35084 4.35089 1.11131 8.335 1.11131Z" fill="#6D9000"/>
<path d="M10.766 10.9911C10.8688 11.0744 10.991 11.1133 11.1133 11.1133C11.1966 11.1135 11.2788 11.0948 11.3538 11.0588C11.4289 11.0227 11.4948 10.9701 11.5467 10.905C11.7384 10.666 11.6995 10.3159 11.4606 10.1242L8.89061 8.06825V3.88964C8.89061 3.58402 8.64058 3.33398 8.33495 3.33398C8.02933 3.33398 7.7793 3.58402 7.7793 3.88964V8.33499C7.7793 8.50448 7.85711 8.66284 7.98767 8.76839L10.766 10.9911Z" fill="#6D9000"/>
</svg>
