<svg width="32" height="48" viewBox="0 0 32 48" fill="none" xmlns="http://www.w3.org/2000/svg">
<path d="M0.404297 47.6824C0.404297 47.6824 0.409111 47.5889 0.435273 47.4336C0.456621 47.2676 0.509992 47.0573 0.540968 46.7864C0.583874 46.5301 0.656918 46.227 0.747753 45.9001C0.84696 45.5842 0.965841 45.2331 1.13098 44.8871C1.29653 44.5415 1.50143 44.1903 1.76284 43.8525C2.02719 43.5181 2.31853 43.1656 2.77375 42.9425C3.63563 42.4563 5.3548 42.6087 6.26775 41.7449C7.23345 40.9481 8.24038 40.0316 9.22638 38.9854C10.1965 37.9282 11.1764 36.7641 12.0473 35.4602C12.4914 34.8143 12.9131 34.1376 13.3242 33.4445C13.7252 32.7454 14.1078 32.025 14.4605 31.282C14.8108 30.535 15.1275 29.7805 15.4 28.9854C15.5384 28.5905 15.6934 28.1989 15.8182 27.8L16.1809 26.5967C16.3102 26.1984 16.4059 25.789 16.5026 25.3809C16.6016 24.9736 16.6901 24.5644 16.7743 24.1546C16.909 23.3281 17.0683 22.5115 17.1426 21.6849C17.313 20.0365 17.1332 18.359 16.7445 16.7301C16.3663 15.102 15.8563 13.5356 15.5384 12.0868C15.22 10.6377 15.0986 9.303 15.1478 8.08573C15.1775 6.86784 15.4042 5.76987 15.7843 4.80062C16.1633 3.83179 16.6753 2.98728 17.2163 2.28488C17.7525 1.58039 18.309 1.01446 18.7318 0.619098C18.9419 0.420894 19.1431 0.265597 19.2597 0.160739C19.3947 0.0546263 19.4646 0 19.4646 0C19.4646 0 19.5422 0.0493939 19.6755 0.147344C19.7959 0.246132 20.002 0.39243 20.2201 0.588122C20.3315 0.686282 20.4529 0.796162 20.5732 0.918182C20.7015 1.04062 20.8306 1.17624 20.9594 1.32212C21.0944 1.468 21.2199 1.62518 21.3522 1.79492C21.492 1.96341 21.6128 2.14403 21.7465 2.33553C22.0182 2.72106 22.2551 3.14635 22.4736 3.61203C22.6915 4.0775 22.8855 4.58547 23.0237 5.12147C23.3171 6.19914 23.4019 7.40782 23.2432 8.70357C23.099 9.99953 22.7306 11.3844 22.0963 12.807C21.4585 14.2292 20.5766 15.6863 19.7258 17.1736C19.5102 17.5455 19.3166 17.9226 19.1201 18.3002C18.9187 18.6769 18.731 19.0577 18.5587 19.4419C18.2203 20.2123 17.9084 20.9926 17.6713 21.7909C17.4476 22.5925 17.2029 23.3949 16.9896 24.2051C16.7588 25.0128 16.5451 25.825 16.3287 26.639C16.1014 27.4504 15.8833 28.2656 15.6229 29.0601C15.391 29.8619 15.0783 30.655 14.751 31.4151C14.0703 32.9359 13.2472 34.3576 12.3801 35.6825C11.5035 37.0004 10.6236 38.2551 9.75799 39.4266C8.89862 40.6026 8.06834 41.7093 7.28473 42.7278C6.44879 43.6799 6.49714 45.4292 5.84455 46.3229C5.54254 46.7885 5.11369 47.0692 4.702 47.308C4.28969 47.5456 3.8644 47.7097 3.45355 47.8204C3.04249 47.9305 2.63875 47.978 2.2752 47.9972C1.90705 48.0094 1.57783 47.9801 1.29318 47.9409C0.99598 47.8876 0.792961 47.8384 0.637663 47.7731C0.488644 47.722 0.404297 47.6824 0.404297 47.6824Z" fill="#8AAA04"/>
<path d="M17.142 21.685C17.3123 20.0365 17.1325 18.3588 16.7441 16.7301C16.3657 15.102 15.8556 13.5354 15.5377 12.0868C15.2194 10.6377 15.098 9.303 15.1474 8.08552C15.1769 6.86784 15.4035 5.76987 15.7838 4.80062C16.1627 3.83179 16.6748 2.98728 17.2158 2.28488C17.7518 1.58018 18.3084 1.01446 18.7314 0.619098C18.9415 0.420894 19.1426 0.265597 19.259 0.160739C19.3942 0.0546262 19.4641 0 19.4641 0C19.4641 0 19.5418 0.0493938 19.6751 0.147344C19.7954 0.245923 20.0014 0.39243 20.2195 0.588122C20.3308 0.686282 20.4522 0.796162 20.5728 0.918182C20.7008 1.04062 20.83 1.17624 20.9587 1.32212C21.0939 1.468 21.2193 1.62518 21.3515 1.79492C21.4914 1.9632 21.6121 2.14403 21.7459 2.33553C22.0175 2.72106 22.2547 3.14635 22.4732 3.61182C22.691 4.0775 22.8849 4.58547 23.0232 5.12147C23.3164 6.19914 23.4012 7.40782 23.2425 8.70357C23.0983 9.99954 22.73 11.3844 22.0956 12.807C21.4579 14.2292 20.5759 15.6863 19.7253 17.1736C19.5097 17.5455 19.3161 17.9224 19.1194 18.3002C18.918 18.6769 18.7303 19.0577 18.5583 19.4419C18.2196 20.2123 17.9078 20.9924 17.6706 21.7909L16.8062 24.5711L17.142 21.685Z" fill="#047DAA"/>
<path d="M13.3057 36.6092C14.6906 35.6988 15.7511 34.2607 16.7672 32.93C17.7888 31.6079 18.6802 30.2219 19.6009 29.0595C20.5226 27.8965 21.4791 26.958 22.4542 26.2271C23.4155 25.4789 24.4097 24.9607 25.4007 24.6421C26.3915 24.3234 27.3687 24.1852 28.2555 24.1609C29.1407 24.1304 29.9308 24.2032 30.5046 24.2813C30.7908 24.3196 31.0388 24.3769 31.1937 24.4004C31.3615 24.438 31.4477 24.4577 31.4477 24.4577C31.4477 24.4577 31.4582 24.5486 31.4666 24.7145C31.4666 24.8694 31.4833 25.1224 31.4697 25.4148C31.4645 25.5636 31.4557 25.7271 31.4369 25.897C31.4228 26.0741 31.4006 26.2598 31.3684 26.4523C31.3412 26.6488 31.2983 26.8449 31.251 27.0545C31.2091 27.2702 31.1449 27.4774 31.0806 27.7022C30.954 28.1564 30.7746 28.6085 30.5526 29.0725C30.3288 29.5361 30.0584 30.0082 29.7305 30.4538C29.0812 31.3618 28.199 32.1923 27.0944 32.8882C25.9985 33.596 24.6925 34.186 23.1897 34.5935C21.6845 34.9987 19.9979 35.2369 18.307 35.5184C17.8836 35.5868 17.4696 35.6743 17.0517 35.7614C16.6326 35.8438 16.2193 35.9391 15.812 36.0487C15.0016 36.2744 14.0742 36.2875 13.3057 36.6092Z" fill="#AA0442"/>
<path d="M11.2967 33.911C10.939 32.2925 9.97209 30.7902 9.09012 29.3671C8.21756 27.9418 7.23867 26.616 6.48018 25.342C5.72106 24.0671 5.18401 22.8386 4.84704 21.6682C4.4906 20.503 4.35938 19.3898 4.41442 18.35C4.46884 17.3111 4.68755 16.3483 4.97994 15.5111C5.26647 14.6731 5.61537 13.9607 5.89227 13.4523C6.02998 13.1982 6.17105 12.9864 6.24849 12.8508C6.3433 12.7068 6.39249 12.6333 6.39249 12.6333C6.39249 12.6333 6.48144 12.6555 6.63988 12.7068C6.7845 12.7624 7.02645 12.8367 7.29539 12.9533C7.43227 13.0115 7.5815 13.0772 7.73429 13.1553C7.8944 13.2308 8.06058 13.319 8.22865 13.4169C8.40278 13.5121 8.57085 13.6224 8.74959 13.7411C8.93649 13.8564 9.10791 13.99 9.29481 14.1302C9.67405 14.4102 10.0334 14.7392 10.3875 15.1122C10.7413 15.485 11.086 15.9054 11.3853 16.3711C12.0031 17.3004 12.4661 18.421 12.7229 19.7006C12.9952 20.976 13.082 22.4072 12.9295 23.9568C12.7717 25.5075 12.3947 27.1687 12.0569 28.8481C11.9694 29.2694 11.9045 29.6876 11.8376 30.1078C11.7649 30.5294 11.707 30.9496 11.6651 31.3693C11.5872 32.2065 11.2702 33.0788 11.2967 33.911Z" fill="#7D04AA"/>
</svg>
