<svg width="20" height="18" viewBox="0 0 20 18" fill="none" xmlns="http://www.w3.org/2000/svg">
<path d="M15.4166 12.3333C17.0275 12.3333 18.3333 9.90821 18.3333 6.91667C18.3333 3.92512 17.0275 1.5 15.4166 1.5M15.4166 12.3333C13.8058 12.3333 12.5 9.90821 12.5 6.91667C12.5 3.92512 13.8058 1.5 15.4166 1.5M15.4166 12.3333L4.53625 10.3551C3.76334 10.2146 3.37688 10.1443 3.0644 9.99079C2.42868 9.67852 1.95526 9.11126 1.76175 8.42994C1.66663 8.09504 1.66663 7.70225 1.66663 6.91667C1.66663 6.13108 1.66663 5.73829 1.76175 5.40339C1.95526 4.72207 2.42868 4.15481 3.0644 3.84254C3.37688 3.68904 3.76334 3.61878 4.53625 3.47825L15.4166 1.5M4.16663 10.6667L4.49484 15.2617C4.52601 15.698 4.54159 15.9162 4.63652 16.0816C4.7201 16.2272 4.8457 16.3441 4.99687 16.4171C5.16856 16.5 5.3873 16.5 5.82479 16.5H7.31012C7.81024 16.5 8.06031 16.5 8.24539 16.4003C8.40801 16.3126 8.53691 16.1734 8.61182 16.0046C8.69707 15.8124 8.67789 15.5631 8.63953 15.0644L8.33329 11.0833" stroke="#2F2E35" stroke-width="1.5" stroke-linecap="round" stroke-linejoin="round"/>
</svg>
