<svg width="13" height="15" viewBox="0 0 13 15" fill="none" xmlns="http://www.w3.org/2000/svg">
<path d="M7.83317 1.01306V3.76676C7.83317 4.14012 7.83317 4.32681 7.90583 4.46942C7.96975 4.59486 8.07173 4.69684 8.19718 4.76076C8.33978 4.83342 8.52647 4.83342 8.89984 4.83342H11.6535M4.49984 10.1667L5.83317 11.5L8.83317 8.50004M7.83317 0.833374H4.3665C3.2464 0.833374 2.68635 0.833374 2.25852 1.05136C1.8822 1.24311 1.57624 1.54907 1.38449 1.92539C1.1665 2.35322 1.1665 2.91327 1.1665 4.03337V10.9667C1.1665 12.0868 1.1665 12.6469 1.38449 13.0747C1.57624 13.451 1.8822 13.757 2.25852 13.9487C2.68635 14.1667 3.2464 14.1667 4.3665 14.1667H8.63317C9.75328 14.1667 10.3133 14.1667 10.7412 13.9487C11.1175 13.757 11.4234 13.451 11.6152 13.0747C11.8332 12.6469 11.8332 12.0868 11.8332 10.9667V4.83337L7.83317 0.833374Z" stroke="#6F6F6F" stroke-width="1.5" stroke-linecap="round" stroke-linejoin="round"/>
</svg>
