<svg width="20" height="20" viewBox="0 0 20 20" fill="none" xmlns="http://www.w3.org/2000/svg">
<g clip-path="url(#clip0_352_1269)">
<path d="M19.375 16.25C19.375 17.9688 17.9688 19.375 16.25 19.375H3.75C2.03125 19.375 0.625 17.9688 0.625 16.25V3.75C0.625 2.03125 2.03125 0.625 3.75 0.625H16.25C17.9688 0.625 19.375 2.03125 19.375 3.75V16.25Z" fill="#D0D0D0"/>
<path d="M17.7813 14.2813C17.7813 15.7188 16.6563 16.875 15.2188 16.875H4.78125C3.34375 16.875 2.1875 15.7188 2.1875 14.2813V3.84375C2.1875 2.40625 3.34375 1.25 4.78125 1.25H15.1875C16.625 1.25 17.7813 2.40625 17.7813 3.84375V14.2813Z" fill="white"/>
<path d="M13 5V5.6125C13 7.08264 13 7.81771 12.7139 8.37922C12.4622 8.87315 12.0607 9.27472 11.5667 9.52639C11.0052 9.8125 10.2701 9.8125 8.8 9.8125H6M6 9.8125L8.1875 7.625M6 9.8125L8.1875 12" stroke="#9AA0A5" stroke-linecap="round" stroke-linejoin="round"/>
</g>
<defs>
<clipPath id="clip0_352_1269">
<rect width="20" height="20" fill="white"/>
</clipPath>
</defs>
</svg>
