<svg width="196" height="48" viewBox="0 0 196 48" fill="none" xmlns="http://www.w3.org/2000/svg">
<path d="M164.404 47.6824C164.404 47.6824 164.409 47.5889 164.435 47.4336C164.457 47.2676 164.51 47.0573 164.541 46.7864C164.584 46.5301 164.657 46.227 164.748 45.9001C164.847 45.5842 164.966 45.2331 165.131 44.8871C165.297 44.5415 165.501 44.1903 165.763 43.8525C166.027 43.5181 166.319 43.1656 166.774 42.9425C167.636 42.4563 169.355 42.6087 170.268 41.7449C171.233 40.9481 172.24 40.0316 173.226 38.9854C174.196 37.9282 175.176 36.7641 176.047 35.4602C176.491 34.8143 176.913 34.1376 177.324 33.4445C177.725 32.7454 178.108 32.025 178.46 31.282C178.811 30.535 179.128 29.7805 179.4 28.9854C179.538 28.5905 179.693 28.1989 179.818 27.8L180.181 26.5967C180.31 26.1984 180.406 25.789 180.503 25.3809C180.602 24.9736 180.69 24.5644 180.774 24.1546C180.909 23.3281 181.068 22.5115 181.143 21.6849C181.313 20.0365 181.133 18.359 180.745 16.7301C180.366 15.102 179.856 13.5356 179.538 12.0868C179.22 10.6377 179.099 9.303 179.148 8.08573C179.178 6.86784 179.404 5.76987 179.784 4.80062C180.163 3.83179 180.675 2.98728 181.216 2.28488C181.753 1.58039 182.309 1.01446 182.732 0.619098C182.942 0.420894 183.143 0.265597 183.26 0.160739C183.395 0.0546263 183.465 0 183.465 0C183.465 0 183.542 0.0493939 183.676 0.147344C183.796 0.246132 184.002 0.39243 184.22 0.588122C184.331 0.686282 184.453 0.796162 184.573 0.918182C184.702 1.04062 184.831 1.17624 184.959 1.32212C185.094 1.468 185.22 1.62518 185.352 1.79492C185.492 1.96341 185.613 2.14403 185.747 2.33553C186.018 2.72106 186.255 3.14635 186.474 3.61203C186.691 4.0775 186.886 4.58547 187.024 5.12147C187.317 6.19914 187.402 7.40782 187.243 8.70357C187.099 9.99953 186.731 11.3844 186.096 12.807C185.459 14.2292 184.577 15.6863 183.726 17.1736C183.51 17.5455 183.317 17.9226 183.12 18.3002C182.919 18.6769 182.731 19.0577 182.559 19.4419C182.22 20.2123 181.908 20.9926 181.671 21.7909C181.448 22.5925 181.203 23.3949 180.99 24.2051C180.759 25.0128 180.545 25.825 180.329 26.639C180.101 27.4504 179.883 28.2656 179.623 29.0601C179.391 29.8619 179.078 30.655 178.751 31.4151C178.07 32.9359 177.247 34.3576 176.38 35.6825C175.504 37.0004 174.624 38.2551 173.758 39.4266C172.899 40.6026 172.068 41.7093 171.285 42.7278C170.449 43.6799 170.497 45.4292 169.845 46.3229C169.543 46.7885 169.114 47.0692 168.702 47.308C168.29 47.5456 167.864 47.7097 167.454 47.8204C167.042 47.9305 166.639 47.978 166.275 47.9972C165.907 48.0094 165.578 47.9801 165.293 47.9409C164.996 47.8876 164.793 47.8384 164.638 47.7731C164.489 47.722 164.404 47.6824 164.404 47.6824Z" fill="#8AAA04"/>
<path d="M181.142 21.685C181.312 20.0365 181.133 18.3588 180.744 16.7301C180.366 15.102 179.856 13.5354 179.538 12.0868C179.219 10.6377 179.098 9.303 179.147 8.08552C179.177 6.86784 179.404 5.76987 179.784 4.80062C180.163 3.83179 180.675 2.98728 181.216 2.28488C181.752 1.58018 182.308 1.01446 182.731 0.619098C182.941 0.420894 183.143 0.265597 183.259 0.160739C183.394 0.0546262 183.464 0 183.464 0C183.464 0 183.542 0.0493938 183.675 0.147344C183.795 0.245923 184.001 0.39243 184.219 0.588122C184.331 0.686282 184.452 0.796162 184.573 0.918182C184.701 1.04062 184.83 1.17624 184.959 1.32212C185.094 1.468 185.219 1.62518 185.352 1.79492C185.491 1.9632 185.612 2.14403 185.746 2.33553C186.018 2.72106 186.255 3.14635 186.473 3.61182C186.691 4.0775 186.885 4.58547 187.023 5.12147C187.316 6.19914 187.401 7.40782 187.243 8.70357C187.098 9.99954 186.73 11.3844 186.096 12.807C185.458 14.2292 184.576 15.6863 183.725 17.1736C183.51 17.5455 183.316 17.9224 183.119 18.3002C182.918 18.6769 182.73 19.0577 182.558 19.4419C182.22 20.2123 181.908 20.9924 181.671 21.7909L180.806 24.5711L181.142 21.685Z" fill="#047DAA"/>
<path d="M177.306 36.6092C178.691 35.6988 179.751 34.2607 180.767 32.93C181.789 31.6079 182.68 30.2219 183.601 29.0595C184.523 27.8965 185.479 26.958 186.454 26.2271C187.416 25.4789 188.41 24.9607 189.401 24.6421C190.392 24.3234 191.369 24.1852 192.256 24.1609C193.141 24.1304 193.931 24.2032 194.505 24.2813C194.791 24.3196 195.039 24.3769 195.194 24.4004C195.362 24.438 195.448 24.4577 195.448 24.4577C195.448 24.4577 195.458 24.5486 195.467 24.7145C195.467 24.8694 195.483 25.1224 195.47 25.4148C195.464 25.5636 195.456 25.7271 195.437 25.897C195.423 26.0741 195.401 26.2598 195.368 26.4523C195.341 26.6488 195.298 26.8449 195.251 27.0545C195.209 27.2702 195.145 27.4774 195.081 27.7022C194.954 28.1564 194.775 28.6085 194.553 29.0725C194.329 29.5361 194.058 30.0082 193.73 30.4538C193.081 31.3618 192.199 32.1923 191.094 32.8882C189.998 33.596 188.692 34.186 187.19 34.5935C185.684 34.9987 183.998 35.2369 182.307 35.5184C181.884 35.5868 181.47 35.6743 181.052 35.7614C180.633 35.8438 180.219 35.9391 179.812 36.0487C179.002 36.2744 178.074 36.2875 177.306 36.6092Z" fill="#AA0442"/>
<path d="M175.297 33.911C174.939 32.2925 173.972 30.7902 173.09 29.3671C172.218 27.9418 171.239 26.616 170.48 25.342C169.721 24.0671 169.184 22.8386 168.847 21.6682C168.491 20.503 168.359 19.3898 168.414 18.35C168.469 17.3111 168.688 16.3483 168.98 15.5111C169.266 14.6731 169.615 13.9607 169.892 13.4523C170.03 13.1982 170.171 12.9864 170.248 12.8508C170.343 12.7068 170.392 12.6333 170.392 12.6333C170.392 12.6333 170.481 12.6555 170.64 12.7068C170.784 12.7624 171.026 12.8367 171.295 12.9533C171.432 13.0115 171.582 13.0772 171.734 13.1553C171.894 13.2308 172.061 13.319 172.229 13.4169C172.403 13.5121 172.571 13.6224 172.75 13.7411C172.936 13.8564 173.108 13.99 173.295 14.1302C173.674 14.4102 174.033 14.7392 174.388 15.1122C174.741 15.485 175.086 15.9054 175.385 16.3711C176.003 17.3004 176.466 18.421 176.723 19.7006C176.995 20.976 177.082 22.4072 176.929 23.9568C176.772 25.5075 176.395 27.1687 176.057 28.8481C175.969 29.2694 175.905 29.6876 175.838 30.1078C175.765 30.5294 175.707 30.9496 175.665 31.3693C175.587 32.2065 175.27 33.0788 175.297 33.911Z" fill="#7D04AA"/>
<path d="M15.9759 18.9179C15.2209 19.7946 14.2711 20.5008 13.1509 20.9879C12.0306 21.4993 10.7399 21.7672 9.27866 21.7672C7.93922 21.7672 6.72155 21.548 5.60129 21.1097C4.45668 20.6713 3.48254 20.0381 2.65453 19.2344C1.82651 18.4308 1.16897 17.481 0.70625 16.3608C0.243534 15.2405 0 13.9985 0 12.659C0 11.2709 0.243535 10.0289 0.730603 8.90864C1.19332 7.78838 1.85086 6.8386 2.70323 6.03494C3.5556 5.25564 4.52974 4.6468 5.67435 4.2328C6.81897 3.81879 8.03664 3.59961 9.35172 3.59961C10.5694 3.59961 11.7627 3.81879 12.956 4.2328C14.125 4.67116 15.0748 5.30434 15.8054 6.13236L12.9804 8.95734C12.5907 8.42157 12.0793 8.03192 11.4461 7.76403C10.8129 7.49614 10.1554 7.37438 9.49785 7.37438C8.76724 7.37438 8.1097 7.49614 7.50086 7.76403C6.89203 8.03192 6.35625 8.42157 5.91789 8.88428C5.47953 9.347 5.13858 9.90712 4.89504 10.5403C4.65151 11.1978 4.52974 11.9041 4.52974 12.659C4.52974 13.4384 4.65151 14.1446 4.89504 14.8021C5.13858 15.4597 5.47953 15.9955 5.91789 16.4582C6.3319 16.9209 6.84332 17.2862 7.45216 17.5541C8.06099 17.822 8.71853 17.9437 9.42478 17.9437C10.2528 17.9437 10.9834 17.7732 11.5922 17.4567C12.2011 17.1401 12.7125 16.7017 13.0778 16.1903L15.9759 18.9179Z" fill="#191917"/>
<path d="M26.9839 21.3047L23.2578 14.4614H21.8453V21.3047H17.7539V4.0625H24.3293C25.1574 4.0625 25.961 4.13556 26.7647 4.30603C27.544 4.47651 28.2502 4.76875 28.8834 5.18275C29.4923 5.59676 30.0037 6.13253 30.369 6.79007C30.7343 7.44761 30.9291 8.27563 30.9291 9.27411C30.9291 10.4431 30.6125 11.4172 29.9793 12.2209C29.3461 13.0245 28.4694 13.5847 27.3492 13.9256L31.8546 21.3047H26.9839ZM26.8134 9.34717C26.8134 8.93317 26.7403 8.61657 26.5699 8.34869C26.3994 8.10515 26.1802 7.91033 25.9123 7.76421C25.6444 7.64244 25.3278 7.54503 25.0112 7.49632C24.6703 7.44761 24.3537 7.42326 24.0371 7.42326H21.8209V11.4416H23.7936C24.1345 11.4416 24.4755 11.4172 24.8408 11.3441C25.2061 11.2954 25.5227 11.198 25.8149 11.0519C26.1071 10.9058 26.3507 10.6866 26.5455 10.4187C26.716 10.1508 26.8134 9.78553 26.8134 9.34717Z" fill="#191917"/>
<path d="M51.8761 12.6113C51.8761 13.9751 51.6326 15.2171 51.1699 16.3374C50.7072 17.482 50.0496 18.4318 49.2216 19.2354C48.3692 20.0391 47.3707 20.6723 46.2261 21.1106C45.0815 21.549 43.8151 21.7682 42.4757 21.7682C41.1362 21.7682 39.8942 21.549 38.7496 21.1106C37.605 20.6723 36.6065 20.0391 35.7785 19.2354C34.9261 18.4318 34.2686 17.482 33.8059 16.3374C33.3431 15.2171 33.0996 13.9751 33.0996 12.6113C33.0996 11.2232 33.3431 9.98116 33.8059 8.86091C34.2686 7.76501 34.9261 6.81523 35.7785 6.03592C36.6065 5.25661 37.605 4.64778 38.7496 4.23377C39.8942 3.81977 41.1362 3.60059 42.4757 3.60059C43.8151 3.60059 45.0815 3.81977 46.2261 4.23377C47.3707 4.64778 48.3692 5.25661 49.2216 6.03592C50.0496 6.81523 50.7072 7.76501 51.1699 8.86091C51.6326 9.98116 51.8761 11.2232 51.8761 12.6113ZM47.4194 12.6113C47.4194 11.8564 47.2977 11.1745 47.0541 10.5169C46.8106 9.85939 46.4697 9.29927 46.0556 8.83655C45.6173 8.37384 45.1059 8.00854 44.497 7.74065C43.8882 7.47277 43.2063 7.351 42.4757 7.351C41.7451 7.351 41.0875 7.47277 40.4787 7.74065C39.8699 8.00854 39.3584 8.37384 38.9201 8.83655C38.4817 9.29927 38.1408 9.85939 37.9216 10.5169C37.6781 11.1745 37.5563 11.8564 37.5563 12.6113C37.5563 13.3906 37.6781 14.0969 37.9216 14.7544C38.1651 15.412 38.5061 15.9964 38.9444 16.4591C39.3584 16.9219 39.8699 17.2872 40.4787 17.555C41.0875 17.8473 41.7451 17.9691 42.4757 17.9691C43.2063 17.9691 43.8638 17.8473 44.4727 17.555C45.0815 17.2872 45.5929 16.9219 46.0313 16.4591C46.4697 15.9964 46.8106 15.412 47.0541 14.7544C47.2977 14.0969 47.4194 13.3906 47.4194 12.6113Z" fill="#191917"/>
<path d="M70.258 21.3056L70.3554 9.10462H70.2823L65.8013 21.3056H62.8789L58.5196 9.10462H58.4465L58.544 21.3056H54.623V4.06348H60.5409L64.4618 15.1199H64.5593L68.3097 4.06348H74.325V21.3056H70.258Z" fill="#191917"/>
<path d="M96.1493 21.3056H92.0336L88.6241 9.64039H88.5511L85.1416 21.3056H81.0015L76.1064 4.06348H80.5875L83.3151 15.5339H83.3881L86.4567 4.06348H90.7916L93.8845 15.5339H93.9575L96.7338 4.06348H101.069L96.1493 21.3056Z" fill="#191917"/>
<path d="M120.818 12.6113C120.818 13.9751 120.574 15.2171 120.111 16.3374C119.649 17.482 118.991 18.4318 118.163 19.2354C117.311 20.0391 116.312 20.6723 115.168 21.1106C114.023 21.549 112.757 21.7682 111.417 21.7682C110.078 21.7682 108.836 21.549 107.691 21.1106C106.546 20.6723 105.548 20.0391 104.72 19.2354C103.868 18.4318 103.21 17.482 102.747 16.3374C102.285 15.2171 102.041 13.9751 102.041 12.6113C102.041 11.2232 102.285 9.98116 102.747 8.86091C103.21 7.76501 103.868 6.81523 104.72 6.03592C105.548 5.25661 106.546 4.64778 107.691 4.23377C108.836 3.81977 110.078 3.60059 111.417 3.60059C112.757 3.60059 114.023 3.81977 115.168 4.23377C116.312 4.64778 117.311 5.25661 118.163 6.03592C118.991 6.81523 119.649 7.76501 120.111 8.86091C120.574 9.98116 120.818 11.2232 120.818 12.6113ZM116.361 12.6113C116.361 11.8564 116.239 11.1745 115.996 10.5169C115.752 9.85939 115.411 9.29927 114.997 8.83655C114.559 8.37384 114.047 8.00854 113.438 7.74065C112.83 7.47277 112.148 7.351 111.417 7.351C110.686 7.351 110.029 7.47277 109.42 7.74065C108.811 8.00854 108.3 8.37384 107.861 8.83655C107.423 9.29927 107.082 9.85939 106.863 10.5169C106.619 11.1745 106.498 11.8564 106.498 12.6113C106.498 13.3906 106.619 14.0969 106.863 14.7544C107.107 15.412 107.447 15.9964 107.886 16.4591C108.3 16.9219 108.811 17.2872 109.42 17.555C110.029 17.8473 110.686 17.9691 111.417 17.9691C112.148 17.9691 112.805 17.8473 113.414 17.555C114.023 17.2872 114.534 16.9219 114.973 16.4591C115.411 15.9964 115.752 15.412 115.996 14.7544C116.239 14.0969 116.361 13.3906 116.361 12.6113Z" fill="#191917"/>
<path d="M141.541 12.6108C141.541 13.9746 141.298 15.2166 140.835 16.3369C140.372 17.4815 139.715 18.4313 138.887 19.2349C138.034 20.0386 137.036 20.6718 135.891 21.1101C134.747 21.5485 133.48 21.7677 132.141 21.7677C130.801 21.7677 129.559 21.5485 128.415 21.1101C127.27 20.6718 126.272 20.0386 125.444 19.2349C124.591 18.4313 123.934 17.4815 123.471 16.3369C123.008 15.2166 122.765 13.9746 122.765 12.6108C122.765 11.2227 123.008 9.98067 123.471 8.86042C123.934 7.76452 124.591 6.81474 125.444 6.03543C126.272 5.25612 127.27 4.64729 128.415 4.23328C129.559 3.81928 130.801 3.6001 132.141 3.6001C133.48 3.6001 134.747 3.81928 135.891 4.23328C137.036 4.64729 138.034 5.25612 138.887 6.03543C139.715 6.81474 140.372 7.76452 140.835 8.86042C141.298 9.98067 141.541 11.2227 141.541 12.6108ZM137.084 12.6108C137.084 11.8559 136.963 11.174 136.719 10.5164C136.476 9.8589 136.135 9.29878 135.721 8.83606C135.282 8.37335 134.771 8.00805 134.162 7.74016C133.553 7.47228 132.871 7.35051 132.141 7.35051C131.41 7.35051 130.753 7.47228 130.144 7.74016C129.535 8.00805 129.023 8.37335 128.585 8.83606C128.147 9.29878 127.806 9.8589 127.587 10.5164C127.343 11.174 127.221 11.8559 127.221 12.6108C127.221 13.3901 127.343 14.0964 127.587 14.7539C127.83 15.4115 128.171 15.9959 128.609 16.4587C129.023 16.9214 129.535 17.2867 130.144 17.5546C130.753 17.8468 131.41 17.9686 132.141 17.9686C132.871 17.9686 133.529 17.8468 134.138 17.5546C134.747 17.2867 135.258 16.9214 135.696 16.4587C136.135 15.9959 136.476 15.4115 136.719 14.7539C136.963 14.0964 137.084 13.3901 137.084 12.6108Z" fill="#191917"/>
<path d="M160.392 12.6349C160.392 14.1448 160.124 15.4355 159.564 16.5314C159.003 17.6273 158.248 18.5284 157.347 19.2346C156.422 19.9409 155.375 20.4766 154.23 20.7932C153.086 21.1342 151.917 21.3047 150.723 21.3047H144.294V4.0625H150.528C151.746 4.0625 152.939 4.20862 154.133 4.47651C155.326 4.76875 156.373 5.23146 157.299 5.889C158.224 6.54654 158.979 7.44761 159.539 8.54351C160.099 9.63941 160.392 11.0032 160.392 12.6349ZM156.057 12.6349C156.057 11.6607 155.911 10.8571 155.594 10.1995C155.277 9.56635 154.839 9.05493 154.328 8.66528C153.792 8.29998 153.183 8.03209 152.525 7.86162C151.844 7.69115 151.137 7.61809 150.431 7.61809H148.361V17.7004H150.334C151.089 17.7004 151.795 17.603 152.501 17.4325C153.183 17.262 153.792 16.9941 154.328 16.6045C154.839 16.2148 155.277 15.7034 155.594 15.0459C155.911 14.3883 156.057 13.5847 156.057 12.6349Z" fill="#191917"/>
<path d="M43.54 31.3203H44.925V35.4613H49.9334V31.3203H51.3324V41.2251H49.9334V36.6924H44.925V41.2251H43.54V31.3203Z" fill="#8AAA04"/>
<path d="M63.7268 36.2591C63.7268 37.0285 63.6009 37.728 63.3351 38.3575C63.0553 39.0011 62.6915 39.5467 62.2299 40.0083C61.7682 40.47 61.2086 40.8337 60.5651 41.0855C59.9215 41.3514 59.222 41.4773 58.4666 41.4773C57.7111 41.4773 57.0116 41.3514 56.3821 41.0855C55.7386 40.8337 55.179 40.47 54.7173 40.0083C54.2556 39.5467 53.8919 39.0011 53.6261 38.3575C53.3603 37.728 53.2344 37.0285 53.2344 36.2591C53.2344 35.4896 53.3603 34.7761 53.6261 34.1326C53.8919 33.5031 54.2556 32.9575 54.7173 32.4958C55.179 32.0481 55.7386 31.6984 56.3821 31.4466C57.0116 31.1948 57.7111 31.0688 58.4666 31.0688C59.222 31.0688 59.9215 31.1948 60.5651 31.4466C61.2086 31.6984 61.7682 32.0481 62.2299 32.4958C62.6915 32.9575 63.0553 33.5031 63.3351 34.1326C63.6009 34.7761 63.7268 35.4896 63.7268 36.2591ZM62.2299 36.2591C62.2299 35.7135 62.1459 35.2098 61.964 34.7202C61.7822 34.2445 61.5304 33.8248 61.2086 33.4611C60.8868 33.0974 60.4811 32.8036 60.0334 32.5937C59.5578 32.3839 59.0402 32.286 58.4666 32.286C57.893 32.286 57.3754 32.3839 56.9277 32.5937C56.466 32.8036 56.0743 33.0974 55.7525 33.4611C55.4308 33.8248 55.179 34.2445 54.9971 34.7202C54.8152 35.2098 54.7313 35.7135 54.7313 36.2591C54.7313 36.8047 54.8152 37.3223 54.9971 37.8119C55.179 38.3016 55.4308 38.7213 55.7525 39.071C56.0743 39.4347 56.466 39.7145 56.9277 39.9244C57.3894 40.1342 57.893 40.2322 58.4666 40.2322C59.0402 40.2322 59.5578 40.1342 60.0195 39.9244C60.4811 39.7145 60.8868 39.4347 61.2086 39.071C61.5304 38.7213 61.7822 38.3016 61.964 37.8119C62.1459 37.3223 62.2299 36.8047 62.2299 36.2591Z" fill="#8AAA04"/>
<path d="M69.3941 41.4779C68.7366 41.4779 68.177 41.366 67.6873 41.1421C67.1977 40.9323 66.806 40.6385 66.4842 40.2748C66.1624 39.911 65.9386 39.4913 65.7847 39.0157C65.6308 38.554 65.5469 38.0644 65.5469 37.5607V31.3213H66.9319V37.4768C66.9319 37.8126 66.9738 38.1483 67.0578 38.4701C67.1417 38.8058 67.2816 39.0996 67.4775 39.3654C67.6593 39.6312 67.9112 39.8411 68.2329 39.995C68.5407 40.1489 68.9324 40.2328 69.3941 40.2328C69.8558 40.2328 70.2335 40.1489 70.5552 39.995C70.877 39.8411 71.1288 39.6312 71.3247 39.3654C71.5066 39.0996 71.6465 38.8058 71.7304 38.4701C71.8143 38.1483 71.8563 37.8126 71.8563 37.4768V31.3213H73.2413V37.5607C73.2413 38.0644 73.1713 38.554 73.0175 39.0157C72.8636 39.4913 72.6257 39.911 72.304 40.2748C71.9822 40.6385 71.5905 40.9323 71.1008 41.1421C70.6112 41.366 70.0516 41.4779 69.3941 41.4779Z" fill="#8AAA04"/>
<path d="M80.5006 33.1533C80.3047 32.8875 80.0389 32.6637 79.7031 32.4818C79.3674 32.3139 78.9897 32.23 78.57 32.23C78.3461 32.23 78.1223 32.258 77.8984 32.3139C77.6606 32.3839 77.4508 32.4818 77.2689 32.6077C77.087 32.7476 76.9331 32.9155 76.8212 33.1114C76.6953 33.3212 76.6394 33.559 76.6394 33.8388C76.6394 34.1046 76.6953 34.3285 76.8072 34.5103C76.9052 34.6922 77.0591 34.8461 77.2409 34.972C77.4228 35.0979 77.6326 35.2098 77.8845 35.2938C78.1223 35.3917 78.3881 35.4756 78.6679 35.5736C79.0036 35.6715 79.3394 35.7974 79.6891 35.9233C80.0389 36.0492 80.3467 36.2311 80.6265 36.4409C80.9063 36.6508 81.1301 36.9166 81.312 37.2383C81.4938 37.5601 81.5778 37.9798 81.5778 38.4695C81.5778 38.9871 81.4798 39.4208 81.298 39.7985C81.1021 40.1762 80.8503 40.498 80.5285 40.7358C80.2068 40.9876 79.843 41.1695 79.4373 41.2954C79.0176 41.4213 78.5839 41.4773 78.1503 41.4773C77.5207 41.4773 76.9192 41.3514 76.3456 41.1135C75.758 40.8757 75.2684 40.512 74.8906 40.0363L75.9678 39.127C76.2057 39.4767 76.5134 39.7565 76.9052 39.9664C77.2969 40.1762 77.7166 40.2881 78.1782 40.2881C78.4161 40.2881 78.6399 40.2601 78.8777 40.1902C79.1156 40.1202 79.3254 40.0223 79.5213 39.8824C79.7031 39.7425 79.857 39.5607 79.9829 39.3508C80.1088 39.141 80.1648 38.8891 80.1648 38.5954C80.1648 38.3016 80.1088 38.0498 79.9829 37.8399C79.857 37.6441 79.6752 37.4762 79.4653 37.3363C79.2555 37.1964 79.0036 37.0705 78.7238 36.9725C78.4301 36.8746 78.1363 36.7767 77.8145 36.6788C77.4927 36.5808 77.185 36.4689 76.8772 36.329C76.5694 36.2031 76.2896 36.0212 76.0518 35.8114C75.814 35.6015 75.6181 35.3497 75.4642 35.042C75.3103 34.7342 75.2404 34.3565 75.2404 33.8948C75.2404 33.4051 75.3383 32.9715 75.5481 32.6217C75.744 32.272 76.0098 31.9782 76.3316 31.7404C76.6533 31.5025 77.0171 31.3347 77.4228 31.2227C77.8285 31.1248 78.2342 31.0688 78.6399 31.0688C79.2135 31.0688 79.7591 31.1668 80.2627 31.3766C80.7664 31.5865 81.1721 31.8523 81.4798 32.202L80.5006 33.1533Z" fill="#8AAA04"/>
<path d="M84.9221 31.3213H83.5371V41.2261H84.9221V31.3213Z" fill="#8AAA04"/>
<path d="M94.3081 39.2395H94.3361V31.3213H95.7211V41.2261H93.9723L88.7401 33.14H88.7121V41.2261H87.3271V31.3213H89.1318L94.3081 39.2395Z" fill="#8AAA04"/>
<path d="M105.597 33.3632C105.303 33.0414 104.926 32.7756 104.464 32.5797C103.988 32.3839 103.485 32.286 102.911 32.286C102.338 32.286 101.806 32.3839 101.344 32.5937C100.883 32.8036 100.477 33.0974 100.155 33.4611C99.8334 33.8248 99.5816 34.2445 99.3998 34.7202C99.2179 35.2098 99.134 35.7135 99.134 36.2591C99.134 36.8047 99.2179 37.3223 99.3998 37.8119C99.5816 38.3016 99.8334 38.7213 100.155 39.071C100.477 39.4347 100.883 39.7145 101.358 39.9244C101.834 40.1342 102.366 40.2322 102.953 40.2322C103.415 40.2322 103.849 40.1902 104.24 40.1063C104.632 40.0223 104.968 39.8964 105.262 39.7425V36.9865H103.065V35.8114H106.633V40.6099C106.115 40.8897 105.541 41.0995 104.926 41.2534C104.31 41.4073 103.639 41.4773 102.911 41.4773C102.142 41.4773 101.428 41.3514 100.785 41.0855C100.127 40.8337 99.5676 40.47 99.106 40.0083C98.6443 39.5467 98.2806 39.0011 98.0148 38.3575C97.749 37.728 97.623 37.0285 97.623 36.2591C97.623 35.4896 97.749 34.7761 98.0288 34.1326C98.2806 33.5031 98.6583 32.9575 99.134 32.4958C99.5956 32.0481 100.155 31.6984 100.799 31.4466C101.442 31.1948 102.142 31.0688 102.897 31.0688C103.695 31.0688 104.394 31.1808 105.024 31.4186C105.639 31.6564 106.157 31.9642 106.563 32.3559L105.597 33.3632Z" fill="#8AAA04"/>
<path d="M119.98 33.3632C119.686 33.0414 119.309 32.7756 118.847 32.5797C118.371 32.3839 117.868 32.286 117.294 32.286C116.72 32.286 116.189 32.3839 115.727 32.5937C115.265 32.8036 114.86 33.0974 114.538 33.4611C114.216 33.8248 113.964 34.2445 113.783 34.7202C113.601 35.2098 113.517 35.7135 113.517 36.2591C113.517 36.8047 113.601 37.3223 113.783 37.8119C113.964 38.3016 114.216 38.7213 114.538 39.071C114.86 39.4347 115.265 39.7145 115.741 39.9244C116.217 40.1342 116.748 40.2322 117.336 40.2322C117.798 40.2322 118.231 40.1902 118.623 40.1063C119.015 40.0223 119.351 39.8964 119.644 39.7425V36.9865H117.448V35.8114H121.015V40.6099C120.498 40.8897 119.924 41.0995 119.309 41.2534C118.693 41.4073 118.021 41.4773 117.294 41.4773C116.525 41.4773 115.811 41.3514 115.168 41.0855C114.51 40.8337 113.95 40.47 113.489 40.0083C113.027 39.5467 112.663 39.0011 112.398 38.3575C112.132 37.728 112.006 37.0285 112.006 36.2591C112.006 35.4896 112.132 34.7761 112.412 34.1326C112.663 33.5031 113.041 32.9575 113.517 32.4958C113.978 32.0481 114.538 31.6984 115.182 31.4466C115.825 31.1948 116.525 31.0688 117.28 31.0688C118.077 31.0688 118.777 31.1808 119.406 31.4186C120.022 31.6564 120.54 31.9642 120.945 32.3559L119.98 33.3632Z" fill="#8AAA04"/>
<path d="M124.78 41.2261H123.395V31.3213H126.57C127.046 31.3213 127.494 31.3633 127.927 31.4612C128.361 31.5591 128.739 31.727 129.06 31.9368C129.382 32.1467 129.634 32.4405 129.816 32.7762C129.998 33.126 130.096 33.5597 130.096 34.0633C130.096 34.7908 129.872 35.3783 129.424 35.826C128.976 36.2737 128.403 36.5535 127.689 36.6794L130.459 41.2261H128.781L126.262 36.8193H124.78V41.2261ZM124.78 35.6581H126.374C126.696 35.6581 127.004 35.6301 127.284 35.5742C127.564 35.5182 127.801 35.4203 128.025 35.2944C128.235 35.1825 128.389 35.0146 128.515 34.8047C128.641 34.6089 128.697 34.3571 128.697 34.0633C128.697 33.7695 128.641 33.5177 128.515 33.3078C128.389 33.112 128.235 32.9581 128.039 32.8322C127.829 32.7063 127.591 32.6223 127.326 32.5664C127.06 32.5244 126.766 32.4964 126.472 32.4964H124.78V35.6581Z" fill="#8AAA04"/>
<path d="M141.971 36.2591C141.971 37.0285 141.845 37.728 141.579 38.3575C141.299 39.0011 140.936 39.5467 140.474 40.0083C140.012 40.47 139.453 40.8337 138.809 41.0855C138.166 41.3514 137.466 41.4773 136.711 41.4773C135.955 41.4773 135.256 41.3514 134.626 41.0855C133.983 40.8337 133.423 40.47 132.961 40.0083C132.5 39.5467 132.136 39.0011 131.87 38.3575C131.604 37.728 131.479 37.0285 131.479 36.2591C131.479 35.4896 131.604 34.7761 131.87 34.1326C132.136 33.5031 132.5 32.9575 132.961 32.4958C133.423 32.0481 133.983 31.6984 134.626 31.4466C135.256 31.1948 135.955 31.0688 136.711 31.0688C137.466 31.0688 138.166 31.1948 138.809 31.4466C139.453 31.6984 140.012 32.0481 140.474 32.4958C140.936 32.9575 141.299 33.5031 141.579 34.1326C141.845 34.7761 141.971 35.4896 141.971 36.2591ZM140.474 36.2591C140.474 35.7135 140.39 35.2098 140.208 34.7202C140.026 34.2445 139.775 33.8248 139.453 33.4611C139.131 33.0974 138.725 32.8036 138.278 32.5937C137.802 32.3839 137.284 32.286 136.711 32.286C136.137 32.286 135.62 32.3839 135.172 32.5937C134.71 32.8036 134.318 33.0974 133.997 33.4611C133.675 33.8248 133.423 34.2445 133.241 34.7202C133.059 35.2098 132.975 35.7135 132.975 36.2591C132.975 36.8047 133.059 37.3223 133.241 37.8119C133.423 38.3016 133.675 38.7213 133.997 39.071C134.318 39.4347 134.71 39.7145 135.172 39.9244C135.634 40.1342 136.137 40.2322 136.711 40.2322C137.284 40.2322 137.802 40.1342 138.264 39.9244C138.725 39.7145 139.131 39.4347 139.453 39.071C139.775 38.7213 140.026 38.3016 140.208 37.8119C140.39 37.3223 140.474 36.8047 140.474 36.2591Z" fill="#8AAA04"/>
<path d="M147.638 41.4779C146.981 41.4779 146.421 41.366 145.931 41.1421C145.442 40.9323 145.05 40.6385 144.728 40.2748C144.407 39.911 144.183 39.4913 144.029 39.0157C143.875 38.554 143.791 38.0644 143.791 37.5607V31.3213H145.176V37.4768C145.176 37.8126 145.218 38.1483 145.302 38.4701C145.386 38.8058 145.526 39.0996 145.722 39.3654C145.903 39.6312 146.155 39.8411 146.477 39.995C146.785 40.1489 147.177 40.2328 147.638 40.2328C148.1 40.2328 148.478 40.1489 148.799 39.995C149.121 39.8411 149.373 39.6312 149.569 39.3654C149.751 39.0996 149.891 38.8058 149.975 38.4701C150.058 38.1483 150.1 37.8126 150.1 37.4768V31.3213H151.485V37.5607C151.485 38.0644 151.415 38.554 151.262 39.0157C151.108 39.4913 150.87 39.911 150.548 40.2748C150.226 40.6385 149.835 40.9323 149.345 41.1421C148.855 41.366 148.296 41.4779 147.638 41.4779Z" fill="#8AAA04"/>
<path d="M153.824 31.3213H156.846C157.378 31.3213 157.867 31.3772 158.301 31.4752C158.735 31.5871 159.112 31.755 159.42 31.9788C159.728 32.2026 159.966 32.4824 160.134 32.8322C160.302 33.1819 160.385 33.5876 160.385 34.0773C160.385 34.5669 160.302 35.0006 160.12 35.3504C159.938 35.7001 159.686 35.9939 159.364 36.2177C159.028 36.4416 158.651 36.6094 158.217 36.7074C157.769 36.8193 157.294 36.8752 156.776 36.8752H155.209V41.2261H153.824V31.3213ZM155.209 35.7001H156.678C157.014 35.7001 157.322 35.6721 157.615 35.6022C157.895 35.5462 158.133 35.4483 158.343 35.3224C158.553 35.1965 158.707 35.0426 158.819 34.8327C158.931 34.6229 158.986 34.3711 158.986 34.0773C158.986 33.7835 158.931 33.5317 158.819 33.3218C158.693 33.126 158.539 32.9581 158.343 32.8322C158.133 32.7203 157.895 32.6223 157.615 32.5664C157.336 32.5244 157.028 32.4964 156.706 32.4964H155.209V35.7001Z" fill="#8AAA04"/>
</svg>
