<svg width="202" height="123" viewBox="0 0 202 123" fill="none" xmlns="http://www.w3.org/2000/svg">
<path opacity="0.8" fill-rule="evenodd" clip-rule="evenodd" d="M41.1076 23.0438C43.1745 16.5452 45.098 12.4991 46.875 10.904C51.796 6.4889 58.6 8.89175 60.0465 9.2359C65.1281 10.4482 63.4758 2.47071 67.8356 0.849172C70.7412 -0.231337 73.1307 1.08946 75.0059 4.81155C76.666 1.33904 79.1959 -0.251489 82.5955 0.0322023C87.6958 0.461615 89.4806 17.5932 96.4887 13.8432C103.498 10.0916 112.092 9.23435 115.763 14.809C116.556 16.0151 116.86 14.1439 122.257 7.75544C127.653 1.3654 133.034 -1.44982 144.073 2.27073C149.092 3.96048 153.22 8.5414 156.46 16.012C156.46 26.6744 164.348 32.9869 180.119 34.9449C203.78 37.8826 185.414 63.1807 156.46 70.5893C127.505 77.9994 60.8415 81.999 24.6659 63.2784C0.548757 50.8006 6.02934 37.388 41.1061 23.0438H41.1076Z" fill="url(#paint0_linear_2027_33443)"/>
<path d="M100.434 117.268C124.527 117.268 144.059 112.772 144.059 107.226C144.059 101.68 124.527 97.1836 100.434 97.1836C76.3406 97.1836 56.809 101.68 56.809 107.226C56.809 112.772 76.3406 117.268 100.434 117.268Z" fill="url(#paint1_linear_2027_33443)"/>
<path opacity="0.675" fill-rule="evenodd" clip-rule="evenodd" d="M174.085 119.753C141.284 127.935 29.3234 118.576 17.4067 114.302C11.6066 112.22 6.37852 108.306 1.72407 102.558C1.20314 101.915 0.875694 101.139 0.779586 100.319C0.683477 99.4988 0.822625 98.6685 1.18095 97.9238C1.53927 97.1791 2.10215 96.5505 2.80453 96.1105C3.50691 95.6706 4.32013 95.4372 5.15022 95.4375H200.796C204.857 106.193 195.953 114.298 174.085 119.753Z" fill="url(#paint2_linear_2027_33443)"/>
<path d="M133.91 80.3123L118.991 62.9621C118.638 62.5482 118.2 62.2148 117.706 61.9847C117.211 61.7547 116.673 61.6333 116.128 61.6289H84.0483C82.9478 61.6289 81.9019 62.1312 81.1849 62.9621L66.266 80.3123V89.8369H133.91V80.3123Z" fill="url(#paint3_linear_2027_33443)"/>
<path d="M129.683 90.1888L116.625 75.0772C116.309 74.7204 115.92 74.4353 115.484 74.2414C115.047 74.0474 114.574 73.9492 114.096 73.9532H86.0794C85.1176 73.9532 84.1777 74.3501 83.5511 75.0772L70.4934 90.1888V98.4887H129.683V90.1888Z" fill="url(#paint4_linear_2027_33443)"/>
<path d="M133.91 100.754C133.91 102.076 133.311 103.265 132.367 104.062L132.175 104.217C131.426 104.782 130.512 105.087 129.572 105.085H70.6056C70.0725 105.085 69.5628 104.989 69.092 104.812L68.8582 104.719C68.0868 104.378 67.4315 103.822 66.9714 103.118C66.5113 102.414 66.2663 101.592 66.266 100.752V80.418H82.6782C84.491 80.418 85.9516 81.9015 85.9516 83.7014V83.7246C85.9516 85.526 87.4293 86.9785 89.2421 86.9785H110.934C111.805 86.9777 112.641 86.6335 113.257 86.0213C113.874 85.4091 114.222 84.5788 114.224 83.7122C114.224 81.9046 115.686 80.418 117.498 80.418H133.911L133.91 100.754Z" fill="url(#paint5_linear_2027_33443)"/>
<defs>
<linearGradient id="paint0_linear_2027_33443" x1="104.691" y1="57.281" x2="104.691" y2="-13.5389" gradientUnits="userSpaceOnUse">
<stop stop-color="#DEDEDE" stop-opacity="0"/>
<stop offset="1" stop-color="#A9A9A9" stop-opacity="0.3"/>
</linearGradient>
<linearGradient id="paint1_linear_2027_33443" x1="95.8882" y1="117.268" x2="95.8882" y2="97.1836" gradientUnits="userSpaceOnUse">
<stop stop-color="white" stop-opacity="0"/>
<stop offset="1" stop-color="#96A1C5" stop-opacity="0.373"/>
</linearGradient>
<linearGradient id="paint2_linear_2027_33443" x1="101.25" y1="122.998" x2="101.25" y2="90.015" gradientUnits="userSpaceOnUse">
<stop stop-color="white" stop-opacity="0"/>
<stop offset="1" stop-color="#919191" stop-opacity="0.15"/>
</linearGradient>
<linearGradient id="paint3_linear_2027_33443" x1="100.088" y1="61.6289" x2="100.088" y2="74.3084" gradientUnits="userSpaceOnUse">
<stop stop-color="#B8E70C"/>
<stop offset="1" stop-color="#789609"/>
</linearGradient>
<linearGradient id="paint4_linear_2027_33443" x1="107.987" y1="98.4887" x2="107.987" y2="72.6488" gradientUnits="userSpaceOnUse">
<stop stop-color="#D7FF43"/>
<stop offset="1" stop-color="#EDFFAC"/>
</linearGradient>
<linearGradient id="paint5_linear_2027_33443" x1="100.089" y1="80.418" x2="100.089" y2="105.085" gradientUnits="userSpaceOnUse">
<stop stop-color="#A9D700"/>
<stop offset="1" stop-color="#F6FFD5"/>
</linearGradient>
</defs>
</svg>
