<svg width="32" height="32" viewBox="0 0 32 32" fill="none" xmlns="http://www.w3.org/2000/svg">
<rect width="32" height="32" rx="16" fill="#344900"/>
<g clip-path="url(#clip0_592_18045)">
<mask id="mask0_592_18045" style="mask-type:luminance" maskUnits="userSpaceOnUse" x="6" y="6" width="19" height="19">
<path d="M6 6.00006H24.9999V25H6V6.00006Z" fill="white"/>
</mask>
<g mask="url(#mask0_592_18045)">
<path d="M18.0269 25C16.7751 25 15.5268 24.5933 14.5122 23.8547L14.439 23.7979C13.8204 23.2856 13.0092 23.0514 12.2132 23.1553C12.0295 23.1797 11.8486 23.2216 11.6729 23.2804C11.6082 23.3073 11.5431 23.3331 11.4776 23.3579L11.3908 23.3907C11.0375 23.5513 10.7161 23.7833 10.4559 24.0664L9.82879 24.7487L7.64551 22.7419L8.27262 22.0597C8.90871 21.3677 9.71312 20.8335 10.6007 20.5134C11.834 19.9686 12.6608 18.7032 12.6608 17.3553C12.6608 17.2808 12.6584 17.2063 12.6536 17.1322H8.75919V14.1668H11.3412C11.033 13.4441 10.8722 12.6605 10.8722 11.8646C10.8722 8.63088 13.5031 6.00006 16.7368 6.00006C18.0056 6.00006 19.2134 6.39891 20.2298 7.15345C21.225 7.89222 21.9494 8.90438 22.3247 10.0805L19.4997 10.9819C19.1148 9.77578 18.0045 8.96542 16.7368 8.96542C15.1382 8.96542 13.8376 10.266 13.8376 11.8646C13.8376 12.4989 14.041 13.2006 14.7923 14.1668H19.5095V17.1322H15.6222C15.6248 17.2066 15.6261 17.281 15.6261 17.3553C15.6261 18.4999 15.327 19.6048 14.7568 20.5818C15.31 20.8014 15.8265 21.1041 16.2884 21.4796C16.8992 21.9122 17.6615 22.1061 18.3843 22.0116C19.1928 21.906 19.9238 21.461 20.3898 20.7909L20.9188 20.03L23.3535 21.7229L22.8245 22.4837C21.8824 23.8386 20.404 24.7383 18.7684 24.952C18.5225 24.984 18.2749 25 18.0269 25Z" fill="#F1F7F6"/>
</g>
</g>
<defs>
<clipPath id="clip0_592_18045">
<rect width="19" height="19" fill="white" transform="translate(6 6)"/>
</clipPath>
</defs>
</svg>
