<svg width="20" height="16" viewBox="0 0 20 16" fill="none" xmlns="http://www.w3.org/2000/svg">
<path d="M4.99996 7.16683V10.5002M15 5.50016V8.83349M14.1666 1.3335C16.2072 1.3335 17.3109 1.6458 17.8601 1.88803C17.9332 1.92029 17.9698 1.93642 18.0753 2.03714C18.1386 2.09751 18.254 2.27466 18.2837 2.3569C18.3333 2.49411 18.3333 2.56911 18.3333 2.71911V11.6761C18.3333 12.4334 18.3333 12.8121 18.2197 13.0067C18.1042 13.2047 17.9928 13.2967 17.7766 13.3728C17.564 13.4476 17.1349 13.3652 16.2768 13.2003C15.6761 13.0849 14.9637 13.0002 14.1666 13.0002C11.6666 13.0002 9.16663 14.6668 5.83329 14.6668C3.7927 14.6668 2.68901 14.3545 2.13986 14.1123C2.06673 14.08 2.03016 14.0639 1.92463 13.9632C1.86136 13.9028 1.74589 13.7257 1.71618 13.6434C1.66663 13.5062 1.66663 13.4312 1.66663 13.2812L1.66663 4.32421C1.66663 3.5669 1.66663 3.18825 1.78019 2.99362C1.89571 2.79563 2.00712 2.70359 2.22334 2.62751C2.43591 2.55271 2.86499 2.63515 3.72315 2.80004C4.32381 2.91545 5.03619 3.00016 5.83329 3.00016C8.33329 3.00016 10.8333 1.3335 14.1666 1.3335ZM12.0833 8.00016C12.0833 9.15076 11.1506 10.0835 9.99996 10.0835C8.84937 10.0835 7.91663 9.15076 7.91663 8.00016C7.91663 6.84957 8.84937 5.91683 9.99996 5.91683C11.1506 5.91683 12.0833 6.84957 12.0833 8.00016Z" stroke="#2F2E35" stroke-width="1.5" stroke-linecap="round" stroke-linejoin="round"/>
</svg>
