<svg width="18" height="17" viewBox="0 0 18 17" fill="none" xmlns="http://www.w3.org/2000/svg">
<path d="M9.34442 0.38359C9.24457 0.297019 9.12156 0.25 8.99491 0.25C8.86826 0.25 8.74525 0.297019 8.6454 0.38359L0.5625 7.38709L1.26152 8.3694L2.25 7.51303V15.25C2.25061 15.5813 2.36933 15.8988 2.58018 16.1331C2.79102 16.3674 3.07682 16.4993 3.375 16.5H14.625C14.9232 16.4993 15.209 16.3675 15.4199 16.1332C15.6307 15.8989 15.7494 15.5813 15.75 15.25V7.51871L16.7385 8.37496L17.4375 7.39259L9.34442 0.38359ZM10.125 15.25H7.875V10.25H10.125V15.25ZM11.25 15.25V10.25C11.2497 9.91856 11.131 9.60084 10.9201 9.3665C10.7092 9.13216 10.4233 9.00034 10.125 8.99996H7.875C7.57672 9.00029 7.29075 9.1321 7.07983 9.36644C6.86892 9.60079 6.7503 9.91854 6.75 10.25V15.25H3.375V6.5384L9 1.66965L14.625 6.54496V15.25H11.25Z" fill="#4D6D00"/>
</svg>
