<svg width="32" height="32" viewBox="0 0 32 32" fill="none" xmlns="http://www.w3.org/2000/svg">
<path d="M26.4237 22.4058C26.365 22.4644 26.2855 22.4974 26.2027 22.4974H23.551C23.4681 22.4974 23.3886 22.4644 23.33 22.4058L21.9158 20.9916C21.8858 20.9615 21.8621 20.9256 21.8464 20.8861C21.8307 20.8466 21.8232 20.8043 21.8244 20.7618L21.8891 18.5018L19.5258 18.4757C19.4441 18.4748 19.3659 18.4419 19.3082 18.384C19.2504 18.3262 19.2176 18.248 19.2168 18.1663L19.1938 15.8026L16.8947 15.8364C16.8528 15.837 16.8113 15.8292 16.7726 15.8135C16.7338 15.7978 16.6986 15.7745 16.6691 15.7449L15.0306 14.1064C12.9823 14.7482 10.6661 14.2497 9.05534 12.6389C6.74034 10.3239 6.74034 6.55713 9.05534 4.24213C9.07515 4.22231 9.09528 4.20244 9.11547 4.18281C11.4598 1.90294 15.2423 1.95919 17.5198 4.3105C19.0042 5.84325 19.5478 8.0385 18.9611 10.0818L28.6334 19.7541C28.692 19.8127 28.7249 19.8922 28.7249 19.9751C28.7249 20.058 28.692 20.1375 28.6334 20.1961L26.4237 22.4058Z" fill="#FFCA6D"/>
<path d="M28.6333 20.1963L26.4239 22.4056C26.3651 22.4644 26.2858 22.4975 26.2026 22.4975H23.5514C23.4683 22.4975 23.3889 22.4644 23.3301 22.4056L21.9158 20.9919C21.8551 20.9306 21.822 20.8475 21.8245 20.7619L21.8895 18.5019L19.5258 18.4756C19.4441 18.4747 19.366 18.4418 19.3083 18.3839C19.2506 18.3261 19.2178 18.248 19.217 18.1663L19.1939 15.8025L16.8945 15.8363C16.8101 15.8375 16.7289 15.8044 16.6695 15.745L15.0308 14.1063C13.0483 14.7275 10.8151 14.28 9.21265 12.79V4.09126C11.5633 1.90501 15.2739 1.99126 17.5201 4.31064C19.0045 5.84314 19.5476 8.03876 18.9614 10.0819L28.6333 19.7544C28.6624 19.7833 28.6855 19.8178 28.7013 19.8557C28.717 19.8936 28.7252 19.9343 28.7252 19.9753C28.7252 20.0164 28.717 20.0571 28.7013 20.095C28.6855 20.1329 28.6624 20.1673 28.6333 20.1963Z" fill="#FFA557"/>
<path d="M8.64997 32C8.56708 32 8.4876 31.9671 8.42897 31.9085L6.55396 30.0335C6.52494 30.0045 6.50192 29.97 6.48622 29.9321C6.47052 29.8942 6.46245 29.8535 6.46247 29.8125V27.8125C6.46247 27.77 6.47115 27.7279 6.48799 27.6888C6.50483 27.6497 6.52947 27.6145 6.5604 27.5853L8.20415 26.0331L6.55159 24.3436C6.49442 24.2851 6.46243 24.2066 6.46248 24.1249C6.46252 24.0431 6.4946 23.9646 6.55184 23.9062L8.2069 22.2186L6.55721 20.6168C6.52722 20.5877 6.50337 20.5528 6.48708 20.5143C6.4708 20.4758 6.4624 20.4344 6.4624 20.3926V18.0754C4.56022 17.0809 3.2749 15.0906 3.2749 12.8126C3.2749 9.53868 5.9384 6.87518 9.21234 6.87518C9.24034 6.87518 9.26865 6.87537 9.29678 6.87575C12.5666 6.92137 15.2014 9.63575 15.1493 12.9088C15.1151 15.0422 13.9472 16.9789 12.0875 18.0089V31.6875C12.0875 31.7285 12.0794 31.7692 12.0637 31.8071C12.048 31.845 12.025 31.8794 11.9959 31.9085C11.9669 31.9375 11.9325 31.9605 11.8946 31.9762C11.8566 31.9919 11.816 32 11.775 32H8.64997Z" fill="#FFE887"/>
<path d="M15.1495 12.9087C15.1151 15.0419 13.947 16.9788 12.0876 18.0088V31.6875C12.0876 31.86 11.9476 32 11.7751 32H9.21265V6.875C9.24015 6.875 9.2689 6.875 9.29702 6.87563C12.5664 6.92125 15.2014 9.63562 15.1495 12.9087Z" fill="#FFCA6D"/>
<path d="M13.6539 2.52375C13.5498 2.51674 13.4456 2.51257 13.3414 2.51125C12.6776 2.50125 12.0295 2.59875 11.417 2.79562C10.7432 2.21062 9.88387 1.88188 8.97325 1.875H8.94387C6.90387 1.875 5.21075 3.52375 5.16325 5.56437C5.13887 6.59312 5.52075 7.56375 6.23762 8.29813C6.56512 8.63313 6.94325 8.9 7.3545 9.09C7.84575 9.31812 8.3845 9.4375 8.94325 9.4375C9.46075 9.4375 9.88075 9.8575 9.88075 10.375C9.88075 10.8925 9.46075 11.3125 8.94325 11.3125C8.62887 11.3125 8.3195 11.2875 8.01575 11.2369C6.8345 11.0444 5.75075 10.4825 4.89637 9.60812C3.82325 8.50937 3.252 7.0575 3.28825 5.52063C3.36012 2.4675 5.89325 0 8.94387 0H8.98762C10.7145 0.01375 12.3189 0.8 13.3889 2.15875C13.4826 2.27813 13.5714 2.39937 13.6539 2.52375Z" fill="#FF6C72"/>
<path d="M9.88077 10.375C9.88077 10.7987 9.5989 11.1575 9.21265 11.2725V9.47749C9.5989 9.59249 9.88077 9.95124 9.88077 10.375ZM13.6539 2.52374C13.5499 2.51673 13.4457 2.51256 13.3414 2.51124C12.6776 2.50124 12.0295 2.59874 11.417 2.79562C10.8026 2.26249 10.0339 1.94187 9.21265 1.88437V0.00686646C10.8533 0.0831165 12.3658 0.859366 13.3889 2.15874C13.4826 2.27812 13.5714 2.39937 13.6539 2.52374Z" fill="#F13C5B"/>
</svg>
