<svg width="20" height="20" viewBox="0 0 20 20" fill="none" xmlns="http://www.w3.org/2000/svg">
<g clip-path="url(#clip0_915_9388)">
<path d="M19.375 16.25C19.375 17.9688 17.9688 19.375 16.25 19.375H3.75C2.03125 19.375 0.625 17.9688 0.625 16.25V3.75C0.625 2.03125 2.03125 0.625 3.75 0.625H16.25C17.9688 0.625 19.375 2.03125 19.375 3.75V16.25Z" fill="#D0D0D0"/>
<path d="M17.7812 14.2812C17.7812 15.7188 16.6562 16.875 15.2188 16.875H4.78125C3.34375 16.875 2.1875 15.7188 2.1875 14.2812V3.84375C2.1875 2.40625 3.34375 1.25 4.78125 1.25H15.1875C16.625 1.25 17.7812 2.40625 17.7812 3.84375V14.2812Z" fill="white"/>
<path d="M8.75 12.1875L10.3192 5.3125H11.5625L9.99326 12.1875H8.75Z" fill="#9AA0A5"/>
</g>
<defs>
<clipPath id="clip0_915_9388">
<rect width="20" height="20" fill="white"/>
</clipPath>
</defs>
</svg>
