<svg width="32" height="32" viewBox="0 0 32 32" fill="none" xmlns="http://www.w3.org/2000/svg">
<g clip-path="url(#clip0_452_42618)">
<path d="M15.5347 15.0622H0.468874C0.344521 15.0622 0.225261 15.1116 0.13733 15.1996C0.0493991 15.2875 0 15.4068 0 15.5311L0 26.7838C0 26.9081 0.0493991 27.0274 0.13733 27.1153C0.225261 27.2033 0.344521 27.2527 0.468874 27.2527H15.5347C15.659 27.2527 15.7783 27.2033 15.8662 27.1153C15.9541 27.0274 16.0035 26.9081 16.0035 26.7838V15.0622L15.5347 15.0622ZM31.5311 2.87189H16.4726C16.3482 2.87189 16.229 2.92129 16.141 3.00922C16.0531 3.09715 16.0037 3.21641 16.0037 3.34076V12.5774H16.0035L16.0037 15.0623H31.5311C31.6554 15.0623 31.7747 15.0129 31.8626 14.925C31.9505 14.837 31.9999 14.7178 31.9999 14.5934V3.34076C31.9999 3.21641 31.9505 3.09715 31.8626 3.00922C31.7747 2.92129 31.6554 2.87189 31.5311 2.87189Z" fill="#CCD1D9"/>
<path d="M31.531 2.8718H29.6554C29.7797 2.8718 29.899 2.92119 29.9869 3.00913C30.0749 3.09706 30.1243 3.21632 30.1243 3.34067V14.5934C30.1243 14.7177 30.0749 14.837 29.9869 14.9249C29.899 15.0128 29.7797 15.0622 29.6554 15.0622H31.531C31.6554 15.0622 31.7746 15.0128 31.8626 14.9249C31.9505 14.837 31.9999 14.7177 31.9999 14.5934V3.34067C31.9999 3.21632 31.9505 3.09706 31.8626 3.00913C31.7746 2.92119 31.6554 2.8718 31.531 2.8718Z" fill="#AAB2BC"/>
<path d="M31.531 15.0621H16.0037V26.7838C16.0037 26.9081 16.0531 27.0274 16.141 27.1153C16.2289 27.2032 16.3482 27.2526 16.4725 27.2526H31.531C31.6554 27.2526 31.7747 27.2032 31.8626 27.1153C31.9505 27.0274 31.9999 26.9081 31.9999 26.7838V15.5309C31.9999 15.4694 31.9878 15.4084 31.9642 15.3515C31.9407 15.2946 31.9061 15.243 31.8626 15.1994C31.819 15.1559 31.7673 15.1214 31.7105 15.0978C31.6536 15.0742 31.5926 15.0621 31.531 15.0621Z" fill="#656D78"/>
<path d="M15.5347 2.87189H0.468875C0.344522 2.87189 0.225261 2.92129 0.13733 3.00922C0.0493992 3.09715 0 3.21641 0 3.34076L0 14.5934C0 14.7178 0.0493992 14.8371 0.13733 14.925C0.225261 15.0129 0.344522 15.0623 0.468875 15.0623H15.5347L15.5353 15.0623H16.0036V3.34076C16.0036 3.21641 15.9542 3.09715 15.8662 3.00922C15.7783 2.92129 15.659 2.87189 15.5347 2.87189Z" fill="#AAB2BC"/>
<path d="M4.84499 9.27921C4.84499 8.50359 4.21399 7.87265 3.43842 7.87265C2.66286 7.87265 2.03186 8.50359 2.03186 9.27921C2.03186 9.8904 2.42386 10.4116 2.96955 10.6052V11.4672C2.96955 11.7262 3.17942 11.9361 3.43842 11.9361C3.69742 11.9361 3.9073 11.7262 3.9073 11.4672V10.6052C4.45292 10.4117 4.84499 9.89046 4.84499 9.27921Z" fill="#656D78"/>
<path d="M13.6591 6.83109C13.5347 6.83109 13.4154 6.7817 13.3275 6.69376C13.2396 6.60583 13.1902 6.48657 13.1902 6.36222V5.21622C13.1902 4.95728 13.4001 4.74734 13.6591 4.74734C13.9181 4.74734 14.1279 4.95728 14.1279 5.21622V6.36228C14.1279 6.42386 14.1158 6.48483 14.0923 6.54171C14.0687 6.5986 14.0342 6.65029 13.9906 6.69382C13.9471 6.73736 13.8954 6.77189 13.8385 6.79544C13.7816 6.819 13.7206 6.83111 13.6591 6.83109Z" fill="#838A93"/>
<path d="M28.4055 29.1282C28.3439 29.1283 28.283 29.1162 28.2261 29.0926C28.1692 29.0691 28.1175 29.0345 28.0739 28.991C28.0304 28.9475 27.9958 28.8958 27.9723 28.8389C27.9487 28.782 27.9366 28.721 27.9366 28.6594V13.6554C27.9367 13.5725 27.9587 13.491 28.0005 13.4193C28.0423 13.3477 28.1024 13.2884 28.1746 13.2475C28.2468 13.2066 28.3286 13.1856 28.4115 13.1867C28.4945 13.1877 28.5757 13.2107 28.6468 13.2534L31.7724 15.129C31.8418 15.1707 31.8993 15.2296 31.9392 15.3001C31.9791 15.3705 32 15.4501 32 15.531V26.7838C32 26.8647 31.9791 26.9443 31.9392 27.0148C31.8993 27.0852 31.8418 27.1441 31.7724 27.1858L28.6468 29.0614C28.5739 29.1051 28.4905 29.1282 28.4055 29.1282Z" fill="#E6E9ED"/>
<path d="M4.68874 21.4697C4.68874 20.6941 4.05774 20.0631 3.28217 20.0631C2.50661 20.0631 1.87561 20.6941 1.87561 21.4697C1.87561 22.0809 2.26761 22.6021 2.8133 22.7956V23.6577C2.8133 23.7821 2.8627 23.9013 2.95063 23.9892C3.03856 24.0772 3.15782 24.1266 3.28217 24.1266C3.40653 24.1266 3.52579 24.0772 3.61372 23.9892C3.70165 23.9013 3.75105 23.7821 3.75105 23.6577V22.7956C4.29674 22.6021 4.68874 22.0809 4.68874 21.4697Z" fill="#656D78"/>
<path d="M13.6591 19.0215C13.5347 19.0215 13.4155 18.9721 13.3275 18.8842C13.2396 18.7963 13.1902 18.677 13.1902 18.5527V17.4066C13.1902 17.1477 13.4001 16.9377 13.6591 16.9377C13.9181 16.9377 14.128 17.1477 14.128 17.4066V18.5527C14.128 18.6142 14.1158 18.6752 14.0923 18.7321C14.0687 18.789 14.0342 18.8407 13.9906 18.8842C13.9471 18.9278 13.8954 18.9623 13.8385 18.9859C13.7816 19.0094 13.7207 19.0215 13.6591 19.0215ZM11.7836 19.0215C11.6592 19.0215 11.54 18.9721 11.452 18.8842C11.3641 18.7963 11.3147 18.677 11.3147 18.5527V17.4066C11.3147 17.1477 11.5246 16.9377 11.7836 16.9377C12.0426 16.9377 12.2525 17.1477 12.2525 17.4066V18.5527C12.2525 18.6142 12.2403 18.6752 12.2168 18.7321C12.1932 18.789 12.1587 18.8407 12.1151 18.8842C12.0716 18.9278 12.0199 18.9623 11.963 18.9859C11.9061 19.0094 11.8452 19.0215 11.7836 19.0215ZM9.90821 19.0215C9.78385 19.0215 9.66459 18.9721 9.57666 18.8842C9.48873 18.7963 9.43933 18.677 9.43933 18.5527V17.4066C9.43933 17.1477 9.64921 16.9377 9.90821 16.9377C10.1672 16.9377 10.3771 17.1477 10.3771 17.4066V18.5527C10.3771 18.6142 10.365 18.6752 10.3414 18.7321C10.3178 18.789 10.2833 18.8407 10.2398 18.8842C10.1962 18.9278 10.1445 18.9623 10.0876 18.9859C10.0308 19.0094 9.96978 19.0215 9.90821 19.0215Z" fill="#AAB2BC"/>
<path d="M20.6923 9.27927C20.6923 8.50365 20.0613 7.87271 19.2857 7.87271C18.5102 7.87271 17.8792 8.50365 17.8792 9.27927C17.8792 9.89046 18.2712 10.4116 18.8168 10.6052V11.4673C18.8168 11.7262 19.0267 11.9361 19.2857 11.9361C19.5447 11.9361 19.7546 11.7262 19.7546 11.4673V10.6052C20.3002 10.4116 20.6923 9.89052 20.6923 9.27927Z" fill="#656D78"/>
<path d="M29.6552 6.83116C29.5937 6.83116 29.5327 6.81903 29.4758 6.79546C29.4189 6.7719 29.3672 6.73736 29.3237 6.69383C29.2801 6.65029 29.2456 6.5986 29.222 6.54171C29.1985 6.48483 29.1863 6.42385 29.1863 6.36228V5.21628C29.1863 4.95734 29.3962 4.74741 29.6552 4.74741C29.9142 4.74741 30.1241 4.95734 30.1241 5.21628V6.36234C30.1241 6.42392 30.112 6.48489 30.0884 6.54177C30.0649 6.59866 30.0303 6.65035 29.9868 6.69388C29.9432 6.73742 29.8915 6.77195 29.8347 6.7955C29.7778 6.81906 29.7168 6.83117 29.6552 6.83116ZM27.7799 6.83116C27.6556 6.83116 27.5363 6.78176 27.4484 6.69383C27.3604 6.60589 27.311 6.48663 27.311 6.36228V5.21628C27.311 5.09193 27.3604 4.97267 27.4484 4.88474C27.5363 4.79681 27.6556 4.74741 27.7799 4.74741C27.9043 4.74741 28.0235 4.79681 28.1115 4.88474C28.1994 4.97267 28.2488 5.09193 28.2488 5.21628V6.36234C28.2488 6.48669 28.1994 6.60593 28.1114 6.69385C28.0235 6.78177 27.9043 6.83116 27.7799 6.83116Z" fill="#AAB2BC"/>
<path d="M20.2232 26.0023H17.7227C17.5983 26.0023 17.479 25.9529 17.3911 25.865C17.3032 25.7771 17.2538 25.6578 17.2538 25.5335V18.6569C17.2538 18.5325 17.3032 18.4133 17.3911 18.3253C17.479 18.2374 17.5983 18.188 17.7227 18.188H20.2232C20.3476 18.188 20.4668 18.2374 20.5548 18.3253C20.6427 18.4133 20.6921 18.5325 20.6921 18.6569V25.5335C20.6921 25.595 20.68 25.656 20.6564 25.7129C20.6329 25.7698 20.5983 25.8215 20.5548 25.865C20.5112 25.9086 20.4596 25.9431 20.4027 25.9667C20.3458 25.9902 20.2848 26.0023 20.2232 26.0023Z" fill="#48CFAD"/>
<path d="M25.8498 20.6886H20.6921V25.5334C20.6921 25.6578 20.6427 25.7771 20.5548 25.865C20.4669 25.9529 20.3476 26.0023 20.2233 26.0023H25.8498C25.9742 26.0023 26.0934 25.9529 26.1814 25.865C26.2693 25.7771 26.3187 25.6578 26.3187 25.5334V21.1574C26.3187 21.0331 26.2693 20.9138 26.1814 20.8259C26.0934 20.738 25.9742 20.6886 25.8498 20.6886Z" fill="#AC92EC"/>
<path d="M31.7723 15.129L30.1243 14.1401V28.1748L31.7723 27.1858C31.8417 27.1442 31.8992 27.0853 31.939 27.0148C31.9789 26.9444 31.9999 26.8648 31.9999 26.7838V15.531C31.9999 15.4501 31.9789 15.3705 31.939 15.3C31.8992 15.2296 31.8417 15.1707 31.7723 15.129Z" fill="#CCD1D9"/>
</g>
<defs>
<clipPath id="clip0_452_42618">
<rect width="32" height="32" fill="white"/>
</clipPath>
</defs>
</svg>
