<svg width="258" height="258" viewBox="0 0 258 258" fill="none" xmlns="http://www.w3.org/2000/svg">
<g clip-path="url(#clip0_1173_31991)">
<path d="M230.726 82.3225C223.357 62.3941 203.372 48.1028 182.208 53.0224C162.29 57.6524 147.971 75.2919 128.967 82.3586C109.042 89.7675 91.763 84.5177 73.8089 75.7245C58.333 68.145 39.8344 62.0664 26.9111 78.6719C12.8973 96.6787 14.7712 124.249 21.6719 144.279C28.4754 164.028 41.8705 180.325 59.1961 190.903C93.7271 211.985 142.447 213.708 179.064 194.135C216.918 173.902 246.79 125.766 230.726 82.3225Z" stroke="#F1F7F6" stroke-width="1.44" stroke-miterlimit="10"/>
<path d="M212.098 48.9331C198.599 32.5256 175.031 25.5826 156.653 37.1737C139.356 48.0826 131.618 69.4434 115.984 82.3544C99.5928 95.8906 81.5483 96.6006 61.703 94.1848C44.597 92.1025 25.128 92.4298 18.3684 112.356C11.0384 133.964 21.8543 159.393 34.9451 176.051C47.8515 192.474 65.8522 203.474 85.6892 207.782C125.226 216.367 171.814 202.01 199.982 171.506C229.102 139.973 241.527 84.7008 212.098 48.9331Z" fill="#F1F7F6"/>
<path d="M125.273 73.3468L64.6563 125.425L65.7844 148.988C65.7844 151.799 69.175 191.648 72.3999 191.648L129 153.771L179.999 187.76C183.224 187.76 189.45 150.727 189.45 147.916L193.22 125.369L132.549 73.3468C130.42 71.8688 127.402 71.8688 125.273 73.3468Z" fill="#1B2600"/>
<path d="M79.8938 92H177.694C178.946 92 180.146 92.4971 181.031 93.382C181.916 94.2669 182.413 95.4671 182.413 96.7185V196.339C182.413 197.59 181.916 198.791 181.031 199.675C180.146 200.56 178.946 201.057 177.694 201.057H79.8938C78.6424 201.057 77.4422 200.56 76.5573 199.675C75.6724 198.791 75.1753 197.59 75.1753 196.339V96.7185C75.1753 95.4671 75.6724 94.2669 76.5573 93.382C77.4422 92.4971 78.6424 92 79.8938 92Z" fill="white"/>
<path d="M107.571 155.525H84.8408C84.4179 155.525 84.0124 155.357 83.7134 155.058C83.4144 154.759 83.2464 154.353 83.2463 153.93V131.2C83.2464 130.777 83.4143 130.372 83.7134 130.072C84.0124 129.773 84.4179 129.605 84.8408 129.605H107.571C107.994 129.605 108.4 129.773 108.699 130.072C108.998 130.372 109.166 130.777 109.166 131.2V153.93C109.166 154.353 108.998 154.759 108.699 155.058C108.4 155.357 107.994 155.525 107.571 155.525ZM86.4353 152.336H105.977V132.794H86.4353V152.336Z" fill="#F1F7F6"/>
<path d="M177.119 149.31H120.387C119.964 149.31 119.558 149.142 119.259 148.843C118.96 148.544 118.792 148.138 118.792 147.716C118.792 147.293 118.96 146.887 119.259 146.588C119.558 146.289 119.964 146.121 120.387 146.121H177.119C177.542 146.121 177.947 146.289 178.246 146.588C178.546 146.887 178.714 147.293 178.714 147.716C178.714 148.138 178.546 148.544 178.246 148.843C177.947 149.142 177.542 149.31 177.119 149.31Z" fill="#8DB300"/>
<path d="M94.6545 150.374C94.6416 150.374 94.6285 150.374 94.6156 150.374C94.329 150.367 94.0495 150.283 93.8067 150.13C93.5638 149.978 93.3666 149.763 93.2357 149.508L90.4552 144.087C90.2624 143.711 90.227 143.274 90.3566 142.872C90.4862 142.469 90.7703 142.135 91.1465 141.942C91.5226 141.749 91.96 141.713 92.3624 141.843C92.7648 141.972 93.0994 142.256 93.2925 142.632L94.7355 145.445L100.432 135.556C100.537 135.375 100.676 135.216 100.842 135.088C101.008 134.961 101.197 134.867 101.4 134.813C101.602 134.758 101.813 134.744 102.02 134.771C102.228 134.798 102.428 134.866 102.61 134.971C102.791 135.075 102.95 135.214 103.078 135.38C103.205 135.546 103.299 135.736 103.354 135.938C103.408 136.14 103.422 136.351 103.395 136.559C103.368 136.767 103.3 136.967 103.195 137.148L96.036 149.576C95.8961 149.818 95.6948 150.02 95.4523 150.16C95.2098 150.3 94.9346 150.374 94.6545 150.374Z" fill="#344900"/>
<path d="M120.373 135.827H148.903C149.111 135.827 149.316 135.868 149.508 135.947C149.7 136.026 149.874 136.143 150.021 136.29C150.168 136.436 150.284 136.611 150.364 136.803C150.443 136.994 150.484 137.2 150.484 137.407C150.484 137.827 150.317 138.229 150.021 138.525C149.725 138.822 149.322 138.988 148.903 138.988H120.373C119.954 138.988 119.552 138.822 119.255 138.525C118.959 138.229 118.792 137.827 118.792 137.407C118.792 136.988 118.959 136.586 119.255 136.29C119.552 135.993 119.954 135.827 120.373 135.827ZM107.571 125.982H84.8408C84.4179 125.982 84.0124 125.814 83.7134 125.515C83.4144 125.216 83.2464 124.81 83.2463 124.387V101.657C83.2464 101.234 83.4143 100.829 83.7134 100.53C84.0124 100.231 84.4179 100.063 84.8408 100.062H107.571C107.994 100.063 108.4 100.231 108.699 100.53C108.998 100.829 109.166 101.234 109.166 101.657V124.387C109.166 124.81 108.998 125.216 108.699 125.515C108.4 125.814 107.994 125.982 107.571 125.982ZM86.4353 122.793H105.977V103.251H86.4353V122.793ZM163.561 109.469H120.189C119.418 109.469 118.792 108.755 118.792 107.875C118.792 106.994 119.418 106.28 120.189 106.28H163.561C164.333 106.28 164.958 106.994 164.958 107.875C164.958 108.755 164.333 109.469 163.561 109.469Z" fill="#F1F7F6"/>
<path d="M173.709 119.763H120.294C119.465 119.763 118.792 119.049 118.792 118.169C118.792 117.288 119.465 116.574 120.294 116.574H173.709C174.538 116.574 175.21 117.288 175.21 118.169C175.21 119.049 174.538 119.763 173.709 119.763Z" fill="#8DB300"/>
<path d="M94.6545 120.828C94.6416 120.828 94.6286 120.828 94.6156 120.828C94.329 120.821 94.0495 120.736 93.8067 120.584C93.5638 120.432 93.3666 120.216 93.2357 119.961L90.4552 114.541C90.2622 114.165 90.2265 113.727 90.3561 113.325C90.4857 112.922 90.7698 112.588 91.1461 112.395C91.5224 112.202 91.9599 112.166 92.3624 112.296C92.765 112.425 93.0995 112.709 93.2926 113.086L94.7355 115.899L100.432 106.01C100.537 105.829 100.676 105.669 100.842 105.542C101.008 105.414 101.197 105.32 101.4 105.266C101.602 105.211 101.813 105.197 102.021 105.224C102.228 105.251 102.429 105.319 102.61 105.424C102.792 105.528 102.951 105.668 103.078 105.834C103.206 106 103.3 106.189 103.354 106.392C103.408 106.594 103.422 106.805 103.395 107.013C103.368 107.22 103.3 107.421 103.195 107.602L96.036 120.03C95.8961 120.272 95.6948 120.474 95.4523 120.614C95.2098 120.754 94.9347 120.828 94.6545 120.828Z" fill="#344900"/>
<path d="M130.242 164.807L159.492 136.029C167.173 128.471 178.137 124.152 189.645 124.152C192.347 124.152 194.538 125.869 194.538 127.987V204.907C194.538 207.025 190.884 210.241 188.182 210.241H171.562L130.242 169.586C128.86 168.227 128.86 166.167 130.242 164.807Z" fill="#344900"/>
<path d="M127.758 164.757L98.5084 135.978C90.8268 128.42 79.8628 124.102 68.3553 124.102C65.6529 124.102 63.462 125.819 63.462 127.937V205.318C63.462 207.436 66.5987 210.243 69.3012 210.243L86.4378 210.191L127.758 169.536C129.14 168.176 129.14 166.116 127.758 164.757Z" fill="#344900"/>
<path d="M194.538 189.162V205.751C194.538 208.23 191.923 210.24 188.699 210.24H69.3008C66.0767 210.24 63.4622 208.23 63.4622 205.751V189.162L125.362 151.255C126.369 150.639 127.576 150.313 128.794 150.28C130.148 150.243 131.516 150.569 132.638 151.255L194.538 189.162Z" fill="#4D6D00"/>
<path d="M140.592 154.57L194.538 182.105L194.538 189.162L139.622 155.525L140.592 154.57Z" fill="#1B2600"/>
<path d="M117.408 154.57L63.462 182.105L63.4621 189.162L118.378 155.525L117.408 154.57Z" fill="#1B2600"/>
<path d="M98.1771 62.7734L85.5256 103.862L83.4984 110.446L77.7188 105.569L62.6127 92.8245L98.1771 62.7734Z" fill="#4D6D00"/>
<path d="M98.1765 62.7734L54.2218 88.1595L34.2281 81.5335L98.1765 62.7734Z" fill="#344900"/>
<path d="M98.1765 62.7734L62.6133 92.8248L55.7781 106.491L54.2218 88.1595L98.1765 62.7734Z" fill="#1B2600"/>
<path d="M111.458 201.83C111.388 201.83 111.319 201.82 111.252 201.8C109.784 201.363 108.311 200.862 106.873 200.311C106.695 200.243 106.551 200.106 106.474 199.932C106.396 199.758 106.391 199.559 106.459 199.381C106.527 199.203 106.664 199.059 106.838 198.981C107.013 198.903 107.211 198.898 107.389 198.967C108.792 199.504 110.23 199.993 111.663 200.42C111.829 200.469 111.971 200.577 112.064 200.722C112.157 200.868 112.195 201.043 112.17 201.214C112.145 201.385 112.059 201.541 111.929 201.655C111.798 201.768 111.631 201.83 111.458 201.83ZM101.56 197.893C101.448 197.893 101.337 197.867 101.237 197.816C99.8668 197.126 98.5051 196.373 97.1891 195.581C97.1081 195.532 97.0375 195.468 96.9814 195.392C96.9252 195.316 96.8846 195.229 96.8618 195.138C96.839 195.046 96.8345 194.951 96.8486 194.857C96.8627 194.764 96.895 194.674 96.9438 194.593C96.9926 194.512 97.0568 194.441 97.1329 194.385C97.209 194.329 97.2954 194.288 97.3871 194.265C97.4789 194.243 97.5742 194.238 97.6677 194.252C97.7612 194.266 97.851 194.299 97.932 194.347C99.2173 195.121 100.547 195.856 101.885 196.53C102.03 196.603 102.145 196.723 102.214 196.87C102.282 197.017 102.299 197.183 102.261 197.34C102.224 197.498 102.134 197.638 102.007 197.739C101.88 197.839 101.722 197.894 101.56 197.893ZM92.5051 192.285C92.3498 192.285 92.1987 192.234 92.0745 192.141C90.843 191.22 89.6332 190.242 88.4787 189.234C88.3585 189.129 88.2766 188.988 88.2459 188.831C87.5701 189.069 86.8826 189.273 86.1862 189.441C86.0943 189.463 85.9989 189.467 85.9055 189.453C85.8121 189.438 85.7225 189.405 85.6417 189.356C85.561 189.307 85.4908 189.242 85.4351 189.166C85.3794 189.089 85.3392 189.003 85.317 188.911C85.2947 188.819 85.2908 188.723 85.3054 188.63C85.32 188.537 85.3529 188.447 85.4021 188.366C85.4513 188.286 85.516 188.215 85.5924 188.16C85.6688 188.104 85.7554 188.064 85.8473 188.041C87.2769 187.698 88.6625 187.192 89.977 186.534C90.0615 186.491 90.1535 186.466 90.2479 186.459C90.3422 186.452 90.437 186.463 90.5269 186.493C90.6167 186.522 90.6999 186.569 90.7715 186.631C90.8432 186.693 90.902 186.768 90.9446 186.853C90.9871 186.937 91.0126 187.029 91.0196 187.124C91.0266 187.218 91.0149 187.313 90.9852 187.403C90.9555 187.492 90.9084 187.575 90.8466 187.647C90.7848 187.719 90.7094 187.777 90.6249 187.82C90.2892 187.989 89.9474 188.149 89.5995 188.3C90.6742 189.231 91.796 190.135 92.9369 190.988C93.0581 191.079 93.1476 191.205 93.1928 191.349C93.238 191.494 93.2366 191.649 93.1888 191.792C93.141 191.936 93.0493 192.06 92.9266 192.149C92.8038 192.237 92.6564 192.285 92.5051 192.285ZM79.9698 190.03C79.9583 190.03 79.9467 190.029 79.9351 190.029C78.3696 189.951 76.8142 189.732 75.2875 189.377C75.1016 189.334 74.9403 189.219 74.8392 189.057C74.7381 188.895 74.7054 188.7 74.7483 188.514C74.7912 188.328 74.9062 188.167 75.068 188.065C75.2298 187.964 75.4252 187.931 75.6112 187.974C77.0539 188.31 78.5239 188.516 80.0034 188.59C80.1911 188.599 80.3679 188.681 80.496 188.819C80.6242 188.956 80.6934 189.138 80.689 189.326C80.6847 189.514 80.607 189.693 80.4726 189.824C80.3382 189.956 80.1578 190.029 79.9698 190.03ZM69.6886 187.436C69.5874 187.436 69.4873 187.414 69.395 187.373C67.9798 186.736 66.6025 186.018 65.2699 185.223C65.1886 185.175 65.1177 185.111 65.0611 185.035C65.0045 184.959 64.9634 184.873 64.9401 184.782C64.9168 184.69 64.9118 184.595 64.9254 184.501C64.9389 184.408 64.9708 184.318 65.0191 184.236C65.0674 184.155 65.1313 184.084 65.207 184.027C65.2828 183.971 65.3689 183.93 65.4606 183.906C65.5522 183.883 65.6475 183.878 65.7411 183.892C65.8347 183.905 65.9247 183.937 66.0059 183.985C67.2908 184.752 68.6187 185.444 69.9831 186.059C70.1336 186.126 70.2565 186.243 70.3311 186.39C70.4057 186.537 70.4276 186.705 70.3931 186.866C70.3587 187.028 70.2699 187.172 70.1417 187.276C70.0134 187.379 69.8535 187.436 69.6886 187.436ZM84.5756 185.174C84.4758 185.175 84.377 185.154 84.2857 185.114C84.1943 185.074 84.1123 185.015 84.0449 184.941C82.9872 183.792 82.0204 182.562 81.1532 181.262C81.1008 181.183 81.0645 181.095 81.0462 181.002C81.0279 180.91 81.0281 180.814 81.0468 180.721C81.0654 180.629 81.1022 180.54 81.1549 180.462C81.2076 180.383 81.2753 180.316 81.3541 180.264C81.4329 180.211 81.5212 180.175 81.614 180.157C81.7068 180.139 81.8023 180.139 81.895 180.158C81.9877 180.176 82.0759 180.213 82.1544 180.266C82.2329 180.319 82.3002 180.386 82.3525 180.465C83.1783 181.702 84.0989 182.873 85.106 183.968C85.2004 184.071 85.2629 184.199 85.2857 184.337C85.3086 184.475 85.2908 184.616 85.2346 184.744C85.1783 184.872 85.0861 184.981 84.9691 185.057C84.8521 185.134 84.7153 185.174 84.5756 185.174ZM95.1617 184.277C95.0218 184.277 94.8849 184.236 94.7678 184.16C94.6507 184.083 94.5584 183.974 94.5023 183.846C94.4462 183.718 94.4287 183.576 94.4518 183.438C94.475 183.3 94.5378 183.172 94.6327 183.069C95.0807 182.583 95.4948 182.068 95.872 181.526C96.3193 180.88 96.7051 180.193 97.0245 179.476C97.1026 179.302 97.2465 179.166 97.4246 179.098C97.6027 179.03 97.8005 179.035 97.9746 179.113C98.1487 179.191 98.2848 179.334 98.3533 179.512C98.4217 179.69 98.4167 179.888 98.3395 180.062C97.9835 180.862 97.5533 181.628 97.0546 182.348C96.6395 182.944 96.1839 183.511 95.691 184.045C95.6237 184.118 95.5418 184.177 95.4507 184.217C95.3596 184.257 95.2612 184.277 95.1617 184.277ZM60.6183 181.875C60.4573 181.875 60.3009 181.821 60.1743 181.721C58.9681 180.774 57.7871 179.756 56.664 178.694C56.5953 178.629 56.5401 178.551 56.5015 178.465C56.4629 178.378 56.4416 178.285 56.439 178.191C56.4337 178 56.5044 177.815 56.6356 177.676C56.7668 177.537 56.9477 177.456 57.1386 177.451C57.3295 177.446 57.5147 177.516 57.6534 177.648C58.7445 178.679 59.8918 179.669 61.0633 180.588C61.1812 180.681 61.2673 180.808 61.3096 180.951C61.3518 181.095 61.3482 181.248 61.2993 181.39C61.2503 181.531 61.1584 181.654 61.0363 181.741C60.9143 181.828 60.7681 181.875 60.6183 181.875ZM79.0822 176.128C78.9284 176.127 78.7785 176.078 78.6548 175.987C78.531 175.895 78.4398 175.767 78.3944 175.619C77.9609 174.213 77.741 172.842 77.7411 171.545C77.7411 171.315 77.748 171.084 77.7617 170.858C77.7674 170.764 77.7916 170.671 77.833 170.586C77.8744 170.501 77.9321 170.425 78.0029 170.362C78.0737 170.3 78.1562 170.251 78.2456 170.221C78.335 170.19 78.4297 170.177 78.5241 170.182C78.6185 170.188 78.7109 170.212 78.7959 170.254C78.881 170.295 78.957 170.353 79.0197 170.424C79.0824 170.495 79.1305 170.577 79.1613 170.667C79.192 170.756 79.2049 170.851 79.1991 170.945C79.1871 171.142 79.1811 171.344 79.1811 171.545C79.181 172.698 79.3794 173.926 79.7705 175.195C79.8037 175.303 79.811 175.417 79.7921 175.528C79.7732 175.639 79.7284 175.744 79.6615 175.835C79.5945 175.926 79.5073 175.999 79.4067 176.05C79.3061 176.101 79.195 176.128 79.0822 176.128ZM98.9227 174.568C98.7323 174.568 98.5496 174.493 98.4147 174.358C98.2797 174.224 98.2036 174.041 98.2028 173.851C98.2044 172.406 97.957 170.972 97.4714 169.611C97.4067 169.431 97.4159 169.234 97.4969 169.061C97.578 168.888 97.7244 168.755 97.9038 168.69C98.0833 168.625 98.2812 168.634 98.454 168.715C98.6269 168.796 98.7605 168.942 98.8256 169.121C99.3673 170.637 99.6438 172.235 99.6428 173.845C99.6436 174.036 99.5684 174.219 99.434 174.355C99.2995 174.491 99.1167 174.567 98.9257 174.568H98.9227ZM52.9931 174.448C52.8873 174.448 52.7828 174.425 52.687 174.38C52.5913 174.335 52.5066 174.27 52.4391 174.188C51.4567 173.006 50.5142 171.765 49.6379 170.498C49.5296 170.341 49.4881 170.147 49.5224 169.96C49.5568 169.772 49.6642 169.606 49.8211 169.497C49.978 169.389 50.1715 169.347 50.3593 169.381C50.547 169.415 50.7135 169.522 50.8222 169.679C51.6745 170.911 52.591 172.118 53.5463 173.268C53.6337 173.373 53.6894 173.501 53.7068 173.636C53.7242 173.772 53.7026 173.91 53.6446 174.033C53.5866 174.157 53.4945 174.262 53.3791 174.335C53.2637 174.409 53.1298 174.448 52.9931 174.448ZM80.7237 166.078C80.5844 166.078 80.4481 166.038 80.3313 165.962C80.2145 165.886 80.1223 165.778 80.0658 165.65C80.0093 165.523 79.9909 165.382 80.0129 165.244C80.035 165.107 80.0964 164.979 80.1898 164.875C81.2544 163.698 82.6734 162.783 84.2933 162.23C84.474 162.169 84.6718 162.181 84.8432 162.266C85.0146 162.35 85.1456 162.499 85.2072 162.679C85.2689 162.86 85.2563 163.058 85.1721 163.229C85.0879 163.401 84.9391 163.532 84.7584 163.593C83.3693 164.067 82.1589 164.845 81.258 165.841C81.1905 165.916 81.1081 165.976 81.016 166.016C80.924 166.057 80.8244 166.078 80.7237 166.078ZM47.0663 165.604C46.9353 165.604 46.8069 165.569 46.6947 165.501C46.5825 165.434 46.4908 165.337 46.4295 165.221C45.7072 163.859 45.039 162.45 44.4433 161.035C44.3692 160.859 44.3681 160.661 44.4402 160.484C44.5122 160.307 44.6516 160.166 44.8276 160.092C45.0036 160.018 45.2018 160.017 45.3786 160.089C45.5555 160.161 45.6965 160.3 45.7705 160.476C46.3497 161.852 46.9994 163.222 47.7018 164.547C47.7599 164.656 47.7887 164.779 47.7853 164.903C47.7819 165.027 47.7466 165.148 47.6826 165.255C47.6187 165.361 47.5283 165.449 47.4203 165.51C47.3123 165.572 47.1904 165.604 47.0663 165.604ZM94.6664 165.184C94.508 165.184 94.3541 165.131 94.2286 165.035C93.0914 164.179 91.7797 163.585 90.3868 163.293C90.2002 163.253 90.0372 163.14 89.9337 162.98C89.8302 162.819 89.7947 162.624 89.835 162.437C89.8753 162.251 89.9881 162.088 90.1486 161.984C90.3091 161.881 90.5041 161.845 90.6907 161.886C92.3291 162.239 93.8556 162.933 95.1053 163.892C95.2247 163.984 95.3123 164.111 95.356 164.255C95.3996 164.399 95.397 164.553 95.3486 164.695C95.3002 164.838 95.2083 164.961 95.086 165.049C94.9636 165.137 94.8169 165.184 94.6664 165.184ZM43.086 155.73C42.9295 155.73 42.7772 155.679 42.6523 155.585C42.5275 155.49 42.4367 155.358 42.3939 155.207C41.9705 153.72 41.6137 152.202 41.3333 150.694C41.2985 150.507 41.3396 150.313 41.4477 150.155C41.5557 149.998 41.7219 149.89 41.9096 149.855C42.0972 149.82 42.2911 149.861 42.4486 149.969C42.606 150.077 42.7141 150.243 42.7491 150.431C43.0213 151.894 43.3677 153.369 43.7788 154.813C43.8092 154.92 43.8144 155.033 43.7939 155.143C43.7734 155.252 43.7277 155.355 43.6606 155.444C43.5935 155.533 43.5067 155.605 43.407 155.655C43.3073 155.705 43.1974 155.73 43.086 155.73ZM41.307 145.237C41.1234 145.237 40.9468 145.166 40.8133 145.04C40.6798 144.914 40.5996 144.742 40.5889 144.559C40.5322 143.587 40.5035 142.599 40.5035 141.622C40.5035 141.059 40.5131 140.488 40.5318 139.924C40.5384 139.733 40.6204 139.553 40.7598 139.423C40.8992 139.292 41.0847 139.223 41.2754 139.229C41.4661 139.235 41.6465 139.317 41.777 139.457C41.9074 139.596 41.9772 139.781 41.971 139.972C41.9528 140.52 41.9435 141.075 41.9435 141.622C41.9435 142.572 41.9714 143.531 42.0264 144.475C42.0375 144.666 41.9725 144.853 41.8455 144.995C41.7186 145.138 41.5402 145.224 41.3496 145.236C41.3353 145.236 41.3211 145.237 41.307 145.237ZM41.8187 134.604C41.7149 134.604 41.6122 134.581 41.5178 134.538C41.4234 134.495 41.3395 134.432 41.2719 134.353C41.2042 134.274 41.1543 134.182 41.1258 134.082C41.0972 133.982 41.0905 133.877 41.1062 133.774C41.3399 132.255 41.6446 130.726 42.012 129.231C42.0344 129.139 42.0746 129.052 42.1306 128.976C42.1865 128.899 42.2569 128.835 42.3379 128.785C42.4189 128.736 42.5087 128.704 42.6023 128.689C42.696 128.675 42.7915 128.679 42.8835 128.702C42.9755 128.724 43.0621 128.765 43.1384 128.821C43.2147 128.877 43.2792 128.948 43.3281 129.029C43.3771 129.11 43.4095 129.2 43.4237 129.293C43.4378 129.387 43.4333 129.483 43.4104 129.575C43.0531 131.029 42.7567 132.516 42.5295 133.993C42.5034 134.163 42.4174 134.318 42.287 134.43C42.1567 134.542 41.9906 134.604 41.8187 134.604ZM44.5096 124.304C44.3933 124.304 44.2787 124.275 44.1757 124.221C44.0727 124.167 43.9843 124.089 43.9181 123.993C43.8518 123.898 43.8097 123.788 43.7953 123.672C43.781 123.557 43.7947 123.44 43.8355 123.331C44.3769 121.886 44.9886 120.453 45.6536 119.069C45.7366 118.897 45.8843 118.766 46.0643 118.703C46.2442 118.64 46.4417 118.651 46.6135 118.734C46.7853 118.816 46.9174 118.963 46.9807 119.143C47.0441 119.323 47.0336 119.521 46.9515 119.693C46.305 121.038 45.7103 122.432 45.1839 123.836C45.1324 123.973 45.0403 124.092 44.9198 124.175C44.7993 124.259 44.6562 124.304 44.5096 124.304ZM49.2674 114.781C49.1383 114.781 49.0115 114.746 48.9005 114.68C48.7895 114.614 48.6982 114.52 48.6363 114.406C48.5744 114.293 48.5441 114.165 48.5486 114.036C48.553 113.907 48.5922 113.781 48.6618 113.673C49.4963 112.37 50.3984 111.097 51.3428 109.89C51.4604 109.739 51.633 109.642 51.8226 109.619C52.0121 109.595 52.2031 109.649 52.3535 109.766C52.5039 109.884 52.6014 110.056 52.6246 110.246C52.6477 110.435 52.5946 110.626 52.477 110.777C51.5603 111.949 50.6846 113.184 49.8743 114.449C49.8092 114.551 49.7194 114.635 49.6133 114.693C49.5073 114.751 49.3883 114.781 49.2674 114.781ZM148.838 201.081C148.733 201.081 148.629 201.058 148.534 201.013C148.438 200.969 148.354 200.904 148.286 200.823C148.218 200.743 148.169 200.649 148.142 200.547C148.115 200.445 148.11 200.339 148.128 200.235C148.408 198.679 148.872 197.161 149.51 195.713C149.587 195.538 149.729 195.401 149.907 195.331C150.085 195.261 150.283 195.265 150.458 195.341C150.633 195.418 150.771 195.561 150.84 195.738C150.91 195.916 150.906 196.114 150.83 196.289C150.238 197.632 149.807 199.041 149.546 200.485C149.517 200.652 149.43 200.803 149.3 200.912C149.171 201.02 149.007 201.08 148.838 201.081ZM180.637 195.316C180.616 195.316 180.595 195.315 180.573 195.313C178.915 195.153 177.332 194.541 175.996 193.545C175.843 193.431 175.741 193.261 175.713 193.072C175.685 192.883 175.734 192.691 175.848 192.537C175.962 192.384 176.132 192.283 176.321 192.255C176.51 192.227 176.702 192.275 176.855 192.389C177.976 193.227 179.306 193.742 180.699 193.879C180.884 193.895 181.055 193.982 181.177 194.121C181.3 194.26 181.363 194.442 181.355 194.627C181.347 194.812 181.268 194.987 181.134 195.116C181.001 195.244 180.822 195.316 180.637 195.316ZM186.004 193.056C185.87 193.056 185.739 193.018 185.625 192.948C185.512 192.878 185.42 192.777 185.36 192.657C185.3 192.538 185.275 192.404 185.287 192.271C185.299 192.137 185.348 192.01 185.428 191.903C186.168 190.918 186.559 189.655 186.559 188.252C186.559 188.186 186.558 188.12 186.557 188.054C186.552 187.863 186.623 187.678 186.754 187.54C186.886 187.401 187.067 187.32 187.258 187.315C187.448 187.31 187.634 187.381 187.772 187.513C187.911 187.644 187.991 187.825 187.996 188.016C187.998 188.095 187.999 188.173 187.999 188.252C187.999 189.97 187.508 191.532 186.58 192.768C186.513 192.858 186.426 192.93 186.326 192.98C186.226 193.03 186.115 193.056 186.004 193.056ZM153.31 191.517C153.175 191.517 153.043 191.479 152.928 191.407C152.814 191.336 152.722 191.234 152.663 191.113C152.604 190.991 152.58 190.856 152.594 190.722C152.608 190.588 152.66 190.46 152.743 190.354C153.706 189.126 154.762 187.972 155.901 186.905C155.969 186.84 156.05 186.789 156.139 186.756C156.227 186.722 156.322 186.706 156.416 186.709C156.511 186.712 156.604 186.734 156.69 186.772C156.776 186.811 156.854 186.867 156.919 186.936C156.984 187.005 157.034 187.086 157.068 187.174C157.101 187.263 157.117 187.357 157.114 187.451C157.111 187.546 157.089 187.639 157.051 187.725C157.012 187.811 156.956 187.889 156.887 187.954C155.802 188.971 154.796 190.07 153.878 191.24C153.81 191.327 153.724 191.396 153.626 191.444C153.527 191.492 153.419 191.517 153.31 191.517ZM173.461 188.57C173.284 188.57 173.113 188.505 172.981 188.386C172.85 188.268 172.766 188.105 172.747 187.929C172.711 187.601 172.693 187.271 172.693 186.941C172.701 185.624 172.965 184.322 173.471 183.106C173.543 182.929 173.682 182.788 173.858 182.714C174.034 182.64 174.232 182.639 174.409 182.711C174.586 182.783 174.727 182.922 174.801 183.098C174.875 183.274 174.876 183.472 174.804 183.649C174.369 184.692 174.141 185.81 174.133 186.941C174.133 187.218 174.148 187.496 174.178 187.772C174.189 187.872 174.179 187.974 174.148 188.071C174.117 188.167 174.066 188.256 173.998 188.331C173.93 188.406 173.848 188.467 173.755 188.508C173.663 188.549 173.563 188.57 173.461 188.57ZM161.195 184.405C161.039 184.405 160.888 184.354 160.763 184.261C160.638 184.168 160.547 184.037 160.503 183.888C160.459 183.739 160.465 183.58 160.519 183.434C160.573 183.288 160.673 183.164 160.804 183.079C162.112 182.235 163.476 181.48 164.885 180.819C165.058 180.738 165.256 180.729 165.436 180.795C165.615 180.86 165.761 180.993 165.842 181.166C165.923 181.339 165.932 181.537 165.867 181.716C165.802 181.896 165.668 182.042 165.496 182.123C164.145 182.757 162.838 183.48 161.584 184.29C161.468 184.365 161.333 184.405 161.195 184.405ZM185.132 183.172C185.029 183.173 184.926 183.15 184.832 183.107C184.737 183.064 184.653 183 184.586 182.922C184.339 182.634 184.07 182.366 183.781 182.121C182.988 181.457 182.098 180.919 181.14 180.529C181.053 180.493 180.974 180.44 180.907 180.373C180.84 180.306 180.787 180.227 180.75 180.14C180.714 180.052 180.695 179.959 180.695 179.864C180.695 179.769 180.714 179.676 180.75 179.588C180.786 179.501 180.839 179.422 180.906 179.355C180.973 179.288 181.052 179.235 181.139 179.198C181.227 179.162 181.32 179.143 181.415 179.143C181.509 179.143 181.603 179.162 181.69 179.198C182.786 179.646 183.804 180.261 184.711 181.021C185.058 181.316 185.382 181.638 185.678 181.983C185.768 182.088 185.826 182.216 185.845 182.352C185.864 182.489 185.844 182.628 185.786 182.753C185.729 182.878 185.637 182.984 185.521 183.058C185.405 183.133 185.27 183.172 185.132 183.172ZM170.928 180.165C170.752 180.165 170.582 180.1 170.45 179.983C170.318 179.865 170.234 179.704 170.214 179.529C170.193 179.353 170.238 179.177 170.339 179.032C170.44 178.888 170.59 178.785 170.762 178.744C171.034 178.68 171.307 178.619 171.575 178.564C172.846 178.3 174.139 178.152 175.436 178.123C175.627 178.119 175.812 178.191 175.95 178.323C176.087 178.456 176.167 178.637 176.171 178.828C176.174 179.019 176.102 179.204 175.97 179.341C175.838 179.479 175.656 179.559 175.465 179.562C174.255 179.59 173.05 179.728 171.865 179.974C171.612 180.026 171.353 180.084 171.096 180.145C171.041 180.158 170.985 180.165 170.928 180.165ZM177.815 179.325C177.664 179.325 177.517 179.278 177.395 179.19C177.273 179.103 177.181 178.979 177.132 178.836C177.084 178.693 177.082 178.539 177.126 178.395C177.17 178.251 177.258 178.124 177.378 178.033C177.979 177.573 178.623 177.174 179.301 176.839C180.07 176.464 180.87 176.155 181.691 175.915C181.782 175.889 181.877 175.88 181.971 175.89C182.065 175.9 182.156 175.928 182.239 175.974C182.322 176.019 182.396 176.08 182.455 176.154C182.515 176.227 182.559 176.312 182.586 176.402C182.613 176.493 182.621 176.588 182.611 176.682C182.601 176.776 182.573 176.867 182.528 176.95C182.482 177.033 182.421 177.107 182.348 177.166C182.274 177.226 182.19 177.27 182.099 177.297C181.356 177.513 180.632 177.793 179.936 178.131C179.342 178.425 178.777 178.775 178.251 179.178C178.126 179.273 177.973 179.325 177.815 179.325ZM187.908 176.429C187.721 176.429 187.541 176.356 187.407 176.225C187.272 176.094 187.194 175.916 187.189 175.729C187.184 175.541 187.252 175.359 187.38 175.221C187.507 175.083 187.682 175 187.87 174.99C188.713 174.944 189.565 174.915 190.389 174.887L190.747 174.874C191.426 174.851 191.947 174.829 192.438 174.803C192.628 174.793 192.815 174.859 192.957 174.986C193.099 175.114 193.184 175.293 193.194 175.483C193.205 175.674 193.139 175.861 193.011 176.003C192.884 176.145 192.705 176.23 192.515 176.241C192.015 176.267 191.485 176.29 190.797 176.314L190.438 176.326C189.622 176.354 188.777 176.383 187.949 176.428C187.935 176.429 187.922 176.429 187.908 176.429ZM198.495 175.369C198.321 175.369 198.153 175.306 198.022 175.192C197.891 175.078 197.806 174.921 197.782 174.749C197.758 174.577 197.797 174.402 197.891 174.256C197.986 174.111 198.13 174.004 198.297 173.957C199.395 173.654 200.448 173.206 201.429 172.626C201.676 172.474 201.912 172.306 202.136 172.122C202.209 172.062 202.294 172.018 202.384 171.991C202.475 171.964 202.57 171.956 202.664 171.965C202.758 171.975 202.849 172.004 202.932 172.049C203.015 172.094 203.089 172.155 203.148 172.228C203.208 172.302 203.252 172.386 203.279 172.477C203.306 172.568 203.315 172.663 203.305 172.757C203.295 172.851 203.267 172.942 203.221 173.025C203.176 173.108 203.115 173.182 203.042 173.241C202.766 173.467 202.475 173.674 202.17 173.86C201.082 174.506 199.913 175.004 198.693 175.341C198.628 175.36 198.562 175.369 198.495 175.369ZM206.401 168.685C206.275 168.685 206.151 168.652 206.042 168.589C205.933 168.526 205.843 168.436 205.779 168.327C205.716 168.218 205.682 168.095 205.682 167.969C205.681 167.843 205.713 167.719 205.775 167.61C206.501 166.33 207.083 164.972 207.51 163.564C207.565 163.381 207.69 163.227 207.859 163.137C208.027 163.047 208.224 163.027 208.407 163.083C208.59 163.138 208.743 163.263 208.833 163.431C208.924 163.6 208.943 163.797 208.888 163.98C208.431 165.491 207.807 166.947 207.028 168.32C206.965 168.431 206.874 168.523 206.764 168.587C206.654 168.651 206.528 168.685 206.401 168.685ZM209.031 158.48C208.843 158.48 208.662 158.406 208.528 158.275C208.393 158.143 208.316 157.964 208.312 157.775C208.279 156.306 208.075 154.846 207.705 153.424C207.681 153.333 207.676 153.237 207.688 153.143C207.701 153.05 207.733 152.959 207.781 152.878C207.829 152.796 207.892 152.724 207.968 152.667C208.043 152.61 208.13 152.569 208.221 152.545C208.313 152.521 208.408 152.516 208.502 152.529C208.596 152.542 208.686 152.574 208.768 152.622C208.849 152.67 208.921 152.734 208.977 152.81C209.034 152.885 209.076 152.972 209.099 153.063C209.497 154.593 209.716 156.165 209.751 157.746C209.755 157.936 209.683 158.121 209.551 158.259C209.419 158.397 209.237 158.476 209.046 158.48C209.041 158.48 209.036 158.48 209.031 158.48Z" fill="#8DB300"/>
<path d="M199.044 149.47C207.378 149.47 214.134 142.714 214.134 134.38C214.134 126.045 207.378 119.289 199.044 119.289C190.71 119.289 183.953 126.045 183.953 134.38C183.953 142.714 190.71 149.47 199.044 149.47Z" fill="#8DB300"/>
<path d="M204.848 136.324V132.914C204.848 131.374 204.237 129.898 203.148 128.809C202.06 127.721 200.584 127.109 199.044 127.109H199.044C198.282 127.109 197.527 127.26 196.823 127.551C196.118 127.843 195.479 128.27 194.94 128.809C194.401 129.348 193.973 129.988 193.681 130.692C193.39 131.397 193.24 132.151 193.24 132.914V136.324C193.24 138.178 192.731 138.887 191.77 140.473H206.318C205.357 138.887 204.848 138.178 204.848 136.324ZM199.044 143.432C198.463 143.432 197.906 143.201 197.495 142.79C197.084 142.379 196.853 141.822 196.853 141.241H201.235C201.235 141.822 201.004 142.379 200.593 142.79C200.182 143.201 199.625 143.432 199.044 143.432Z" fill="white"/>
<path d="M199.044 125.332C198.692 125.332 198.349 125.436 198.056 125.632C197.764 125.827 197.536 126.105 197.401 126.43C197.267 126.754 197.232 127.112 197.3 127.457C197.369 127.802 197.538 128.118 197.787 128.367C198.035 128.616 198.352 128.785 198.697 128.854C199.042 128.922 199.399 128.887 199.724 128.752C200.049 128.618 200.327 128.39 200.522 128.098C200.717 127.805 200.822 127.461 200.822 127.11C200.822 126.638 200.634 126.186 200.301 125.853C199.968 125.519 199.515 125.332 199.044 125.332ZM199.044 128.178C198.833 128.178 198.626 128.115 198.451 127.998C198.275 127.881 198.138 127.714 198.057 127.519C197.976 127.323 197.955 127.109 197.996 126.901C198.038 126.694 198.139 126.504 198.289 126.355C198.438 126.205 198.628 126.104 198.836 126.062C199.043 126.021 199.258 126.042 199.453 126.123C199.648 126.204 199.815 126.341 199.932 126.516C200.049 126.692 200.112 126.899 200.112 127.11C200.112 127.393 199.999 127.665 199.799 127.865C199.599 128.065 199.327 128.178 199.044 128.178Z" fill="white"/>
<path d="M199.044 152.833C194.775 152.833 190.637 151.353 187.337 148.644C184.037 145.936 181.778 142.167 180.945 137.98C180.112 133.792 180.757 129.446 182.769 125.68C184.782 121.915 188.038 118.964 191.982 117.33C195.927 115.697 200.315 115.481 204.401 116.72C208.486 117.96 212.016 120.577 214.388 124.127C216.76 127.677 217.827 131.94 217.409 136.188C216.99 140.437 215.112 144.409 212.093 147.428C210.383 149.147 208.35 150.51 206.11 151.438C203.87 152.365 201.468 152.84 199.044 152.833ZM199.044 117.366C195.108 117.366 191.293 118.73 188.25 121.228C185.208 123.725 183.125 127.2 182.357 131.06C181.589 134.921 182.183 138.928 184.039 142.4C185.895 145.871 188.896 148.592 192.533 150.098C196.17 151.605 200.216 151.803 203.983 150.661C207.75 149.518 211.004 147.105 213.19 143.832C215.377 140.559 216.362 136.629 215.976 132.712C215.59 128.795 213.858 125.132 211.074 122.349C209.498 120.764 207.623 119.508 205.558 118.652C203.493 117.797 201.279 117.36 199.044 117.366Z" fill="#8DB300"/>
<path d="M185.456 89.1231C185.313 89.1231 185.174 89.0808 185.056 89.0017C184.937 88.9226 184.845 88.8102 184.79 88.6786C184.736 88.547 184.722 88.4023 184.749 88.2626C184.777 88.1229 184.846 87.9946 184.946 87.8939L189.665 83.1757C189.8 83.0407 189.983 82.9648 190.174 82.9648C190.365 82.9648 190.548 83.0407 190.683 83.1757C190.818 83.3108 190.894 83.4939 190.894 83.6849C190.894 83.8758 190.818 84.059 190.683 84.194L185.965 88.9122C185.898 88.9792 185.819 89.0322 185.731 89.0684C185.644 89.1046 185.55 89.1232 185.456 89.1231Z" fill="#344900"/>
<path d="M185.456 89.3034C185.278 89.3034 185.104 89.2506 184.956 89.1517C184.808 89.0528 184.692 88.9122 184.624 88.7478C184.556 88.5833 184.538 88.4024 184.573 88.2278C184.608 88.0532 184.693 87.8928 184.819 87.767L189.537 83.0488C189.706 82.88 189.935 82.7852 190.174 82.7852C190.412 82.7852 190.641 82.88 190.81 83.0488C190.979 83.2175 191.074 83.4465 191.074 83.6852C191.074 83.9239 190.979 84.1528 190.81 84.3216L186.092 89.0398C186.009 89.1236 185.909 89.1901 185.8 89.2353C185.691 89.2805 185.574 89.3037 185.456 89.3034ZM190.174 83.1455C190.103 83.1454 190.033 83.1592 189.967 83.1863C189.902 83.2134 189.842 83.2532 189.792 83.3034L185.074 88.0215C184.973 88.1228 184.916 88.2601 184.916 88.4033C184.916 88.5464 184.973 88.6837 185.074 88.7849C185.175 88.8861 185.312 88.943 185.456 88.9431C185.599 88.9431 185.736 88.8863 185.837 88.7852L190.556 84.067C190.631 83.9915 190.683 83.8954 190.704 83.7906C190.724 83.6859 190.714 83.5773 190.673 83.4786C190.632 83.3799 190.563 83.2956 190.474 83.2363C190.385 83.177 190.281 83.1454 190.174 83.1455ZM195.545 95.8754C195.509 95.8754 195.473 95.8727 195.437 95.8673L187.585 94.6878C187.396 94.6593 187.226 94.557 187.113 94.4035C186.999 94.2499 186.952 94.0576 186.98 93.8689C187.008 93.6801 187.111 93.5103 187.264 93.3969C187.417 93.2834 187.61 93.2355 187.798 93.2637L195.651 94.4433C195.83 94.4703 195.993 94.5641 196.106 94.706C196.22 94.8479 196.275 95.0274 196.262 95.2085C196.248 95.3896 196.167 95.559 196.034 95.6826C195.901 95.8063 195.726 95.8752 195.545 95.8754Z" fill="#344900"/>
<path d="M195.545 96.054C195.5 96.054 195.455 96.0506 195.41 96.0439L187.558 94.8643C187.441 94.847 187.328 94.8067 187.227 94.7459C187.125 94.685 187.037 94.6047 186.966 94.5096C186.896 94.4145 186.845 94.3064 186.816 94.1916C186.788 94.0768 186.782 93.9574 186.8 93.8404C186.817 93.7234 186.858 93.6109 186.919 93.5096C186.98 93.4082 187.06 93.3199 187.156 93.2497C187.251 93.1794 187.359 93.1287 187.474 93.1003C187.589 93.0719 187.708 93.0665 187.825 93.0843L195.677 94.2639C195.902 94.2976 196.105 94.4149 196.247 94.5923C196.389 94.7697 196.458 94.9941 196.441 95.2205C196.425 95.4469 196.323 95.6586 196.157 95.8131C195.99 95.9677 195.772 96.0537 195.545 96.054ZM187.691 93.4343C187.555 93.4344 187.424 93.4859 187.324 93.5786C187.224 93.6713 187.163 93.7983 187.153 93.9342C187.143 94.07 187.185 94.2047 187.27 94.3112C187.355 94.4177 187.477 94.4881 187.611 94.5083L195.464 95.6879C195.534 95.6985 195.605 95.6952 195.674 95.6781C195.743 95.6611 195.808 95.6306 195.865 95.5884C195.922 95.5463 195.97 95.4933 196.007 95.4325C196.043 95.3717 196.067 95.3043 196.078 95.2341C196.099 95.0925 196.063 94.9483 195.978 94.8332C195.893 94.718 195.766 94.6413 195.624 94.6199L187.772 93.4403C187.745 93.4363 187.718 93.4343 187.691 93.4343ZM179.882 86.886C179.71 86.8858 179.544 86.8238 179.413 86.7113C179.283 86.5988 179.197 86.4432 179.171 86.2729L177.992 78.4207C177.978 78.3272 177.982 78.2318 178.005 78.1401C178.028 78.0483 178.068 77.9619 178.125 77.8859C178.181 77.8099 178.251 77.7456 178.332 77.6969C178.413 77.6481 178.503 77.6158 178.597 77.6017C178.69 77.5877 178.786 77.5922 178.877 77.615C178.969 77.6378 179.055 77.6785 179.131 77.7347C179.207 77.7908 179.272 77.8614 179.32 77.9425C179.369 78.0235 179.402 78.1133 179.416 78.2068L180.595 86.059C180.61 86.1615 180.603 86.2661 180.575 86.3656C180.546 86.4652 180.496 86.5574 180.428 86.6359C180.361 86.7144 180.277 86.7774 180.183 86.8205C180.088 86.8637 179.986 86.886 179.882 86.886Z" fill="#344900"/>
<path d="M179.882 87.0663C179.667 87.0651 179.46 86.9872 179.297 86.8468C179.134 86.7063 179.026 86.5125 178.993 86.2999L177.814 78.4477C177.778 78.2117 177.838 77.9712 177.98 77.7793C178.122 77.5873 178.334 77.4595 178.57 77.4241C178.806 77.3886 179.046 77.4484 179.238 77.5902C179.43 77.732 179.558 77.9443 179.594 78.1804L180.773 86.0325C180.809 86.2686 180.749 86.5091 180.607 86.701C180.465 86.893 180.253 87.0208 180.017 87.0562C179.972 87.0629 179.927 87.0663 179.882 87.0663ZM178.705 77.7739C178.677 77.7739 178.65 77.776 178.623 77.78C178.553 77.7905 178.486 77.8148 178.425 77.8514C178.364 77.8879 178.311 77.9361 178.269 77.9931C178.227 78.0502 178.197 78.1149 178.18 78.1838C178.163 78.2526 178.159 78.3241 178.17 78.3942L179.349 86.2464C179.36 86.3166 179.384 86.384 179.42 86.4448C179.457 86.5056 179.505 86.5586 179.562 86.6008C179.619 86.6429 179.684 86.6734 179.753 86.6905C179.822 86.7076 179.893 86.7109 179.963 86.7003C180.033 86.6897 180.101 86.6655 180.162 86.6289C180.222 86.5924 180.275 86.5442 180.317 86.4871C180.36 86.4301 180.39 86.3653 180.407 86.2965C180.424 86.2277 180.428 86.1562 180.417 86.086L179.238 78.2339C179.218 78.1062 179.154 77.9896 179.056 77.9053C178.958 77.8209 178.834 77.7743 178.705 77.7739Z" fill="#344900"/>
</g>
<defs>
<clipPath id="clip0_1173_31991">
<rect width="258" height="258" fill="white"/>
</clipPath>
</defs>
</svg>
