<svg width="42" height="46" viewBox="0 0 42 46" fill="none" xmlns="http://www.w3.org/2000/svg">
<path d="M13.8181 24.612C13.8181 28.6417 17.103 31.9267 21.1327 31.9267C25.1624 31.9267 28.4474 28.6417 28.4474 24.612C28.4474 20.5823 25.1624 17.2974 21.1327 17.2974C17.103 17.2974 13.8181 20.5823 13.8181 24.612ZM21.7977 19.678V20.037H23.1675C23.5399 20.037 23.8325 20.3296 23.8325 20.702C23.8325 21.0744 23.5399 21.367 23.1675 21.367H21.7977V23.987C22.2765 24.0934 22.7153 24.3194 23.0611 24.6785C23.5532 25.1706 23.8325 25.8223 23.8325 26.5271C23.8325 27.764 22.968 28.8013 21.7977 29.0673V29.5328C21.7977 29.9052 21.5051 30.1978 21.1327 30.1978C20.7603 30.1978 20.4678 29.9052 20.4678 29.5328V29.1338H19.0979C18.7255 29.1338 18.4329 28.8412 18.4329 28.4689C18.4329 28.0965 18.7255 27.8039 19.0979 27.8039H20.4678V25.1839C19.989 25.0775 19.5501 24.8381 19.2043 24.479C18.7122 24.0003 18.4462 23.3486 18.4462 22.6437C18.4462 21.4069 19.3107 20.3695 20.4811 20.1035V19.678C20.4811 19.5034 20.5504 19.3359 20.6739 19.2125C20.7973 19.089 20.9648 19.0196 21.1394 19.0196C21.314 19.0196 21.4814 19.089 21.6049 19.2125C21.7283 19.3359 21.7977 19.5034 21.7977 19.678Z" fill="#6D9000"/>
<path d="M19.7762 22.6567C19.7762 23.0025 19.9092 23.3217 20.1485 23.5478C20.2416 23.6409 20.3613 23.7074 20.481 23.7738V21.5396C20.0554 21.7523 19.7762 22.1646 19.7762 22.6567ZM22.5025 26.5401C22.5025 26.1943 22.3695 25.8752 22.1302 25.6358C22.0357 25.5484 21.928 25.4766 21.811 25.423V27.6573C22.21 27.4445 22.5025 27.0322 22.5025 26.5401Z" fill="#6D9000"/>
<path d="M9.82827 24.6121C9.82827 30.8495 14.8953 35.9166 21.1328 35.9166C27.3702 35.9166 32.4372 30.8495 32.4372 24.6121C32.4372 18.3747 27.3702 13.3076 21.1328 13.3076C14.8953 13.3076 9.82827 18.388 9.82827 24.6121ZM29.7774 24.6121C29.7774 29.3733 25.8939 33.2567 21.1328 33.2567C16.3716 33.2567 12.4881 29.3733 12.4881 24.6121C12.4881 19.8509 16.3716 15.9675 21.1328 15.9675C25.8939 15.9675 29.7774 19.8509 29.7774 24.6121Z" fill="black"/>
<path d="M36.2807 10.8339C36.0281 10.5546 35.6158 10.5413 35.3365 10.7807C35.0572 11.0201 35.0439 11.4457 35.2833 11.7249C37.1442 13.801 38.5362 16.2534 39.3647 18.9155C40.1931 21.5776 40.4386 24.3868 40.0844 27.1522C40.0046 27.7906 39.8849 28.429 39.7519 29.0541C38.7544 33.4296 36.294 37.2864 32.6899 40.0793C29.2718 42.7332 25.0611 44.1617 20.7338 44.1356C19.9358 44.1356 19.1245 44.0957 18.3133 43.9893C17.6483 43.9095 17.0099 43.7898 16.3716 43.6435C16.2652 43.6169 16.1588 43.577 16.0391 43.5504C15.5204 43.4174 14.9884 43.2844 14.483 43.1115C14.4276 43.0951 14.3741 43.0728 14.3234 43.045C11.0787 41.8985 8.19491 39.9143 5.96438 37.2937C3.73385 34.6731 2.23593 31.5093 1.62253 28.1231C1.62253 28.1098 1.60923 28.0832 1.60923 28.0699C1.51613 27.5246 1.44963 26.966 1.39644 26.3942C1.38314 26.3144 1.36984 26.2213 1.36984 26.1415C1.32994 25.6361 1.32994 25.1174 1.32994 24.5855C1.32994 24.4525 1.31664 24.3195 1.31664 24.1865C1.32994 23.5348 1.38314 22.8831 1.46293 22.2182C2.76627 12.0175 11.7833 4.67626 21.8908 5.27473L17.9675 9.51724C17.7148 9.78323 17.7414 10.2088 18.0074 10.4615C18.1404 10.5812 18.3 10.6344 18.4596 10.6344C18.5519 10.635 18.6433 10.6164 18.728 10.5798C18.8127 10.5431 18.8889 10.4893 18.9516 10.4216L23.8059 5.16834C23.8059 5.16834 23.8059 5.15504 23.8192 5.15504C23.8458 5.12844 23.8591 5.10184 23.8724 5.07524C23.8857 5.04865 23.899 5.02205 23.9123 5.00875C23.9256 4.98215 23.9389 4.96885 23.9522 4.94225C23.9522 4.92895 23.9522 4.91565 23.9655 4.88905C23.9655 4.87575 23.9655 4.86245 23.9788 4.84915C23.9788 4.82256 23.9921 4.80926 23.9921 4.79596V4.70286C23.9921 4.67626 23.9788 4.64966 23.9788 4.62306V4.58317C23.9788 4.55657 23.9788 4.52997 23.9655 4.51667C23.9655 4.50337 23.9522 4.49007 23.9389 4.46347L23.899 4.38368L23.8591 4.30388C23.8591 4.29058 23.8458 4.29058 23.8325 4.29058L23.8059 4.26398C23.7926 4.25068 23.7926 4.23738 23.7793 4.22408C23.766 4.21078 23.7527 4.21078 23.7394 4.19748L23.6995 4.15759L17.5153 0.101271C17.3689 0.00943974 17.1925 -0.0215481 17.0236 0.0149196C16.8546 0.0513873 16.7067 0.152423 16.6112 0.296465C16.5158 0.440508 16.4804 0.61615 16.5126 0.785912C16.5449 0.955674 16.6422 1.10611 16.7838 1.20512L20.8667 3.8783H20.7737C20.4545 3.8783 20.1353 3.9049 19.8028 3.9182C19.5501 3.9315 19.2974 3.9315 19.058 3.9581C18.5926 3.99799 18.1404 4.06449 17.6882 4.13099L17.0897 4.21078C16.4779 4.31718 15.8662 4.46347 15.2677 4.62306C15.2411 4.63636 15.2012 4.63636 15.1746 4.64966C14.5362 4.82256 13.9245 5.03535 13.3127 5.27473C13.1531 5.32793 13.0068 5.40773 12.8605 5.47423C12.4216 5.66042 11.9828 5.84661 11.5439 6.0594C11.3311 6.16579 11.1316 6.28549 10.9321 6.39188C10.573 6.59137 10.2139 6.77757 9.86815 6.99036C9.64206 7.12335 9.42927 7.26964 9.21648 7.41594C8.67097 7.77028 8.14694 8.15664 7.64715 8.57299C7.35456 8.81237 7.07528 9.03846 6.80929 9.29115C6.5965 9.47734 6.39701 9.67683 6.19752 9.86303C5.94483 10.1157 5.67884 10.3817 5.43945 10.6477L4.88088 11.2861C4.64149 11.5653 4.4154 11.8446 4.20261 12.1372C4.02972 12.3633 3.85682 12.5894 3.69723 12.8288C3.48444 13.1347 3.28495 13.4406 3.09876 13.7597L2.65988 14.4779C2.47369 14.8104 2.30079 15.1429 2.1412 15.4887C2.02151 15.7414 1.88851 15.9807 1.78212 16.2334C1.62253 16.5925 1.47623 16.9649 1.34324 17.3506C1.25014 17.59 1.14375 17.8294 1.06395 18.0821C0.917658 18.5076 0.811264 18.9332 0.691569 19.3721C0.638371 19.5849 0.571874 19.7977 0.518677 20.0105C0.207309 21.3592 0.0335275 22.7361 0 24.12C0 24.2397 0.0132997 24.3594 0.0132997 24.4791C0.0132997 25.0509 0.0132993 25.6361 0.0531975 26.208C0.0531975 26.2745 0.0664975 26.341 0.0797969 26.4075C0.412282 30.3574 1.86192 34.1477 4.3489 37.3662C6.83589 40.5846 10.1341 42.9386 13.8713 44.242L14.0708 44.3218C14.6027 44.5079 15.148 44.6542 15.7066 44.7872C15.8396 44.8138 15.9593 44.867 16.079 44.8936C17.6359 45.2544 19.2287 45.4373 20.8268 45.4389C25.4018 45.4389 29.8305 43.9361 33.5012 41.09C37.89 37.6854 40.6961 32.7912 41.401 27.2719C42.1724 21.3404 40.2972 15.3291 36.2807 10.8339Z" fill="#4D6D00"/>
</svg>
