<svg width="18" height="20" viewBox="0 0 18 20" fill="none" xmlns="http://www.w3.org/2000/svg">
<path d="M4.41667 16.6665H3.16667C2.24619 16.6665 1.5 15.9203 1.5 14.9998V3.33317C1.5 2.4127 2.24619 1.6665 3.16667 1.6665H14.8333C15.7538 1.6665 16.5 2.4127 16.5 3.33317V14.9998C16.5 15.9203 15.7538 16.6665 14.8333 16.6665H13.5833M9 15.8332C10.3807 15.8332 11.5 14.7139 11.5 13.3332C11.5 11.9525 10.3807 10.8332 9 10.8332C7.61929 10.8332 6.5 11.9525 6.5 13.3332C6.5 14.7139 7.61929 15.8332 9 15.8332ZM9 15.8332L9.01787 15.833L6.35723 18.4936L4.0002 16.1366L6.51638 13.6204M9 15.8332L11.6607 18.4936L14.0177 16.1366L11.5015 13.6204M6.5 4.99984H11.5M4.83333 7.9165H13.1667" stroke="#2F2E35" stroke-width="1.5" stroke-linecap="round" stroke-linejoin="round"/>
</svg>
