<svg width="20" height="20" viewBox="0 0 20 20" fill="none" xmlns="http://www.w3.org/2000/svg">
<g clip-path="url(#clip0_1677_42421)">
<path d="M4.16669 11.9051C2.62389 12.5857 1.66669 13.5341 1.66669 14.5832C1.66669 16.6542 5.39765 18.3332 10 18.3332C14.6024 18.3332 18.3334 16.6542 18.3334 14.5832C18.3334 13.5341 17.3762 12.5857 15.8334 11.9051M15 6.6665C15 10.0529 11.25 11.6665 10 14.1665C8.75002 11.6665 5.00002 10.0529 5.00002 6.6665C5.00002 3.90508 7.2386 1.6665 10 1.6665C12.7614 1.6665 15 3.90508 15 6.6665ZM10.8334 6.6665C10.8334 7.12674 10.4603 7.49984 10 7.49984C9.53978 7.49984 9.16669 7.12674 9.16669 6.6665C9.16669 6.20627 9.53978 5.83317 10 5.83317C10.4603 5.83317 10.8334 6.20627 10.8334 6.6665Z" stroke="#4D6D00" stroke-width="2" stroke-linecap="round" stroke-linejoin="round"/>
</g>
<defs>
<clipPath id="clip0_1677_42421">
<rect width="20" height="20" fill="white"/>
</clipPath>
</defs>
</svg>
