<svg width="20" height="20" viewBox="0 0 20 20" fill="none" xmlns="http://www.w3.org/2000/svg">
<path d="M6.20833 9.5C6.06467 9.5 5.9269 9.55597 5.82532 9.6556C5.72374 9.75523 5.66667 9.89035 5.66667 10.0312C5.66667 10.1721 5.72374 10.3073 5.82532 10.4069C5.9269 10.5065 6.06467 10.5625 6.20833 10.5625H13.7917C13.9353 10.5625 14.0731 10.5065 14.1747 10.4069C14.2763 10.3073 14.3333 10.1721 14.3333 10.0312C14.3333 9.89035 14.2763 9.75523 14.1747 9.6556C14.0731 9.55597 13.9353 9.5 13.7917 9.5H6.20833ZM6.20833 11.625C6.06467 11.625 5.9269 11.681 5.82532 11.7806C5.72374 11.8802 5.66667 12.0154 5.66667 12.1562C5.66667 12.2971 5.72374 12.4323 5.82532 12.5319C5.9269 12.6315 6.06467 12.6875 6.20833 12.6875H13.7917C13.9353 12.6875 14.0731 12.6315 14.1747 12.5319C14.2763 12.4323 14.3333 12.2971 14.3333 12.1562C14.3333 12.0154 14.2763 11.8802 14.1747 11.7806C14.0731 11.681 13.9353 11.625 13.7917 11.625H6.20833ZM6.20833 13.75C6.06467 13.75 5.9269 13.806 5.82532 13.9056C5.72374 14.0052 5.66667 14.1404 5.66667 14.2812C5.66667 14.4221 5.72374 14.5573 5.82532 14.6569C5.9269 14.7565 6.06467 14.8125 6.20833 14.8125H13.7917C13.9353 14.8125 14.0731 14.7565 14.1747 14.6569C14.2763 14.5573 14.3333 14.4221 14.3333 14.2812C14.3333 14.1404 14.2763 14.0052 14.1747 13.9056C14.0731 13.806 13.9353 13.75 13.7917 13.75H6.20833ZM3.5 3.125C3.5 2.56141 3.72827 2.02091 4.1346 1.6224C4.54093 1.22388 5.09203 1 5.66667 1H10.6348C11.0657 1.00037 11.4787 1.16853 11.7832 1.4675L16.0244 5.62613C16.3289 5.9249 16.4999 6.32998 16.5 6.75238V15.875C16.5 16.4386 16.2717 16.9791 15.8654 17.3776C15.4591 17.7761 14.908 18 14.3333 18H5.66667C5.09203 18 4.54093 17.7761 4.1346 17.3776C3.72827 16.9791 3.5 16.4386 3.5 15.875V3.125ZM5.66667 2.0625C5.37935 2.0625 5.1038 2.17444 4.90063 2.3737C4.69747 2.57296 4.58333 2.84321 4.58333 3.125V15.875C4.58333 16.1568 4.69747 16.427 4.90063 16.6263C5.1038 16.8256 5.37935 16.9375 5.66667 16.9375H14.3333C14.6207 16.9375 14.8962 16.8256 15.0994 16.6263C15.3025 16.427 15.4167 16.1568 15.4167 15.875V7.375H11.625C11.194 7.375 10.7807 7.20709 10.476 6.9082C10.1712 6.60932 10 6.20394 10 5.78125V2.0625H5.66667ZM11.625 6.3125H15.1924L11.0833 2.28244V5.78125C11.0833 5.92215 11.1404 6.05727 11.242 6.1569C11.3436 6.25653 11.4813 6.3125 11.625 6.3125Z" fill="black" stroke="black" stroke-width="0.25"/>
</svg>
