<svg width="20" height="20" viewBox="0 0 20 20" fill="none" xmlns="http://www.w3.org/2000/svg">
<path d="M11.6667 1.89111V5.33323C11.6667 5.79994 11.6667 6.0333 11.7575 6.21156C11.8374 6.36836 11.9649 6.49584 12.1217 6.57574C12.3 6.66656 12.5333 6.66656 13 6.66656H16.4422M6.66671 12.4998V14.9998M13.3334 10.8332V14.9998M10 8.74984V14.9998M16.6667 8.32336V14.3332C16.6667 15.7333 16.6667 16.4334 16.3942 16.9681C16.1545 17.4386 15.7721 17.821 15.3017 18.0607C14.7669 18.3332 14.0668 18.3332 12.6667 18.3332H7.33337C5.93324 18.3332 5.23318 18.3332 4.6984 18.0607C4.22799 17.821 3.84554 17.4386 3.60586 16.9681C3.33337 16.4334 3.33337 15.7333 3.33337 14.3332V5.6665C3.33337 4.26637 3.33337 3.56631 3.60586 3.03153C3.84554 2.56112 4.22799 2.17867 4.6984 1.93899C5.23318 1.6665 5.93324 1.6665 7.33337 1.6665H10.0099C10.6213 1.6665 10.9271 1.6665 11.2148 1.73558C11.4699 1.79682 11.7137 1.89783 11.9374 2.0349C12.1897 2.18951 12.4059 2.4057 12.8383 2.83808L15.4951 5.49493C15.9275 5.92731 16.1437 6.1435 16.2983 6.39579C16.4354 6.61947 16.5364 6.86333 16.5976 7.11842C16.6667 7.40614 16.6667 7.71188 16.6667 8.32336Z" stroke="#2F2E35" stroke-width="1.5" stroke-linecap="round" stroke-linejoin="round"/>
</svg>
