<svg width="20" height="20" viewBox="0 0 20 20" fill="none" xmlns="http://www.w3.org/2000/svg">
<path d="M13.3334 3.33317C14.1084 3.33317 14.4958 3.33317 14.8138 3.41836C15.6765 3.64952 16.3504 4.32339 16.5815 5.18612C16.6667 5.50404 16.6667 5.89153 16.6667 6.6665V14.3332C16.6667 15.7333 16.6667 16.4334 16.3942 16.9681C16.1545 17.4386 15.7721 17.821 15.3017 18.0607C14.7669 18.3332 14.0668 18.3332 12.6667 18.3332H7.33337C5.93324 18.3332 5.23318 18.3332 4.6984 18.0607C4.22799 17.821 3.84554 17.4386 3.60586 16.9681C3.33337 16.4334 3.33337 15.7333 3.33337 14.3332V6.6665C3.33337 5.89153 3.33337 5.50404 3.41856 5.18612C3.64973 4.32339 4.3236 3.64952 5.18633 3.41836C5.50424 3.33317 5.89173 3.33317 6.66671 3.33317M7.50004 12.4998L9.16671 14.1665L12.9167 10.4165M8.00004 4.99984H12C12.4668 4.99984 12.7001 4.99984 12.8784 4.90901C13.0352 4.82912 13.1627 4.70163 13.2425 4.54483C13.3334 4.36657 13.3334 4.13321 13.3334 3.6665V2.99984C13.3334 2.53313 13.3334 2.29977 13.2425 2.12151C13.1627 1.96471 13.0352 1.83723 12.8784 1.75733C12.7001 1.6665 12.4668 1.6665 12 1.6665H8.00004C7.53333 1.6665 7.29997 1.6665 7.12172 1.75733C6.96491 1.83723 6.83743 1.96471 6.75754 2.12151C6.66671 2.29977 6.66671 2.53313 6.66671 2.99984V3.6665C6.66671 4.13321 6.66671 4.36657 6.75754 4.54483C6.83743 4.70163 6.96491 4.82912 7.12172 4.90901C7.29997 4.99984 7.53333 4.99984 8.00004 4.99984Z" stroke="#2F2E35" stroke-width="1.5" stroke-linecap="round" stroke-linejoin="round"/>
</svg>
