<svg width="20" height="20" viewBox="0 0 20 20" fill="none" xmlns="http://www.w3.org/2000/svg">
<path d="M4.99996 9.16683V12.5002M15 7.50016V10.8335M14.1666 3.3335C16.2072 3.3335 17.3109 3.6458 17.8601 3.88803C17.9332 3.92029 17.9698 3.93642 18.0753 4.03714C18.1386 4.09751 18.254 4.27466 18.2837 4.3569C18.3333 4.49411 18.3333 4.56911 18.3333 4.71911V13.6761C18.3333 14.4334 18.3333 14.8121 18.2197 15.0067C18.1042 15.2047 17.9928 15.2967 17.7766 15.3728C17.564 15.4476 17.1349 15.3652 16.2768 15.2003C15.6761 15.0849 14.9637 15.0002 14.1666 15.0002C11.6666 15.0002 9.16663 16.6668 5.83329 16.6668C3.7927 16.6668 2.68901 16.3545 2.13986 16.1123C2.06673 16.08 2.03016 16.0639 1.92463 15.9632C1.86136 15.9028 1.74589 15.7257 1.71618 15.6434C1.66663 15.5062 1.66663 15.4312 1.66663 15.2812L1.66663 6.32421C1.66663 5.5669 1.66663 5.18825 1.78019 4.99362C1.89571 4.79563 2.00712 4.70359 2.22334 4.62751C2.43591 4.55271 2.86499 4.63515 3.72315 4.80004C4.32381 4.91545 5.03619 5.00016 5.83329 5.00016C8.33329 5.00016 10.8333 3.3335 14.1666 3.3335ZM12.0833 10.0002C12.0833 11.1508 11.1506 12.0835 9.99996 12.0835C8.84937 12.0835 7.91663 11.1508 7.91663 10.0002C7.91663 8.84957 8.84937 7.91683 9.99996 7.91683C11.1506 7.91683 12.0833 8.84957 12.0833 10.0002Z" stroke="#2F2E35" stroke-width="1.5" stroke-linecap="round" stroke-linejoin="round"/>
</svg>
