<svg xmlns="http://www.w3.org/2000/svg" width="40" height="40" viewBox="0 0 40 40" fill="none">
  <path d="M9.4375 38.5621L7.5625 39.9996L1.3125 31.6246L3.1875 30.1871C3.6875 29.8121 4.5 29.9371 4.875 30.4371L9.4375 36.5621L9.6875 36.8746C10.125 37.4371 10 38.1871 9.4375 38.5621ZM30.5 29.3746C28.625 30.9371 26.4375 32.3121 24.0625 33.5621C22.6875 34.2496 21.125 34.6871 19.5625 34.6871L12.5 34.8746C12.3125 34.8746 12.0625 34.9371 11.8125 34.9996L10.25 35.4996L6.0625 29.9371L6.9375 28.6871C7.5625 27.8746 8.375 27.1871 9.5625 26.3746C11.1875 25.3746 13.25 25.5621 14.625 26.8746C15.3125 27.4996 16.125 27.8746 17.0625 27.8746H20C20.625 27.8746 21.1875 28.4371 21.1875 29.1246C21.1875 29.4371 21.0625 29.6871 20.9375 29.8746C20.6875 30.1871 20.375 30.3121 20 30.3121H16.4375C16.0625 30.3121 15.8125 30.5621 15.8125 30.9371C15.8125 31.3121 16.0625 31.5621 16.4375 31.5621H20C20.6875 31.5621 21.3125 31.3121 21.8125 30.8121C24.4375 30.1871 26.4375 29.4371 28 28.4996C28.8125 27.9996 29.875 28.0621 30.5625 28.6871C30.6875 28.8121 30.6875 28.9371 30.6875 28.9996C30.625 29.1871 30.5625 29.3121 30.5 29.3746Z" fill="#4D6D00"/>
  <path d="M30.9375 9.4375C32.0625 8.625 33.25 8.0625 34.4375 7.75V1.4375H29.625C24.375 1.4375 19.875 5 18.6875 10L17 16.8125C17.75 16.75 18.5 16.3125 18.8125 15.5625C19.5 14.0625 20 12.875 20.25 12.125C20.6875 10.9375 21.375 9.8125 22.3125 8.875C23 8.1875 24.3125 8.25 24.9375 9C25.25 9.375 25.375 9.875 25.3125 10.375V10.4375C25.25 10.875 25 11.3125 24.5625 11.5625L21.5625 13.5625L21.4375 13.6875C21.1875 13.9375 21.25 14.1875 21.3125 14.375C21.5 14.75 21.9375 14.875 22.3125 14.6875C22.9375 14.375 23.5625 14.125 24.1875 14C26.25 13.625 28.4375 12.125 30.8125 9.5C30.875 9.5 30.875 9.4375 30.9375 9.4375Z" fill="black"/>
  <path d="M36.9375 9.0625H38.6875V0H36.9375C36.25 0 35.6875 0.5625 35.6875 1.25V7.8125C35.6875 8.5 36.25 9.0625 36.9375 9.0625Z" fill="black"/>
  <path d="M27.125 18.9375C27.125 20.75 26 22.3125 24.4375 23V27C24.4375 27.375 24.125 27.625 23.8125 27.625C23.4375 27.625 23.1875 27.3125 23.1875 27V23.3125H22.3125V25.0625C22.3125 25.4375 22 25.6875 21.6875 25.6875C21.3125 25.6875 21.0625 25.375 21.0625 25.0625V22.9375C19.5 22.25 18.375 20.6875 18.375 18.875C18.375 18.4375 18.4375 18 18.5625 17.625C19.125 17.25 19.625 16.75 19.9375 16.125C20.0625 15.875 20.1875 15.5625 20.3125 15.3125C20.375 15.3125 20.375 15.25 20.4375 15.25C20.8125 15.75 21.375 16.0625 22 16.0625C22.3125 16.0625 22.6875 15.9375 22.9375 15.8125C23.4375 15.5 23.9375 15.3125 24.4375 15.25C24.625 15.1875 24.75 15.1875 24.9375 15.125C26.25 15.875 27.125 17.3125 27.125 18.9375Z" fill="#8DB300"/>
</svg>