<svg width="76" height="64" viewBox="0 0 76 64" fill="none" xmlns="http://www.w3.org/2000/svg">
<path d="M66.6821 11.6545H42.7462C41.7745 11.6545 40.8255 11.2556 40.1701 10.5775L32.7016 2.71C30.9064 0.920525 28.4502 -0.0141653 25.9625 0.000162271H9.69197C4.55428 1.45641e-05 0.374023 4.18027 0.374023 9.31782V54.6821C0.374023 59.8197 4.55428 64 9.69197 64H66.7249C71.8598 63.9773 76.0229 59.7771 76 54.6535V20.9723C76 15.8347 71.8198 11.6545 66.6821 11.6545ZM70.3011 54.6651C70.3096 56.6597 68.694 58.2925 66.7107 58.301H9.69197C7.69734 58.301 6.07315 56.6768 6.07315 54.6822V9.31782C6.07315 7.32318 7.69734 5.699 9.69197 5.69604H26.1307C27.0824 5.69604 28.0057 6.07506 28.6268 6.69055L36.0555 14.5209C37.7993 16.3218 40.2385 17.3534 42.7462 17.3534H66.6821C68.6767 17.3534 70.3009 18.9776 70.3009 20.9722L70.3011 54.6651Z" fill="#8D97A5"/>
<path d="M36.419 43.2555C36.4338 44.223 37.224 44.9984 38.1915 44.9984C39.159 44.9984 39.9492 44.2156 39.964 43.2555L40.5548 27.3326C40.5918 26.727 40.3702 26.1361 39.9419 25.6782C39.484 25.1908 38.8488 24.9102 38.1915 24.9102C37.5342 24.9102 36.8991 25.1908 36.4412 25.6782C36.0128 26.1361 35.7913 26.727 35.8282 27.3326L36.419 43.2555Z" fill="#8D97A5"/>
<path d="M38.1924 53.2696C39.4977 53.2696 40.5558 52.2115 40.5558 50.9063C40.5558 49.6011 39.4977 48.543 38.1924 48.543C36.8872 48.543 35.8291 49.6011 35.8291 50.9063C35.8291 52.2115 36.8872 53.2696 38.1924 53.2696Z" fill="#8D97A5"/>
</svg>
