<svg width="14" height="19" viewBox="0 0 14 19" fill="none" xmlns="http://www.w3.org/2000/svg">
<path d="M3.20833 9.5C3.06467 9.5 2.9269 9.55597 2.82532 9.6556C2.72374 9.75523 2.66667 9.89035 2.66667 10.0312C2.66667 10.1721 2.72374 10.3073 2.82532 10.4069C2.9269 10.5065 3.06467 10.5625 3.20833 10.5625H10.7917C10.9353 10.5625 11.0731 10.5065 11.1747 10.4069C11.2763 10.3073 11.3333 10.1721 11.3333 10.0312C11.3333 9.89035 11.2763 9.75523 11.1747 9.6556C11.0731 9.55597 10.9353 9.5 10.7917 9.5H3.20833ZM3.20833 11.625C3.06467 11.625 2.9269 11.681 2.82532 11.7806C2.72374 11.8802 2.66667 12.0154 2.66667 12.1562C2.66667 12.2971 2.72374 12.4323 2.82532 12.5319C2.9269 12.6315 3.06467 12.6875 3.20833 12.6875H10.7917C10.9353 12.6875 11.0731 12.6315 11.1747 12.5319C11.2763 12.4323 11.3333 12.2971 11.3333 12.1562C11.3333 12.0154 11.2763 11.8802 11.1747 11.7806C11.0731 11.681 10.9353 11.625 10.7917 11.625H3.20833ZM3.20833 13.75C3.06467 13.75 2.9269 13.806 2.82532 13.9056C2.72374 14.0052 2.66667 14.1404 2.66667 14.2812C2.66667 14.4221 2.72374 14.5573 2.82532 14.6569C2.9269 14.7565 3.06467 14.8125 3.20833 14.8125H10.7917C10.9353 14.8125 11.0731 14.7565 11.1747 14.6569C11.2763 14.5573 11.3333 14.4221 11.3333 14.2812C11.3333 14.1404 11.2763 14.0052 11.1747 13.9056C11.0731 13.806 10.9353 13.75 10.7917 13.75H3.20833ZM0.5 3.125C0.5 2.56141 0.728273 2.02091 1.1346 1.6224C1.54093 1.22388 2.09203 1 2.66667 1H7.63483C8.06567 1.00037 8.47871 1.16853 8.78317 1.4675L13.0244 5.62613C13.3289 5.9249 13.4999 6.32998 13.5 6.75238V15.875C13.5 16.4386 13.2717 16.9791 12.8654 17.3776C12.4591 17.7761 11.908 18 11.3333 18H2.66667C2.09203 18 1.54093 17.7761 1.1346 17.3776C0.728273 16.9791 0.5 16.4386 0.5 15.875V3.125ZM2.66667 2.0625C2.37935 2.0625 2.1038 2.17444 1.90063 2.3737C1.69747 2.57296 1.58333 2.84321 1.58333 3.125V15.875C1.58333 16.1568 1.69747 16.427 1.90063 16.6263C2.1038 16.8256 2.37935 16.9375 2.66667 16.9375H11.3333C11.6207 16.9375 11.8962 16.8256 12.0994 16.6263C12.3025 16.427 12.4167 16.1568 12.4167 15.875V7.375H8.625C8.19402 7.375 7.7807 7.20709 7.47595 6.9082C7.17121 6.60932 7 6.20394 7 5.78125V2.0625H2.66667ZM8.625 6.3125H12.1924L8.08333 2.28244V5.78125C8.08333 5.92215 8.1404 6.05727 8.24198 6.1569C8.34357 6.25653 8.48134 6.3125 8.625 6.3125Z" fill="black" stroke="black" stroke-width="0.25"/>
</svg>
