<svg width="19" height="36" viewBox="0 0 19 36" fill="none" xmlns="http://www.w3.org/2000/svg">
<mask id="path-1-inside-1_325_91" fill="white">
<path d="M18.0996 35.9873V35.9873C8.17618 35.9873 0.101933 27.9428 0.101933 18.0194V18.0194C0.101933 8.09593 8.17618 0.0514069 18.0996 0.0514069V0.0514069V35.9873Z"/>
</mask>
<path d="M18.0996 35.9873V35.9873C8.17618 35.9873 0.101933 27.9428 0.101933 18.0194V18.0194C0.101933 8.09593 8.17618 0.0514069 18.0996 0.0514069V0.0514069V35.9873Z" fill="white"/>
<path d="M18.0996 36.9873H18.0699C7.59417 36.9873 -0.898067 28.4951 -0.898067 18.0194H1.10193C1.10193 27.3905 8.69874 34.9873 18.0699 34.9873H18.0996V36.9873ZM-0.898067 18.0194C-0.898067 7.54365 7.59417 -0.948593 18.0699 -0.948593H18.0996V1.05141H18.0699C8.69874 1.05141 1.10193 8.64822 1.10193 18.0194H-0.898067ZM18.0996 0.0514069V35.9873V0.0514069ZM18.0699 36.9873C7.59417 36.9873 -0.898067 28.4951 -0.898067 18.0194C-0.898067 7.54365 7.59417 -0.948593 18.0699 -0.948593V1.05141C8.69874 1.05141 1.10193 8.64822 1.10193 18.0194C1.10193 27.3905 8.69874 34.9873 18.0699 34.9873V36.9873Z" fill="#D1D5DB" mask="url(#path-1-inside-1_325_91)"/>
<path fill-rule="evenodd" clip-rule="evenodd" d="M10 19C9.44772 19 9 19.4477 9 20C9 20.5523 9.44772 21 10 21H13.5858L8.29289 26.2929C7.90237 26.6834 7.90237 27.3166 8.29289 27.7071C8.68342 28.0976 9.31658 28.0976 9.70711 27.7071L15 22.4142V26C15 26.5523 15.4477 27 16 27C16.5523 27 17 26.5523 17 26V20C17 19.4477 16.5523 19 16 19H10Z" fill="black"/>
</svg>
