<svg width="19" height="36" viewBox="0 0 19 36" fill="none" xmlns="http://www.w3.org/2000/svg">
<mask id="path-1-inside-1_361_1268" fill="white">
<path d="M18 36V36C8.05887 36 0 27.9411 0 18V18C0 8.05887 8.05887 0 18 0V0V36Z"/>
</mask>
<path d="M18 36V36C8.05887 36 0 27.9411 0 18V18C0 8.05887 8.05887 0 18 0V0V36Z" fill="white"/>
<path d="M18 37C7.50659 37 -1 28.4934 -1 18H1C1 27.3888 8.61116 35 18 35V37ZM-1 18C-1 7.50659 7.50659 -1 18 -1V1C8.61116 1 1 8.61116 1 18H-1ZM18 0V36V0ZM18 37C7.50659 37 -1 28.4934 -1 18C-1 7.50659 7.50659 -1 18 -1V1C8.61116 1 1 8.61116 1 18C1 27.3888 8.61116 35 18 35V37Z" fill="#D1D5DB" mask="url(#path-1-inside-1_361_1268)"/>
<path fill-rule="evenodd" clip-rule="evenodd" d="M9.89895 18.9844C9.34667 18.9844 8.89895 19.4322 8.89895 19.9844C8.89895 20.5367 9.34667 20.9844 9.89895 20.9844H13.4883L8.19113 26.2904C7.80093 26.6813 7.80146 27.3144 8.1923 27.7046C8.58315 28.0948 9.21631 28.0943 9.60652 27.7035L14.8997 22.4015V25.9951C14.8997 26.5474 15.3474 26.9951 15.8997 26.9951C16.452 26.9951 16.8997 26.5474 16.8997 25.9951V19.9844C16.8997 19.4322 16.452 18.9844 15.8997 18.9844H9.89895Z" fill="black"/>
<rect x="18" width="1" height="36" fill="white"/>
</svg>
