<svg width="13" height="15" viewBox="0 0 13 15" fill="none" xmlns="http://www.w3.org/2000/svg">
<path d="M7.83334 1.01318V3.76688C7.83334 4.14025 7.83334 4.32693 7.906 4.46954C7.96992 4.59498 8.0719 4.69697 8.19734 4.76088C8.33995 4.83354 8.52664 4.83354 8.9 4.83354H11.6537M4.5 10.1668L5.83334 11.5002L8.83334 8.50016M7.83334 0.833496H4.36667C3.24657 0.833496 2.68651 0.833496 2.25869 1.05148C1.88237 1.24323 1.57641 1.54919 1.38466 1.92552C1.16667 2.35334 1.16667 2.91339 1.16667 4.0335V10.9668C1.16667 12.0869 1.16667 12.647 1.38466 13.0748C1.57641 13.4511 1.88237 13.7571 2.25869 13.9488C2.68651 14.1668 3.24657 14.1668 4.36667 14.1668H8.63334C9.75344 14.1668 10.3135 14.1668 10.7413 13.9488C11.1176 13.7571 11.4236 13.4511 11.6154 13.0748C11.8333 12.647 11.8333 12.0869 11.8333 10.9668V4.8335L7.83334 0.833496Z" stroke="#41BD00" stroke-width="1.5" stroke-linecap="round" stroke-linejoin="round"/>
</svg>
