<svg width="14" height="15" viewBox="0 0 14 15" fill="none" xmlns="http://www.w3.org/2000/svg">
<path d="M8.33334 1.01318V3.76688C8.33334 4.14025 8.33334 4.32693 8.406 4.46954C8.46992 4.59498 8.5719 4.69697 8.69734 4.76088C8.83995 4.83354 9.02664 4.83354 9.4 4.83354H12.1537M5 10.1668L6.33334 11.5002L9.33334 8.50016M8.33334 0.833496H4.86667C3.74657 0.833496 3.18651 0.833496 2.75869 1.05148C2.38237 1.24323 2.07641 1.54919 1.88466 1.92552C1.66667 2.35334 1.66667 2.91339 1.66667 4.0335V10.9668C1.66667 12.0869 1.66667 12.647 1.88466 13.0748C2.07641 13.4511 2.38237 13.7571 2.75869 13.9488C3.18651 14.1668 3.74657 14.1668 4.86667 14.1668H9.13334C10.2534 14.1668 10.8135 14.1668 11.2413 13.9488C11.6176 13.7571 11.9236 13.4511 12.1154 13.0748C12.3333 12.647 12.3333 12.0869 12.3333 10.9668V4.8335L8.33334 0.833496Z" stroke="#6F6F6F" stroke-width="1.5" stroke-linecap="round" stroke-linejoin="round"/>
</svg>
