<svg xmlns="http://www.w3.org/2000/svg" width="40" height="40" viewBox="0 0 40 40" fill="none">
  <g clip-path="url(#clip0_846_24764)">
    <path d="M28.9355 3.17383C28.9355 3.00807 29.0014 2.8491 29.1186 2.73189C29.2358 2.61468 29.3948 2.54883 29.5605 2.54883H36.2402C36.406 2.54883 36.565 2.61468 36.6822 2.73189C36.7994 2.8491 36.8652 3.00807 36.8652 3.17383C36.8652 3.33959 36.7994 3.49856 36.6822 3.61577C36.565 3.73298 36.406 3.79883 36.2402 3.79883H29.5605C29.3948 3.79883 29.2358 3.73298 29.1186 3.61577C29.0014 3.49856 28.9355 3.33959 28.9355 3.17383ZM29.5605 12.212H36.2402C36.406 12.212 36.565 12.1461 36.6822 12.0289C36.7994 11.9117 36.8652 11.7527 36.8652 11.587C36.8652 11.4212 36.7994 11.2622 36.6822 11.145C36.565 11.0278 36.406 10.962 36.2402 10.962H29.5605C29.3948 10.962 29.2358 11.0278 29.1186 11.145C29.0014 11.2622 28.9355 11.4212 28.9355 11.587C28.9355 11.7527 29.0014 11.9117 29.1186 12.0289C29.2358 12.1461 29.3948 12.212 29.5605 12.212ZM29.5605 20.625H36.2402C36.406 20.625 36.565 20.5592 36.6822 20.4419C36.7994 20.3247 36.8652 20.1658 36.8652 20C36.8652 19.8342 36.7994 19.6753 36.6822 19.5581C36.565 19.4408 36.406 19.375 36.2402 19.375H29.5605C29.3948 19.375 29.2358 19.4408 29.1186 19.5581C29.0014 19.6753 28.9355 19.8342 28.9355 20C28.9355 20.1658 29.0014 20.3247 29.1186 20.4419C29.2358 20.5592 29.3948 20.625 29.5605 20.625ZM29.5605 29.0381H36.2402C36.406 29.0381 36.565 28.9723 36.6822 28.8551C36.7994 28.7379 36.8652 28.5789 36.8652 28.4131C36.8652 28.2474 36.7994 28.0884 36.6822 27.9712C36.565 27.854 36.406 27.7881 36.2402 27.7881H29.5605C29.3948 27.7881 29.2358 27.854 29.1186 27.9712C29.0014 28.0884 28.9355 28.2474 28.9355 28.4131C28.9355 28.5789 29.0014 28.7379 29.1186 28.8551C29.2358 28.9723 29.3948 29.0381 29.5605 29.0381ZM29.5605 37.4512H36.2402C36.406 37.4512 36.565 37.3853 36.6822 37.2681C36.7994 37.1509 36.8652 36.9919 36.8652 36.8262C36.8652 36.6604 36.7994 36.5014 36.6822 36.3842C36.565 36.267 36.406 36.2012 36.2402 36.2012H29.5605C29.3948 36.2012 29.2358 36.267 29.1186 36.3842C29.0014 36.5014 28.9355 36.6604 28.9355 36.8262C28.9355 36.9919 29.0014 37.1509 29.1186 37.2681C29.2358 37.3853 29.3948 37.4512 29.5605 37.4512ZM25.8009 5.03781V3.79883H10.4985V10.1364C12.8313 10.2829 14.9467 11.2428 16.5639 12.7355L17.2779 11.3075C17.3298 11.2037 17.4096 11.1164 17.5083 11.0554C17.607 10.9944 17.7208 10.962 17.8369 10.962H25.8008V9.72297C25.8008 9.00078 26.3884 8.4132 27.1105 8.4132H38.6902C39.4123 8.4132 40 9.00078 40 9.72297V13.4511C40 14.1733 39.4124 14.7609 38.6902 14.7609H27.1106C26.3884 14.7609 25.8009 14.1733 25.8009 13.4511V12.2121H18.2232L17.4791 13.7004C18.7725 15.2619 19.5947 17.2266 19.7273 19.3751H25.8009V18.1361C25.8009 17.4139 26.3884 16.8263 27.1106 16.8263H38.6902C39.4124 16.8263 40.0001 17.4139 40.0001 18.1361V21.8642C40.0001 22.5864 39.4125 23.174 38.6902 23.174H27.1106C26.3884 23.174 25.8009 22.5864 25.8009 21.8642V20.625H19.7259C19.575 22.9886 18.5891 25.1286 17.0601 26.7523L18.0958 27.7881H25.8009V26.5491C25.8009 25.827 26.3884 25.2394 27.1106 25.2394H38.6902C39.4124 25.2394 40.0001 25.827 40.0001 26.5491V30.2773C40.0001 30.9995 39.4125 31.587 38.6902 31.587H27.1106C26.3884 31.587 25.8009 30.9995 25.8009 30.2773V29.0382H17.837C17.6712 29.0382 17.5122 28.9724 17.395 28.8552L16.1476 27.6077C14.5912 28.8918 12.6359 29.7084 10.4985 29.8426V36.2012H25.8009V34.9622C25.8009 34.24 26.3884 33.6523 27.1106 33.6523H38.6902C39.4124 33.6523 40.0001 34.2399 40.0001 34.9622V38.6903C40.0001 39.4125 39.4125 40.0001 38.6902 40.0001H27.1106C26.3884 40.0001 25.8009 39.4125 25.8009 38.6903V37.4513H9.87352C9.70776 37.4513 9.54878 37.3854 9.43157 37.2682C9.31436 37.151 9.24852 36.992 9.24852 36.8263V29.8427C4.09437 29.519 0 25.2238 0 19.9895C0 14.7552 4.09437 10.4599 9.24852 10.1364V3.17383C9.24852 3.00807 9.31436 2.8491 9.43157 2.73189C9.54878 2.61468 9.70776 2.54883 9.87352 2.54883H25.8009V1.30977C25.8009 0.587578 26.3884 0 27.1106 0H38.6902C39.4124 0 40 0.587578 40 1.30977V5.03789C40 5.76008 39.4124 6.34773 38.6902 6.34773H27.1106C26.3884 6.34766 25.8009 5.76008 25.8009 5.03781ZM27.0509 38.6902C27.0509 38.7215 27.0793 38.75 27.1106 38.75H38.6902C38.7215 38.75 38.7501 38.7216 38.7501 38.6902V34.9621C38.7501 34.9309 38.7216 34.9023 38.6902 34.9023H27.1106C27.0794 34.9023 27.0509 34.9308 27.0509 34.9621V38.6902ZM27.0509 30.2772C27.0509 30.3084 27.0793 30.337 27.1106 30.337H38.6902C38.7215 30.337 38.7501 30.3085 38.7501 30.2772V26.5491C38.7501 26.5178 38.7216 26.4893 38.6902 26.4893H27.1106C27.0794 26.4893 27.0509 26.5177 27.0509 26.5491V30.2772ZM27.0509 21.8641C27.0509 21.8953 27.0793 21.9238 27.1106 21.9238H38.6902C38.7215 21.9238 38.7501 21.8954 38.7501 21.8641V18.1359C38.7501 18.1047 38.7216 18.0762 38.6902 18.0762H27.1106C27.0794 18.0762 27.0509 18.1046 27.0509 18.1359V21.8641ZM27.0509 13.451C27.0509 13.4823 27.0793 13.5108 27.1106 13.5108H38.6902C38.7215 13.5108 38.7501 13.4823 38.7501 13.451V9.72289C38.7501 9.69164 38.7216 9.66313 38.6902 9.66313H27.1106C27.0794 9.66313 27.0509 9.69156 27.0509 9.72289V13.451ZM9.87344 11.366C5.11852 11.366 1.25 15.2345 1.25 19.9895C1.25 24.7444 5.11852 28.6129 9.87344 28.6129C14.6284 28.6129 18.497 24.7444 18.497 19.9895C18.497 15.2345 14.6284 11.366 9.87344 11.366ZM27.0509 5.03781C27.0509 5.06906 27.0793 5.09766 27.1106 5.09766H38.6902C38.7215 5.09766 38.7501 5.06914 38.7501 5.03781V1.30969C38.7501 1.27844 38.7216 1.24992 38.6902 1.24992H27.1106C27.0794 1.24992 27.0509 1.27836 27.0509 1.30969V5.03781ZM9.24852 24.0283V24.4584C9.24852 24.6242 9.31436 24.7832 9.43157 24.9004C9.54878 25.0176 9.70776 25.0834 9.87352 25.0834C10.0393 25.0834 10.1982 25.0176 10.3155 24.9004C10.4327 24.7832 10.4985 24.6242 10.4985 24.4584V24.0381C11.237 23.9227 11.8827 23.6016 12.2846 23.137C12.6592 22.7038 12.8191 22.1611 12.7471 21.5673C12.602 20.3717 11.6713 19.6249 9.98125 19.3473C8.50688 19.1052 8.47852 18.5188 8.46773 18.298C8.43664 17.657 8.96836 17.3055 9.47641 17.1902C10.169 17.0331 11.025 17.2493 11.3764 18.0861C11.4082 18.1618 11.4546 18.2304 11.5129 18.2882C11.5712 18.3459 11.6403 18.3916 11.7163 18.4227C11.7923 18.4537 11.8737 18.4695 11.9557 18.4691C12.0378 18.4687 12.119 18.4521 12.1947 18.4203C12.2704 18.3885 12.339 18.3422 12.3968 18.2838C12.4545 18.2255 12.5002 18.1564 12.5313 18.0804C12.5623 18.0044 12.5781 17.9231 12.5777 17.841C12.5773 17.7589 12.5607 17.6777 12.5289 17.602C12.1195 16.6271 11.3245 16.1184 10.4985 15.9552V15.5205C10.4985 15.3548 10.4327 15.1958 10.3155 15.0786C10.1982 14.9614 10.0393 14.8955 9.87352 14.8955C9.70776 14.8955 9.54878 14.9614 9.43157 15.0786C9.31436 15.1958 9.24852 15.3548 9.24852 15.5205V15.9606C9.23227 15.9641 9.21602 15.9676 9.19992 15.9713C7.95953 16.2526 7.16359 17.212 7.21922 18.3587C7.25938 19.1872 7.73602 20.2453 9.77867 20.5808C11.2161 20.8168 11.457 21.3125 11.5063 21.718C11.5359 21.9621 11.4827 22.1532 11.3391 22.3192C11.0803 22.6184 10.5354 22.8207 9.95078 22.8347C9.27906 22.8528 8.42258 22.5731 8.21437 21.738C8.17427 21.5771 8.07192 21.4388 7.92983 21.3534C7.78774 21.2681 7.61756 21.2426 7.45672 21.2827C7.29588 21.3228 7.15756 21.4252 7.07219 21.5673C6.98681 21.7094 6.96138 21.8796 7.00148 22.0404C7.26102 23.0812 8.1257 23.8233 9.24852 24.0283ZM9.87352 12.3023C14.1123 12.3023 17.5607 15.7508 17.5607 19.9895C17.5607 24.2281 14.1123 27.6766 9.87352 27.6766C5.63477 27.6766 2.18633 24.2282 2.18633 19.9895C2.18633 15.7507 5.63477 12.3023 9.87352 12.3023ZM3.43633 19.9895C3.43633 23.5389 6.32406 26.4266 9.87352 26.4266C13.423 26.4266 16.3107 23.5389 16.3107 19.9895C16.3107 16.4399 13.423 13.5523 9.87352 13.5523C6.32406 13.5523 3.43633 16.44 3.43633 19.9895Z" fill="#48586F"/>
  </g>
  <defs>
    <clipPath id="clip0_846_24764">
      <rect width="40" height="40" fill="white"/>
    </clipPath>
  </defs>
</svg>