<svg xmlns="http://www.w3.org/2000/svg" width="21" height="20" viewBox="0 0 21 20" fill="none">
  <path d="M10.3332 16.6662H17.8332M2.83325 16.6662H4.2287C4.63636 16.6662 4.84018 16.6662 5.03199 16.6202C5.20205 16.5793 5.36463 16.512 5.51375 16.4206C5.68194 16.3175 5.82607 16.1734 6.11432 15.8852L16.5833 5.4162C17.2736 4.72585 17.2736 3.60656 16.5833 2.9162C15.8929 2.22585 14.7736 2.22585 14.0833 2.9162L3.6143 13.3852C3.32605 13.6734 3.18192 13.8175 3.07885 13.9857C2.98747 14.1348 2.92013 14.2974 2.8793 14.4675C2.83325 14.6593 2.83325 14.8631 2.83325 15.2708V16.6662Z" stroke="#48586F" stroke-width="2" stroke-linecap="round" stroke-linejoin="round"/>
</svg>