<svg width="16" height="20" viewBox="0 0 16 20" fill="none" xmlns="http://www.w3.org/2000/svg">
<path d="M11.3334 3.33317C12.1084 3.33317 12.4958 3.33317 12.8138 3.41836C13.6765 3.64952 14.3504 4.32339 14.5815 5.18612C14.6667 5.50404 14.6667 5.89153 14.6667 6.6665V14.3332C14.6667 15.7333 14.6667 16.4334 14.3942 16.9681C14.1545 17.4386 13.7721 17.821 13.3017 18.0607C12.7669 18.3332 12.0668 18.3332 10.6667 18.3332H5.33337C3.93324 18.3332 3.23318 18.3332 2.6984 18.0607C2.22799 17.821 1.84554 17.4386 1.60586 16.9681C1.33337 16.4334 1.33337 15.7333 1.33337 14.3332V6.6665C1.33337 5.89153 1.33337 5.50404 1.41856 5.18612C1.64973 4.32339 2.3236 3.64952 3.18633 3.41836C3.50424 3.33317 3.89173 3.33317 4.66671 3.33317M5.50004 12.4998L7.16671 14.1665L10.9167 10.4165M6.00004 4.99984H10C10.4668 4.99984 10.7001 4.99984 10.8784 4.90901C11.0352 4.82912 11.1627 4.70163 11.2425 4.54483C11.3334 4.36657 11.3334 4.13321 11.3334 3.6665V2.99984C11.3334 2.53313 11.3334 2.29977 11.2425 2.12151C11.1627 1.96471 11.0352 1.83723 10.8784 1.75733C10.7001 1.6665 10.4668 1.6665 10 1.6665H6.00004C5.53333 1.6665 5.29997 1.6665 5.12172 1.75733C4.96491 1.83723 4.83743 1.96471 4.75754 2.12151C4.66671 2.29977 4.66671 2.53313 4.66671 2.99984V3.6665C4.66671 4.13321 4.66671 4.36657 4.75754 4.54483C4.83743 4.70163 4.96491 4.82912 5.12172 4.90901C5.29997 4.99984 5.53333 4.99984 6.00004 4.99984Z" stroke="#2F2E35" stroke-width="1.5" stroke-linecap="round" stroke-linejoin="round"/>
</svg>
