<svg xmlns="http://www.w3.org/2000/svg" width="40" height="40" viewBox="0 0 40 40" fill="none">
  <g clip-path="url(#clip0_846_24595)">
    <path d="M26.8966 26.0918H24.1379C23.7574 26.0918 23.4483 26.4009 23.4483 26.7815C23.4483 27.1623 23.7574 27.4711 24.1379 27.4711H26.8966C27.2771 27.4711 27.5862 27.1623 27.5862 26.7815C27.5862 26.4009 27.2771 26.0918 26.8966 26.0918ZM26.8966 28.8504H24.1379C23.7574 28.8504 23.4483 29.1596 23.4483 29.5401C23.4483 29.9209 23.7574 30.2297 24.1379 30.2297H26.8966C27.2771 30.2297 27.5862 29.9209 27.5862 29.5401C27.5862 29.1596 27.2771 28.8504 26.8966 28.8504Z" fill="black"/>
    <path d="M22.6697 30.9957C21.8387 31.3924 20.9304 31.6096 20 31.6096C18.0654 31.6096 16.3187 30.7303 15.1724 29.309V30.92H13.7931V26.7821C13.7931 26.0214 14.4117 25.4027 15.1724 25.4027H18.6207C19.0012 25.4027 19.3103 25.094 19.3103 24.7131C19.3103 24.3326 19.0012 24.0234 18.6207 24.0234H14.4828C13.3422 24.0234 12.4138 24.9519 12.4138 26.0924V31.5379C12.4148 32.3207 12.6813 33.0801 13.1698 33.6917L15.1724 36.1952V39.8855H24.1379V36.1516L25.1966 35.093C25.8476 34.4419 26.2069 33.5759 26.2069 32.6545V31.6096H24.1379C23.5641 31.6096 23.0448 31.3745 22.6697 30.9957Z" fill="black"/>
    <path d="M21.3793 10.3937L20.2634 8.16211H19.7366L18.6207 10.3937V20.7561L18.1897 20.9305C17.3216 21.282 16.578 21.8862 16.0456 22.6449H18.6207C19.7612 22.6449 20.6897 23.5733 20.6897 24.7138C20.6897 25.8543 19.7612 26.7828 18.6207 26.7828H15.3883C15.9958 28.8228 17.8428 30.2311 20 30.2311C20.7291 30.2311 21.4399 30.0593 22.0895 29.7462C22.0828 29.6781 22.069 29.6118 22.069 29.5414C22.069 29.0097 22.2764 28.5292 22.6067 28.1621C22.2757 27.795 22.069 27.3145 22.069 26.7828C22.069 26.2511 22.2764 25.7706 22.6067 25.4035C22.2757 25.0364 22.069 24.5559 22.069 24.0242C22.069 23.118 22.6579 22.3546 23.4705 22.075C23.0007 21.5868 22.4414 21.1864 21.8097 20.9305L21.3793 20.7561V13.9649L19.7145 12.3L21.3793 10.6351V10.3937Z" fill="#6D9000"/>
    <path d="M4.13793 14.5937V33.6778H11.551C11.2221 33.0144 11.0345 32.2826 11.0345 31.5371V26.0915C11.0345 24.204 12.5599 22.6702 14.442 22.6473C15.0434 21.439 16.0318 20.4466 17.2414 19.8439V10.0668L18.8841 6.7812H21.1159L22.7586 10.0668V11.2047L21.6648 12.2984L22.7586 13.3921V19.8446C23.7214 20.3241 24.5379 21.0612 25.1394 21.9536H26.8966C28.0371 21.9536 28.9655 22.8821 28.9655 24.0226C28.9655 24.5543 28.7581 25.0348 28.4278 25.4019C28.7588 25.769 28.9655 26.2495 28.9655 26.7812C28.9655 27.3129 28.7581 27.7934 28.4278 28.1605C28.7588 28.5276 28.9655 29.0081 28.9655 29.5398C28.9655 30.4379 28.3871 31.1963 27.5862 31.4818V32.6537C27.5862 33.0026 27.5461 33.3447 27.4744 33.6778H35.8621V14.5937L20 4.83008L4.13793 14.5937ZM15.8621 12.2984H13.1034V20.5743H11.7241V10.9191H15.8621V12.2984ZM24.1379 10.9191H28.2759V20.5743H26.8966V12.2984H24.1379V10.9191Z" fill="#344900"/>
    <path d="M39.2911 11.5747L20 0L0.708879 11.5747C0.27181 11.8373 0 12.3164 0 12.827V12.9075C0 13.7129 0.655345 14.3683 1.46017 14.3683C1.73017 14.3683 1.99526 14.2932 2.22621 14.1517L20 3.2119L37.7738 14.1517C38.0043 14.2932 38.2695 14.3682 38.5399 14.3683C39.3447 14.3683 40 13.7129 40 12.9075V12.827C40 12.3165 39.7283 11.8373 39.2911 11.5747Z" fill="#344900"/>
    <path d="M24.1379 23.334H26.8966C27.2771 23.334 27.5862 23.6431 27.5862 24.0236C27.5862 24.4045 27.2771 24.7133 26.8966 24.7133H24.1379C23.7574 24.7133 23.4483 24.4045 23.4483 24.0236C23.4483 23.6431 23.7574 23.334 24.1379 23.334Z" fill="black"/>
  </g>
  <defs>
    <clipPath id="clip0_846_24595">
      <rect width="40" height="40" fill="white"/>
    </clipPath>
  </defs>
</svg>