<svg xmlns="http://www.w3.org/2000/svg" width="40" height="40" viewBox="0 0 40 40" fill="none">
  <path d="M34.375 39.375H9.375C9.20924 39.375 9.05027 39.3092 8.93306 39.1919C8.81585 39.0747 8.75 38.9158 8.75 38.75V35C8.75 34.8342 8.81585 34.6753 8.93306 34.5581C9.05027 34.4408 9.20924 34.375 9.375 34.375C9.54076 34.375 9.69973 34.4408 9.81694 34.5581C9.93415 34.6753 10 34.8342 10 35V38.125H33.75V5.625H30.625C30.4592 5.625 30.3003 5.55915 30.1831 5.44194C30.0658 5.32473 30 5.16576 30 5C30 4.83424 30.0658 4.67527 30.1831 4.55806C30.3003 4.44085 30.4592 4.375 30.625 4.375H34.375C34.5408 4.375 34.6997 4.44085 34.8169 4.55806C34.9342 4.67527 35 4.83424 35 5V38.75C35 38.9158 34.9342 39.0747 34.8169 39.1919C34.6997 39.3092 34.5408 39.375 34.375 39.375Z" fill="#48586F"/>
  <path d="M30.625 35.625H5.625C5.45924 35.625 5.30027 35.5592 5.18306 35.4419C5.06585 35.3247 5 35.1658 5 35V8.125C5.00004 7.95925 5.06591 7.80031 5.18313 7.68313L12.0581 0.808125C12.1753 0.690907 12.3343 0.625035 12.5 0.625H30.625C30.7908 0.625 30.9497 0.690848 31.0669 0.808058C31.1842 0.925268 31.25 1.08424 31.25 1.25V35C31.25 35.1658 31.1842 35.3247 31.0669 35.4419C30.9497 35.5592 30.7908 35.625 30.625 35.625ZM6.25 34.375H30V1.875H12.7587L6.25 8.38375V34.375Z" fill="#48586F"/>
  <path d="M12.5 8.75H5.625C5.45924 8.75 5.30027 8.68415 5.18306 8.56694C5.06585 8.44973 5 8.29076 5 8.125C5 7.95924 5.06585 7.80027 5.18306 7.68306C5.30027 7.56585 5.45924 7.5 5.625 7.5H11.875V1.25C11.875 1.08424 11.9408 0.925268 12.0581 0.808058C12.1753 0.690848 12.3342 0.625 12.5 0.625C12.6658 0.625 12.8247 0.690848 12.9419 0.808058C13.0592 0.925268 13.125 1.08424 13.125 1.25V8.125C13.125 8.29076 13.0592 8.44973 12.9419 8.56694C12.8247 8.68415 12.6658 8.75 12.5 8.75ZM19.375 11.25H9.375C9.20924 11.25 9.05027 11.1842 8.93306 11.0669C8.81585 10.9497 8.75 10.7908 8.75 10.625C8.75 10.4592 8.81585 10.3003 8.93306 10.1831C9.05027 10.0658 9.20924 10 9.375 10H19.375C19.5408 10 19.6997 10.0658 19.8169 10.1831C19.9342 10.3003 20 10.4592 20 10.625C20 10.7908 19.9342 10.9497 19.8169 11.0669C19.6997 11.1842 19.5408 11.25 19.375 11.25ZM19.375 13.75H9.375C9.20924 13.75 9.05027 13.6842 8.93306 13.5669C8.81585 13.4497 8.75 13.2908 8.75 13.125C8.75 12.9592 8.81585 12.8003 8.93306 12.6831C9.05027 12.5658 9.20924 12.5 9.375 12.5H19.375C19.5408 12.5 19.6997 12.5658 19.8169 12.6831C19.9342 12.8003 20 12.9592 20 13.125C20 13.2908 19.9342 13.4497 19.8169 13.5669C19.6997 13.6842 19.5408 13.75 19.375 13.75ZM24.5531 13.125H23.9062C23.4921 13.1298 23.0866 13.0069 22.7447 12.7731C22.4029 12.5392 22.1413 12.2058 21.9956 11.8181C21.9396 11.6621 21.9479 11.4901 22.0186 11.3402C22.0893 11.1902 22.2167 11.0745 22.3728 11.0184C22.5289 10.9624 22.7008 10.9707 22.8508 11.0414C23.0007 11.1121 23.1165 11.2396 23.1725 11.3956C23.2308 11.5412 23.3325 11.6653 23.4638 11.751C23.595 11.8368 23.7495 11.8801 23.9062 11.875H24.5531C24.8054 11.8922 25.0551 11.8147 25.2533 11.6576C25.4515 11.5005 25.5841 11.2752 25.625 11.0256C25.6328 10.8237 25.5661 10.6259 25.4375 10.47C25.3016 10.3066 25.1163 10.1918 24.9094 10.1431L23.5525 9.82312C23.0807 9.71779 22.6583 9.45616 22.3538 9.08065C22.0493 8.70514 21.8806 8.23779 21.875 7.75437C21.8753 7.47027 21.9338 7.18924 22.047 6.92866C22.1602 6.66807 22.3257 6.43348 22.5331 6.23938C22.95 5.84277 23.504 5.62264 24.0794 5.625H24.8438C25.2579 5.62023 25.6634 5.74311 26.0053 5.97693C26.3471 6.21075 26.6087 6.54418 26.7544 6.93187C26.7821 7.00915 26.7944 7.09113 26.7904 7.17314C26.7865 7.25515 26.7664 7.33558 26.7314 7.40984C26.6964 7.48409 26.6471 7.55073 26.5863 7.60593C26.5255 7.66113 26.4545 7.70382 26.3772 7.73156C26.2999 7.7593 26.2179 7.77155 26.1359 7.76761C26.0539 7.76367 25.9735 7.74361 25.8992 7.70859C25.825 7.67356 25.7583 7.62426 25.7031 7.56348C25.6479 7.5027 25.6052 7.43165 25.5775 7.35437C25.5192 7.20881 25.4175 7.08472 25.2862 6.99896C25.155 6.9132 25.0005 6.86992 24.8438 6.875H24.0794C23.8239 6.87261 23.5775 6.9694 23.3919 7.145C23.3075 7.2228 23.2401 7.31708 23.1936 7.422C23.1472 7.52693 23.1228 7.64026 23.1219 7.755C23.1282 7.95689 23.2023 8.15077 23.3322 8.30542C23.4621 8.46006 23.6404 8.56647 23.8381 8.6075L25.195 8.9275C25.667 9.03997 26.0893 9.30328 26.3981 9.6775C26.7232 10.0675 26.893 10.5638 26.875 11.0713C26.8237 11.6454 26.5545 12.1782 26.1227 12.5602C25.6909 12.9421 25.1293 13.1442 24.5531 13.125Z" fill="#48586F"/>
  <path d="M24.375 6.875C24.2092 6.875 24.0503 6.80915 23.9331 6.69194C23.8158 6.57473 23.75 6.41576 23.75 6.25V5C23.75 4.83424 23.8158 4.67527 23.9331 4.55806C24.0503 4.44085 24.2092 4.375 24.375 4.375C24.5408 4.375 24.6997 4.44085 24.8169 4.55806C24.9342 4.67527 25 4.83424 25 5V6.25C25 6.41576 24.9342 6.57473 24.8169 6.69194C24.6997 6.80915 24.5408 6.875 24.375 6.875ZM24.375 14.375C24.2092 14.375 24.0503 14.3092 23.9331 14.1919C23.8158 14.0747 23.75 13.9158 23.75 13.75V12.5C23.75 12.3342 23.8158 12.1753 23.9331 12.0581C24.0503 11.9408 24.2092 11.875 24.375 11.875C24.5408 11.875 24.6997 11.9408 24.8169 12.0581C24.9342 12.1753 25 12.3342 25 12.5V13.75C25 13.9158 24.9342 14.0747 24.8169 14.1919C24.6997 14.3092 24.5408 14.375 24.375 14.375ZM25.625 31.875H10.625C10.1277 31.875 9.65081 31.6775 9.29917 31.3258C8.94754 30.9742 8.75 30.4973 8.75 30V17.5C8.75 17.0027 8.94754 16.5258 9.29917 16.1742C9.65081 15.8225 10.1277 15.625 10.625 15.625H25.625C26.1223 15.625 26.5992 15.8225 26.9508 16.1742C27.3025 16.5258 27.5 17.0027 27.5 17.5V30C27.5 30.4973 27.3025 30.9742 26.9508 31.3258C26.5992 31.6775 26.1223 31.875 25.625 31.875ZM10.625 16.875C10.4592 16.875 10.3003 16.9408 10.1831 17.0581C10.0658 17.1753 10 17.3342 10 17.5V30C10 30.1658 10.0658 30.3247 10.1831 30.4419C10.3003 30.5592 10.4592 30.625 10.625 30.625H25.625C25.7908 30.625 25.9497 30.5592 26.0669 30.4419C26.1842 30.3247 26.25 30.1658 26.25 30V17.5C26.25 17.3342 26.1842 17.1753 26.0669 17.0581C25.9497 16.9408 25.7908 16.875 25.625 16.875H10.625Z" fill="#48586F"/>
  <path d="M26.875 20.625H9.375C9.20924 20.625 9.05027 20.5592 8.93306 20.4419C8.81585 20.3247 8.75 20.1658 8.75 20C8.75 19.8342 8.81585 19.6753 8.93306 19.5581C9.05027 19.4408 9.20924 19.375 9.375 19.375H26.875C27.0408 19.375 27.1997 19.4408 27.3169 19.5581C27.4342 19.6753 27.5 19.8342 27.5 20C27.5 20.1658 27.4342 20.3247 27.3169 20.4419C27.1997 20.5592 27.0408 20.625 26.875 20.625ZM26.875 24.375H9.375C9.20924 24.375 9.05027 24.3092 8.93306 24.1919C8.81585 24.0747 8.75 23.9158 8.75 23.75C8.75 23.5842 8.81585 23.4253 8.93306 23.3081C9.05027 23.1908 9.20924 23.125 9.375 23.125H26.875C27.0408 23.125 27.1997 23.1908 27.3169 23.3081C27.4342 23.4253 27.5 23.5842 27.5 23.75C27.5 23.9158 27.4342 24.0747 27.3169 24.1919C27.1997 24.3092 27.0408 24.375 26.875 24.375ZM26.875 28.125H9.375C9.20924 28.125 9.05027 28.0592 8.93306 27.9419C8.81585 27.8247 8.75 27.6658 8.75 27.5C8.75 27.3342 8.81585 27.1753 8.93306 27.0581C9.05027 26.9408 9.20924 26.875 9.375 26.875H26.875C27.0408 26.875 27.1997 26.9408 27.3169 27.0581C27.4342 27.1753 27.5 27.3342 27.5 27.5C27.5 27.6658 27.4342 27.8247 27.3169 27.9419C27.1997 28.0592 27.0408 28.125 26.875 28.125Z" fill="#48586F"/>
  <path d="M13.125 31.875C12.9592 31.875 12.8003 31.8092 12.6831 31.6919C12.5658 31.5747 12.5 31.4158 12.5 31.25V16.25C12.5 16.0842 12.5658 15.9253 12.6831 15.8081C12.8003 15.6908 12.9592 15.625 13.125 15.625C13.2908 15.625 13.4497 15.6908 13.5669 15.8081C13.6842 15.9253 13.75 16.0842 13.75 16.25V31.25C13.75 31.4158 13.6842 31.5747 13.5669 31.6919C13.4497 31.8092 13.2908 31.875 13.125 31.875ZM23.125 31.875C22.9592 31.875 22.8003 31.8092 22.6831 31.6919C22.5658 31.5747 22.5 31.4158 22.5 31.25V16.25C22.5 16.0842 22.5658 15.9253 22.6831 15.8081C22.8003 15.6908 22.9592 15.625 23.125 15.625C23.2908 15.625 23.4497 15.6908 23.5669 15.8081C23.6842 15.9253 23.75 16.0842 23.75 16.25V31.25C23.75 31.4158 23.6842 31.5747 23.5669 31.6919C23.4497 31.8092 23.2908 31.875 23.125 31.875Z" fill="#48586F"/>
</svg>