<svg xmlns="http://www.w3.org/2000/svg" width="40" height="40" viewBox="0 0 40 40" fill="none">
  <g clip-path="url(#clip0_846_24758)">
    <path d="M33.3333 28.8239L31.6354 27.8067C31.1177 27.4972 30.5257 27.3336 29.9225 27.3334H27.3672C26.8441 27.3325 26.3231 27.3997 25.8174 27.5332L18.1182 29.6C17.7034 29.7145 17.3222 29.927 17.0067 30.2196C16.6912 30.5122 16.4507 30.8764 16.3053 31.2814L9.53317 27.6176C8.98394 27.3051 8.34122 27.1989 7.72067 27.3181C7.48657 27.3595 7.25956 27.4341 7.0465 27.5395C6.56506 27.7702 6.16552 28.1423 5.90133 28.6062C5.67031 29.0101 5.5488 29.4674 5.54883 29.9327C5.54531 30.3992 5.66538 30.8583 5.89682 31.2633C6.12826 31.6684 6.46283 32.0049 6.8665 32.2387L19.0039 39.5008C19.531 39.8272 20.1388 40.0001 20.7588 40H30.1521C30.5715 40.0003 30.9872 39.9211 31.3773 39.7667L33.3333 38.9942V40H40V26.6667H33.3333V28.8239ZM30.8873 38.5267C30.6538 38.6189 30.4051 38.6663 30.154 38.6667H20.7588C20.3831 38.6664 20.0151 38.5606 19.6966 38.3614L7.54267 31.0909C7.3398 30.9737 7.17161 30.8048 7.05519 30.6015C6.93878 30.3982 6.8783 30.1676 6.87992 29.9334C6.88089 29.6994 6.94245 29.4698 7.05858 29.2667C7.19141 29.0365 7.39111 28.8521 7.63117 28.7379C7.73669 28.6866 7.84889 28.6502 7.9645 28.6299C8.04879 28.6142 8.13434 28.6062 8.22008 28.6061C8.44925 28.6055 8.6745 28.6654 8.87342 28.7794L16.2168 32.7474C16.2253 32.7881 16.2253 32.8282 16.236 32.8689C16.5518 34.0326 17.6074 34.8409 18.8135 34.8422C19.1846 34.8082 19.5521 34.7427 19.9121 34.6462L26.8385 32.7927L26.4948 31.5046L19.5908 33.3499C19.2868 33.4199 18.8945 33.5 18.8135 33.5069C18.5206 33.5074 18.2358 33.4115 18.0028 33.234C17.7699 33.0565 17.6019 32.8073 17.5247 32.5248C17.5033 32.444 17.4906 32.3614 17.486 32.278C17.486 32.278 17.4808 32.1165 17.486 32.0599C17.5108 31.7876 17.618 31.5292 17.7932 31.3192C17.9684 31.1091 18.2033 30.9574 18.4668 30.8841L26.1628 28.8252C26.5556 28.72 26.9605 28.6667 27.3672 28.6667H29.9225C30.2845 28.6667 30.6397 28.765 30.9498 28.9509L33.3333 30.3779V37.5599L30.8873 38.5267ZM34.6667 28H38.6667V38.6667H34.6667V28ZM27.4961 5.33336L23.92 1.75752C23.3643 1.19851 22.7031 0.755325 21.9749 0.453642C21.2466 0.15196 20.4658 -0.0022234 19.6775 2.42241e-05H11.2958C10.7785 0.000874109 10.2683 0.121316 9.80525 0.351941L8.31108 1.09927C8.01169 1.24995 7.6789 1.32198 7.344 1.30861L6.66667 1.28486V2.42241e-05H0V14.6667H6.66667V12.6667H7.80017L8.2035 12.9334C9.3322 13.6828 10.6461 14.1056 12 14.1552V22.6667H40V5.33336H27.4961ZM5.33333 13.3334H1.33333V1.33336H5.33333V13.3334ZM8.94142 11.8239L8.19983 11.3334H6.66667V2.61886L7.29525 2.64136C7.85331 2.66122 8.40747 2.54113 8.90725 2.29202L10.4001 1.54461C10.6782 1.40565 10.9849 1.33333 11.2958 1.33336H19.6773C20.2904 1.33159 20.8977 1.45145 21.4642 1.68602C22.0306 1.92058 22.5448 2.26518 22.9772 2.69986L25.6107 5.33336H20.1094L18.4913 3.71552L17.5488 4.65794L22.2582 9.36753C22.7812 9.88836 22.7829 10.7347 22.2621 11.2582C21.7409 11.7813 20.8946 11.7829 20.3714 11.2621L16.4381 7.32877L15.9714 7.72886C14.6826 8.82328 12.7988 8.85128 11.4778 7.79528L11.0915 7.48211L10.2513 8.51794L10.6419 8.83461C11.0505 9.16117 11.5091 9.41963 12 9.60003V12.8214C10.9088 12.7729 9.85142 12.4281 8.94142 11.824V11.8239ZM18.4248 11.1999L19.4307 12.2061C20.4749 13.2347 22.1513 13.2364 23.1973 12.2094C22.2188 13.7246 22.6048 15.7413 24.0739 16.7878C25.543 17.8344 27.5752 17.5404 28.6875 16.1208C29.7998 14.7009 29.599 12.6573 28.2311 11.4814C26.8636 10.3057 24.8128 10.4134 23.5762 11.7259C23.8006 11.3734 23.9376 10.9723 23.9755 10.5561C24.0135 10.1399 23.9515 9.72071 23.7946 9.33336H32.7221C33.0088 11.0108 34.3226 12.3246 36 12.6114V15.3887C34.3226 15.6754 33.0088 16.9893 32.722 18.6667H19.278C18.9913 16.9893 17.6774 15.6754 16 15.3887V12.6114C16.9528 12.4508 17.8147 11.9491 18.4248 11.1999H18.4248ZM24 14C24 12.8955 24.8955 12 26 12C27.1045 12 28 12.8955 28 14C28 15.1045 27.1045 16 26 16C24.8955 16 24 15.1045 24 14ZM38.6667 21.3334H13.3333V9.87919C14.3902 9.95853 15.444 9.68929 16.3333 9.11269L17.4707 10.25C17.224 10.5852 16.9021 10.8578 16.5309 11.046C16.1597 11.2341 15.7495 11.3326 15.3333 11.3334H14.6667V16.6667H15.3333C16.806 16.6667 18 17.8607 18 19.3334V20H34V19.3334C34 17.8607 35.194 16.6667 36.6667 16.6667H37.3333V11.3334H36.6667C35.194 11.3334 34 10.1394 34 8.66669V8.00002H22.776L21.4427 6.66669H38.6667V21.3334Z" fill="#48586F"/>
  </g>
  <defs>
    <clipPath id="clip0_846_24758">
      <rect width="40" height="40" fill="white"/>
    </clipPath>
  </defs>
</svg>