<svg width="181" height="180" viewBox="0 0 181 180" fill="none" xmlns="http://www.w3.org/2000/svg">
<path d="M64.4995 15.5547C64.4995 15.5547 61.1762 20.9073 54.2472 19.988C47.3182 19.0688 37.9791 17.4678 34.6652 25.3482C31.3512 33.2287 37.0302 41.5696 46.6432 39.8601C56.2561 38.1505 66.656 38.3464 68.6377 21.277L64.4995 15.5547ZM135.248 63.1029L132.412 62.695C131.631 62.5839 131.636 61.4535 132.418 61.3484L135.245 60.9668C135.392 60.9472 135.529 60.8798 135.634 60.7751C135.739 60.6703 135.807 60.5339 135.827 60.3868L136.22 57.5612C136.328 56.7794 137.458 56.7794 137.567 57.5612L137.961 60.3986C137.981 60.5448 138.048 60.6805 138.153 60.785C138.257 60.8896 138.392 60.9572 138.538 60.9778L141.374 61.3832C142.155 61.4951 142.151 62.6246 141.369 62.7306L138.542 63.1114C138.394 63.131 138.258 63.1985 138.152 63.3034C138.047 63.4084 137.979 63.545 137.959 63.6923L137.564 66.5195C137.455 67.3013 136.326 67.3013 136.217 66.5195L135.823 63.6829C135.803 63.5369 135.736 63.4014 135.633 63.2967C135.529 63.1921 135.394 63.124 135.248 63.1029Z" fill="#8DB300"/>
<path d="M142.638 57.5143L141.196 57.3082C141.114 57.2966 141.038 57.2556 140.984 57.1928C140.929 57.13 140.899 57.0496 140.899 56.9665C140.899 56.8833 140.929 56.8029 140.984 56.7401C141.038 56.6773 141.114 56.6364 141.196 56.6247L142.631 56.4305C142.706 56.4207 142.775 56.3865 142.828 56.3334C142.882 56.2802 142.916 56.211 142.927 56.1363L143.126 54.7023C143.137 54.6193 143.178 54.5431 143.241 54.488C143.304 54.4328 143.385 54.4023 143.468 54.4023C143.552 54.4023 143.633 54.4328 143.696 54.488C143.759 54.5431 143.799 54.6193 143.81 54.7023L144.011 56.1439C144.021 56.2181 144.055 56.287 144.108 56.3401C144.16 56.3932 144.229 56.4276 144.303 56.4382L145.745 56.6442C145.827 56.6559 145.902 56.6968 145.957 56.7596C146.012 56.8224 146.042 56.9028 146.042 56.986C146.042 57.0692 146.012 57.1495 145.957 57.2123C145.902 57.2751 145.827 57.3161 145.745 57.3277L144.31 57.5202C144.235 57.5301 144.166 57.5643 144.113 57.6175C144.059 57.6706 144.025 57.7399 144.015 57.8145L143.816 59.2484C143.805 59.3314 143.764 59.4076 143.701 59.4628C143.638 59.518 143.557 59.5484 143.473 59.5484C143.39 59.5484 143.309 59.518 143.246 59.4628C143.183 59.4076 143.142 59.3314 143.131 59.2484L142.931 57.8068C142.92 57.7329 142.886 57.6644 142.833 57.6116C142.78 57.5589 142.712 57.5247 142.638 57.5143Z" fill="#344900"/>
<path d="M131.098 49.8174L129.838 49.6343C129.765 49.6248 129.698 49.5892 129.65 49.5341C129.602 49.479 129.575 49.4082 129.575 49.3349C129.575 49.2616 129.602 49.1908 129.65 49.1358C129.698 49.0807 129.765 49.0451 129.838 49.0356L131.094 48.866C131.158 48.8567 131.217 48.827 131.263 48.7811C131.309 48.7352 131.339 48.6758 131.348 48.6116L131.523 47.3565C131.532 47.2839 131.568 47.2171 131.623 47.1688C131.678 47.1204 131.749 47.0937 131.822 47.0938C131.895 47.0937 131.966 47.1204 132.021 47.1688C132.076 47.2171 132.112 47.2839 132.122 47.3565L132.306 48.6167C132.316 48.6807 132.346 48.7401 132.392 48.7859C132.437 48.8317 132.497 48.8616 132.561 48.8711L133.821 49.0517C133.893 49.0619 133.959 49.0977 134.007 49.1526C134.054 49.2075 134.081 49.2779 134.081 49.3506C134.081 49.4234 134.054 49.4937 134.007 49.5486C133.959 49.6035 133.893 49.6393 133.821 49.6495L132.565 49.8191C132.5 49.8277 132.44 49.8572 132.393 49.9031C132.346 49.9489 132.315 50.0087 132.306 50.0735L132.136 51.3294C132.126 51.4021 132.091 51.4688 132.036 51.5172C131.981 51.5655 131.91 51.5922 131.837 51.5922C131.763 51.5922 131.693 51.5655 131.637 51.5172C131.582 51.4688 131.547 51.4021 131.537 51.3294L131.362 50.0684C131.351 50.0036 131.32 49.944 131.272 49.8987C131.224 49.8534 131.163 49.8249 131.098 49.8174Z" fill="#DCE0EC"/>
<path d="M18.4819 94.2544L15.6462 93.8491C14.8644 93.738 14.8695 92.6076 15.6513 92.5025L18.4786 92.1209C18.6258 92.1013 18.7625 92.0339 18.8677 91.9291C18.9729 91.8244 19.0409 91.688 19.0611 91.5408L19.4529 88.7153C19.5614 87.9334 20.6918 87.9334 20.8004 88.7153L21.1947 91.5527C21.2148 91.6988 21.282 91.8344 21.386 91.9389C21.4901 92.0434 21.6253 92.1111 21.7713 92.1319L24.6104 92.5372C25.3923 92.6492 25.3881 93.7787 24.6054 93.8847L21.779 94.2655C21.6316 94.2851 21.4948 94.3526 21.3896 94.4575C21.2843 94.5625 21.2165 94.6991 21.1964 94.8463L20.8038 97.671C20.6952 98.4537 19.5648 98.4537 19.4563 97.671L19.0594 94.8353C19.0396 94.6888 18.9725 94.5527 18.8682 94.4479C18.764 94.343 18.6284 94.2751 18.4819 94.2544Z" fill="#344900"/>
<path d="M7.36969 93.0542L5.92809 92.8481C5.84574 92.8365 5.77035 92.7955 5.71581 92.7327C5.66126 92.6699 5.63123 92.5896 5.63123 92.5064C5.63123 92.4232 5.66126 92.3428 5.71581 92.28C5.77035 92.2173 5.84574 92.1763 5.92809 92.1646L7.36291 91.9704C7.43765 91.9606 7.50709 91.9264 7.56055 91.8733C7.61402 91.8201 7.64855 91.7509 7.65886 91.6762L7.85814 90.2414C7.8691 90.1584 7.90984 90.0822 7.97279 90.027C8.03574 89.9718 8.11659 89.9414 8.20031 89.9414C8.28402 89.9414 8.36488 89.9718 8.42783 90.027C8.49078 90.0822 8.53152 90.1584 8.54248 90.2414L8.74176 91.683C8.75207 91.7572 8.78628 91.8261 8.83921 91.8792C8.89215 91.9323 8.96093 91.9667 9.03516 91.9772L10.4768 92.1833C10.5591 92.1949 10.6345 92.2359 10.6891 92.2987C10.7436 92.3615 10.7736 92.4419 10.7736 92.525C10.7736 92.6082 10.7436 92.6886 10.6891 92.7514C10.6345 92.8142 10.5591 92.8552 10.4768 92.8668L9.0411 93.0601C8.96639 93.0704 8.89709 93.1049 8.84368 93.1581C8.79028 93.2114 8.75569 93.2806 8.74515 93.3552L8.54672 94.7892C8.53576 94.8722 8.49502 94.9484 8.43207 95.0036C8.36912 95.0587 8.28826 95.0892 8.20455 95.0892C8.12084 95.0892 8.03998 95.0587 7.97703 95.0036C7.91408 94.9484 7.87334 94.8722 7.86238 94.7892L7.66225 93.3476C7.65195 93.2736 7.61783 93.2049 7.56505 93.152C7.51227 93.099 7.4437 93.0647 7.36969 93.0542Z" fill="#DCE0EC"/>
<path d="M9.86878 79.5169L11.6496 79.2625C12.1397 79.193 12.1372 78.4832 11.6496 78.4145L9.87387 78.1754C9.78115 78.1635 9.69496 78.1213 9.62871 78.0553C9.56246 77.9894 9.51986 77.9034 9.50753 77.8107L9.26161 76.0367C9.19292 75.5449 8.48315 75.5449 8.41361 76.0367L8.166 77.8175C8.15371 77.9094 8.11165 77.9947 8.04625 78.0604C7.98085 78.1261 7.89573 78.1686 7.8039 78.1813L6.0231 78.4357C5.53211 78.5061 5.5355 79.2159 6.0231 79.2837L7.79881 79.5237C7.89138 79.5358 7.97737 79.578 8.04345 79.644C8.10954 79.7099 8.15202 79.7958 8.1643 79.8883L8.41107 81.6624C8.47891 82.1533 9.18869 82.1533 9.25907 81.6624L9.50669 79.8816C9.5188 79.7895 9.56079 79.704 9.6262 79.6381C9.69161 79.5723 9.77683 79.5297 9.86878 79.5169ZM45.5297 62.4492L64.9421 110.968L63.8584 157.176H82.5407L82.7832 105.52C82.9104 104.508 82.857 103.481 82.6255 102.487L65.6188 62.4492H45.5297Z" fill="#8DB300"/>
<path d="M67.0384 157.174V166.482H80.6784C80.8371 166.481 80.9923 166.436 81.1263 166.351C81.2603 166.266 81.3678 166.145 81.4365 166.002C81.5052 165.859 81.5325 165.699 81.5151 165.542C81.4977 165.384 81.4364 165.234 81.3382 165.11L78.7094 161.828V157.174H67.0384ZM19.357 150.18L15.6674 158.726L28.1906 164.132C28.3368 164.194 28.4973 164.213 28.654 164.188C28.8108 164.163 28.9573 164.095 29.0771 163.991C29.1969 163.887 29.2851 163.751 29.3317 163.6C29.3782 163.448 29.3813 163.286 29.3405 163.133L28.2305 159.079L30.0757 154.806L19.357 150.18Z" fill="#2F2E35"/>
<path d="M60.6834 64.9667L53.8562 109.125L35.5691 157.176L16.1295 150.32L35.5691 104.468L40.5163 61.5781L60.6834 64.9667Z" fill="#8DB300"/>
<path d="M74.1057 39.3438L68.1171 40.3834C65.4671 42.6187 63.0817 47.4812 64.4995 50.6442L76.6666 73.2078C77.3223 74.6701 78.3287 75.948 79.5966 76.9283C80.8644 77.9086 82.3545 78.5609 83.9348 78.8275L110.374 81.2536L111.929 69.2027L88.3851 64.7787L74.1057 39.3438Z" fill="#344900"/>
<path d="M111.719 70.8359L117.45 72.1588L121.266 78.8148C121.266 78.8148 122.305 81.1154 119.512 80.331C119.512 80.331 119.8 83.3473 117.608 81.9761C117.79 82.836 117.594 84.4268 115.864 83.3796L113.98 80.2657L110.57 79.7747L111.719 70.8359Z" fill="#FDD8A9"/>
<path d="M117.604 82.2095C117.562 82.2096 117.521 82.1986 117.484 82.1776C117.448 82.1566 117.418 82.1264 117.397 82.0899L115.177 78.2443C115.145 78.1895 115.137 78.1244 115.153 78.0634C115.169 78.0023 115.209 77.9502 115.264 77.9186C115.319 77.887 115.384 77.8785 115.445 77.8949C115.506 77.9112 115.558 77.9512 115.59 78.006L117.813 81.8517C117.845 81.9061 117.854 81.9709 117.838 82.032C117.822 82.093 117.783 82.1453 117.728 82.1773C117.691 82.1996 117.648 82.2108 117.604 82.2095Z" fill="#2F2E35"/>
<path d="M58.3609 32.431L57.9369 32.3072C53.4238 30.9953 48.7785 33.2094 47.4666 37.2968L39.8516 61.034L68.4995 69.3639L68.4648 61.0535L74.7671 44.5879C75.861 40.8253 73.4103 36.8049 69.2907 35.6076L58.3609 32.431Z" fill="#344900"/>
<path d="M63.5048 24.6953L61.0303 33.2067C60.8517 33.8206 60.7959 34.4637 60.8659 35.0992C60.9359 35.7348 61.1304 36.3503 61.4383 36.9106C61.7462 37.471 62.1614 37.9652 62.6603 38.3651C63.1592 38.7649 63.732 39.0626 64.346 39.2411C64.96 39.4197 65.6031 39.4757 66.2388 39.4058C66.8744 39.3358 67.49 39.1413 68.0504 38.8334C68.6109 38.5255 69.1052 38.1102 69.5051 37.6113C69.905 37.1123 70.2027 36.5394 70.3812 35.9254L72.0984 30.0309L63.5048 24.6953Z" fill="#FDD8A9"/>
<path d="M62.6008 20.5994L63.9212 16.3145C65.8945 13.79 67.1436 13.1201 68.636 13.3066L74.6713 15.0612L73.758 18.1988L62.6008 20.5994Z" fill="#8DB300"/>
<path d="M76.2808 24.4485C78.0323 24.4485 79.4523 23.0286 79.4523 21.277C79.4523 19.5254 78.0323 18.1055 76.2808 18.1055C74.5292 18.1055 73.1093 19.5254 73.1093 21.277C73.1093 23.0286 74.5292 24.4485 76.2808 24.4485Z" fill="#8DB300"/>
<path d="M67.5692 31.8496C66.7197 31.6027 65.9271 31.1908 65.2368 30.6376C64.5464 30.0844 63.9718 29.4006 63.5457 28.6252C63.1196 27.8499 62.8504 26.9983 62.7535 26.1189C62.6565 25.2395 62.7337 24.3497 62.9807 23.5002L64.8514 17.0664L77.7893 20.8281L75.9187 27.2619C75.4198 28.9775 74.2599 30.4246 72.6941 31.2849C71.1283 32.1453 69.2848 32.3484 67.5692 31.8496Z" fill="#FDD8A9"/>
<path d="M67.2625 20.5176C67.8066 18.6459 67.4293 16.8906 66.4197 16.5971C65.4101 16.3036 64.1505 17.583 63.6063 19.4547C63.0622 21.3264 63.4396 23.0817 64.4492 23.3752C65.4588 23.6687 66.7184 22.3893 67.2625 20.5176Z" fill="#8DB300"/>
<path d="M68.0856 20.9637C70.0658 20.9637 71.671 19.3584 71.671 17.3783C71.671 15.3982 70.0658 13.793 68.0856 13.793C66.1055 13.793 64.5003 15.3982 64.5003 17.3783C64.5003 19.3584 66.1055 20.9637 68.0856 20.9637Z" fill="#8DB300"/>
<path d="M66.1899 23.0211C66.5534 21.7709 65.8316 20.4619 64.5778 20.0974C63.324 19.7329 62.0129 20.4509 61.6494 21.7011C61.286 22.9513 62.0078 24.2603 63.2616 24.6248C64.5154 24.9893 65.8264 24.2713 66.1899 23.0211Z" fill="#FDD8A9"/>
<path d="M70.7964 24.2493C70.885 23.9463 70.7109 23.6288 70.4075 23.5401C70.104 23.4513 69.7862 23.625 69.6976 23.928C69.6091 24.231 69.7832 24.5485 70.0866 24.6372C70.39 24.7259 70.7078 24.5523 70.7964 24.2493Z" fill="#2F2E35"/>
<path d="M75.2397 25.5051C75.3278 25.202 75.1531 24.8848 74.8496 24.7965C74.546 24.7083 74.2285 24.8824 74.1404 25.1855C74.0523 25.4887 74.2269 25.8059 74.5305 25.8942C74.834 25.9824 75.1516 25.8082 75.2397 25.5051Z" fill="#2F2E35"/>
<path d="M64.5834 23.546C64.5464 23.546 64.51 23.5374 64.4768 23.5209C64.4437 23.5044 64.4149 23.4805 64.3926 23.451L63.1647 21.8194C63.1267 21.7688 63.1103 21.7052 63.1193 21.6426C63.1282 21.5799 63.1616 21.5233 63.2122 21.4853C63.2628 21.4473 63.3264 21.431 63.3891 21.4399C63.4517 21.4488 63.5083 21.4822 63.5463 21.5328L64.7742 23.1669C64.8009 23.2023 64.8171 23.2445 64.8211 23.2886C64.8252 23.3328 64.8168 23.3771 64.797 23.4168C64.7771 23.4564 64.7467 23.4898 64.7089 23.513C64.6712 23.5363 64.6277 23.5486 64.5834 23.5485V23.546ZM71.1257 29.0368C70.5542 29.0368 70.1081 28.8672 69.7995 28.5365C69.244 27.9429 69.361 27.0474 69.3661 27.01C69.3747 26.9474 69.4077 26.8907 69.4581 26.8525C69.5084 26.8142 69.5719 26.7976 69.6345 26.8061C69.6972 26.8147 69.7538 26.8477 69.7921 26.8981C69.8303 26.9484 69.847 27.0119 69.8385 27.0745C69.8385 27.0813 69.7494 27.786 70.1497 28.2134C70.3939 28.4737 70.7831 28.5882 71.3064 28.5526C71.3671 28.5524 71.4257 28.5756 71.4699 28.6172C71.5143 28.6588 71.541 28.7157 71.5447 28.7764C71.5483 28.8371 71.5287 28.8969 71.4898 28.9435C71.4508 28.9902 71.3955 29.0202 71.3352 29.0274C71.2656 29.0342 71.1953 29.0368 71.1257 29.0368ZM71.5896 31.7682C71.5896 31.7682 68.6699 32.656 66.036 31.1898C66.036 31.1898 67.9262 33.1954 71.2546 32.9206L71.5896 31.7682ZM107.145 166.72C73.8656 166.697 40.1144 166.697 6.83037 166.72C6.76952 166.716 6.71235 166.689 6.67055 166.645C6.62875 166.601 6.60547 166.542 6.60547 166.481C6.60547 166.42 6.62875 166.361 6.67055 166.317C6.71235 166.273 6.76952 166.246 6.83037 166.242C40.1144 166.219 73.8656 166.219 107.149 166.242C107.21 166.246 107.267 166.273 107.309 166.317C107.35 166.361 107.374 166.42 107.374 166.481C107.374 166.542 107.35 166.601 107.309 166.645C107.267 166.689 107.21 166.716 107.149 166.72H107.145Z" fill="#2F2E35"/>
<path d="M116.681 72.0078L121.137 72.8499C121.434 72.9062 121.699 73.073 121.878 73.3167C122.057 73.5605 122.137 73.863 122.102 74.1634C122.083 74.3194 122.035 74.4702 121.958 74.6074C121.882 74.7445 121.779 74.8652 121.656 74.9626C121.533 75.06 121.391 75.1322 121.24 75.1751C121.089 75.2179 120.931 75.2306 120.775 75.2124L116.366 74.696L116.681 72.0078Z" fill="#FDD8A9"/>
<path d="M113.82 79.3047C113.764 79.3044 113.71 79.2846 113.668 79.2488C113.625 79.2131 113.596 79.1635 113.586 79.1088C113.576 79.054 113.586 78.9974 113.613 78.9488C113.64 78.9002 113.683 78.8627 113.735 78.8426C115.871 78.0404 117.382 74.7722 117.399 74.7433C117.42 74.6974 117.455 74.6594 117.5 74.6347C117.544 74.61 117.594 74.5999 117.644 74.606L119.195 74.7874C119.227 74.7911 119.257 74.8008 119.284 74.816C119.311 74.8313 119.336 74.8518 119.355 74.8763C119.374 74.9009 119.389 74.9291 119.397 74.9592C119.406 74.9893 119.409 75.0209 119.405 75.052C119.401 75.0831 119.392 75.1132 119.376 75.1406C119.361 75.168 119.341 75.1921 119.316 75.2115C119.291 75.231 119.263 75.2454 119.233 75.254C119.203 75.2625 119.171 75.2651 119.14 75.2615L117.758 75.0995C117.419 75.794 115.966 78.5144 113.903 79.2895C113.876 79.2994 113.848 79.3046 113.82 79.3047ZM68.4647 61.2932C68.4375 61.2934 68.4104 61.2885 68.385 61.2788C68.3255 61.2575 68.2769 61.2135 68.2497 61.1565C68.2225 61.0994 68.219 61.034 68.24 60.9744L72.9464 47.7405C72.9569 47.711 72.9731 47.6838 72.9942 47.6606C73.0152 47.6373 73.0406 47.6185 73.0689 47.605C73.0972 47.5916 73.1278 47.5839 73.1591 47.5823C73.1904 47.5808 73.2217 47.5854 73.2512 47.5959C73.2807 47.6064 73.3079 47.6226 73.3311 47.6437C73.3544 47.6647 73.3732 47.6901 73.3867 47.7184C73.4001 47.7467 73.4078 47.7774 73.4094 47.8086C73.411 47.8399 73.4063 47.8712 73.3958 47.9007L68.6894 61.1346C68.6729 61.181 68.6425 61.2212 68.6023 61.2496C68.562 61.278 68.514 61.2932 68.4647 61.2932ZM56.8183 90.9003C56.7838 90.9001 56.7498 90.8924 56.7186 90.8778C56.6874 90.8631 56.6598 90.8419 56.6376 90.8155L42.9569 74.9986C42.9155 74.9507 42.8948 74.8883 42.8994 74.8252C42.9041 74.762 42.9336 74.7033 42.9815 74.6619C43.0294 74.6205 43.0917 74.5999 43.1549 74.6045C43.218 74.6091 43.2767 74.6386 43.3181 74.6865L56.998 90.5085C57.0278 90.5431 57.0471 90.5855 57.0536 90.6307C57.06 90.6759 57.0534 90.722 57.0345 90.7636C57.0156 90.8051 56.9852 90.8404 56.9469 90.8652C56.9086 90.8901 56.8639 90.9034 56.8183 90.9037V90.9003Z" fill="#2F2E35"/>
<path d="M78.7128 157.416C78.6496 157.416 78.589 157.391 78.5443 157.346C78.4996 157.301 78.4745 157.241 78.4745 157.178L78.3897 103.843L66.2837 76.1774C66.2711 76.1488 66.2644 76.1179 66.2638 76.0866C66.2632 76.0553 66.2687 76.0242 66.2802 75.9951C66.2916 75.966 66.3086 75.9394 66.3303 75.9168C66.352 75.8943 66.3779 75.8762 66.4066 75.8637C66.4353 75.8512 66.4662 75.8444 66.4974 75.8438C66.5287 75.8432 66.5598 75.8488 66.589 75.8602C66.6181 75.8716 66.6447 75.8886 66.6673 75.9103C66.6898 75.932 66.7079 75.958 66.7204 75.9866L78.8468 103.697C78.8596 103.727 78.8662 103.759 78.8663 103.792L78.9511 157.176C78.9513 157.207 78.9453 157.238 78.9334 157.268C78.9216 157.297 78.904 157.323 78.8819 157.345C78.8597 157.368 78.8334 157.385 78.8044 157.398C78.7754 157.41 78.7442 157.416 78.7128 157.416ZM23.8531 152.359C23.8217 152.359 23.7905 152.353 23.7616 152.341C23.7033 152.316 23.6571 152.269 23.6331 152.211C23.6091 152.152 23.6093 152.087 23.6335 152.028L43.3707 104.888L42.538 93.4614C42.5361 93.3997 42.5581 93.3397 42.5994 93.294C42.6407 93.2482 42.6981 93.2201 42.7596 93.2156C42.8211 93.2111 42.882 93.2306 42.9295 93.2699C42.977 93.3092 43.0075 93.3653 43.0145 93.4266L43.8507 104.91C43.8538 104.948 43.8476 104.986 43.8329 105.02L24.0745 152.213C24.0562 152.256 24.0254 152.293 23.986 152.319C23.9466 152.346 23.9004 152.359 23.8531 152.359Z" fill="white"/>
<path d="M61.4136 36.7625L57.5891 32.481C56.1455 31.6078 54.457 31.2282 52.7786 31.3996C51.1001 31.5709 49.5231 32.2839 48.2857 33.4307L29.232 51.0937C28.0568 52.1829 27.1685 53.5453 26.6459 55.06C26.1233 56.5748 25.9825 58.1951 26.236 59.7772L32.4044 85.6022L44.4638 84.2403L40.9709 59.4949L61.4136 36.7625Z" fill="#344900"/>
<path d="M42.8008 84.4453L43.2935 89.3917L38.2055 95.1344C38.2055 95.1344 36.3585 96.8558 36.2067 93.9582C36.2067 93.9582 33.4414 95.198 34.0393 92.6811C33.2828 93.1297 31.7123 93.4536 32.1508 91.4786L34.4972 88.6972L33.8926 85.4332L42.8008 84.4453Z" fill="#FDD8A9"/>
<path d="M34.0418 92.9162C33.9961 92.9161 33.9513 92.9028 33.9129 92.878C33.8745 92.8532 33.844 92.8178 33.8252 92.7761C33.8063 92.7345 33.7998 92.6883 33.8065 92.643C33.8132 92.5978 33.8328 92.5554 33.8629 92.521L36.4374 89.5886C36.4581 89.5651 36.4832 89.5458 36.5113 89.5319C36.5394 89.5181 36.5699 89.5099 36.6012 89.5079C36.6324 89.5058 36.6638 89.5099 36.6935 89.52C36.7231 89.5301 36.7505 89.5459 36.7741 89.5666C36.7976 89.5872 36.8169 89.6123 36.8307 89.6404C36.8446 89.6685 36.8528 89.6991 36.8548 89.7303C36.8569 89.7616 36.8527 89.7929 36.8427 89.8226C36.8326 89.8523 36.8168 89.8797 36.7961 89.9032L34.2216 92.8356C34.1991 92.8611 34.1714 92.8814 34.1404 92.8953C34.1094 92.9092 34.0758 92.9163 34.0418 92.9162ZM36.2101 94.1932C36.1639 94.193 36.1187 94.1794 36.08 94.154C36.0414 94.1286 36.0109 94.0925 35.9923 94.0501C35.9737 94.0078 35.9678 93.9609 35.9753 93.9153C35.9829 93.8696 36.0034 93.8272 36.0346 93.793L38.6905 90.9098C38.7113 90.8849 38.7369 90.8645 38.7658 90.8499C38.7947 90.8352 38.8263 90.8265 38.8586 90.8244C38.8909 90.8223 38.9233 90.8268 38.9539 90.8376C38.9844 90.8484 39.0124 90.8653 39.0363 90.8873C39.0601 90.9093 39.0792 90.9359 39.0924 90.9654C39.1056 90.995 39.1127 91.027 39.1132 91.0594C39.1137 91.0918 39.1076 91.1239 39.0953 91.1539C39.083 91.1839 39.0647 91.211 39.0416 91.2337L36.3857 94.1169C36.3633 94.1411 36.3361 94.1603 36.3059 94.1735C36.2757 94.1866 36.2431 94.1933 36.2101 94.1932ZM41.2456 61.675C41.2165 61.675 41.1878 61.6695 41.1608 61.6589L37.7688 60.3546C37.7387 60.3441 37.7111 60.3277 37.6876 60.3063C37.664 60.2849 37.645 60.259 37.6316 60.2301C37.6182 60.2013 37.6107 60.17 37.6096 60.1382C37.6084 60.1064 37.6137 60.0747 37.625 60.045C37.6364 60.0152 37.6535 59.9881 37.6755 59.9651C37.6975 59.9421 37.7239 59.9237 37.7531 59.9111C37.7823 59.8985 37.8137 59.8918 37.8456 59.8915C37.8774 59.8912 37.9089 59.8973 37.9384 59.9094L41.1938 61.1602L55.2706 47.8619C55.2934 47.8404 55.3202 47.8236 55.3495 47.8125C55.3787 47.8013 55.4099 47.7961 55.4412 47.797C55.4725 47.7979 55.5033 47.8049 55.5319 47.8178C55.5605 47.8306 55.5862 47.8489 55.6077 47.8717C55.6292 47.8944 55.646 47.9212 55.6572 47.9505C55.6683 47.9797 55.6736 48.0109 55.6727 48.0422C55.6717 48.0735 55.6647 48.1043 55.6519 48.1329C55.6391 48.1615 55.6207 48.1873 55.598 48.2087L41.4084 61.6071C41.3647 61.6496 41.3065 61.6739 41.2456 61.675Z" fill="#2F2E35"/>
<path d="M73.9064 21.2265C75.9591 21.2265 77.6231 19.5625 77.6231 17.5098C77.6231 15.457 75.9591 13.793 73.9064 13.793C71.8536 13.793 70.1896 15.457 70.1896 17.5098C70.1896 19.5625 71.8536 21.2265 73.9064 21.2265Z" fill="#8DB300"/>
<path d="M78.31 22.1182C80.1225 22.1182 81.5918 20.6489 81.5918 18.8364C81.5918 17.024 80.1225 15.5547 78.31 15.5547C76.4975 15.5547 75.0283 17.024 75.0283 18.8364C75.0283 20.6489 76.4975 22.1182 78.31 22.1182Z" fill="#8DB300"/>
<path d="M68.4647 61.2935C68.4213 61.2937 68.3787 61.2816 68.3417 61.2587L64.0687 58.6851C64.0418 58.6689 64.0184 58.6476 63.9998 58.6224C63.9812 58.5973 63.9677 58.5687 63.9602 58.5383C63.9526 58.5079 63.9511 58.4763 63.9558 58.4453C63.9604 58.4143 63.9711 58.3846 63.9873 58.3577C64.0034 58.3309 64.0247 58.3075 64.0499 58.2889C64.0751 58.2703 64.1037 58.2568 64.1341 58.2492C64.1645 58.2417 64.196 58.2402 64.227 58.2448C64.258 58.2495 64.2878 58.2602 64.3146 58.2763L68.5877 60.8509C68.6324 60.8777 68.6671 60.9184 68.6864 60.9669C68.7058 61.0153 68.7087 61.0687 68.6947 61.119C68.6808 61.1692 68.6507 61.2135 68.6092 61.2451C68.5676 61.2766 68.5169 61.2936 68.4647 61.2935Z" fill="#2F2E35"/>
<path d="M127.926 115.9C139.115 115.9 148.185 106.83 148.185 95.6415C148.185 84.453 139.115 75.3828 127.926 75.3828C116.738 75.3828 107.668 84.453 107.668 95.6415C107.668 106.83 116.738 115.9 127.926 115.9Z" fill="#344900"/>
<path d="M127.24 98.9787C129.923 99.5286 132.443 100.694 134.599 102.384C136.756 104.073 138.491 106.24 139.667 108.715C142.572 106.173 144.562 102.749 145.334 98.9677C147.307 89.3853 141.135 80.0115 131.549 78.039C121.963 76.0666 112.593 82.2383 110.621 91.8241C109.836 95.6033 110.313 99.5355 111.977 103.018C114.035 101.209 116.484 99.9023 119.133 99.2014C121.781 98.5004 124.557 98.4242 127.24 98.9787Z" fill="white"/>
<path d="M129.13 96.7802C132.988 96.7802 136.116 93.6526 136.116 89.7944C136.116 85.9363 132.988 82.8086 129.13 82.8086C125.272 82.8086 122.144 85.9363 122.144 89.7944C122.144 93.6526 125.272 96.7802 129.13 96.7802Z" fill="#344900"/>
<path d="M70.4151 77.1962C70.3974 77.1959 70.3798 77.1939 70.3625 77.1903L58.5134 74.5377C58.4829 74.5309 58.4539 74.5181 58.4283 74.5001C58.4027 74.482 58.3809 74.4591 58.3641 74.4327C58.3473 74.4062 58.3359 74.3767 58.3306 74.3459C58.3252 74.315 58.3259 74.2834 58.3328 74.2528C58.3396 74.2222 58.3524 74.1933 58.3705 74.1677C58.3885 74.1421 58.4114 74.1203 58.4379 74.1035C58.4643 74.0867 58.4938 74.0753 58.5247 74.0699C58.5555 74.0646 58.5872 74.0653 58.6177 74.0722L70.4668 76.723C70.5248 76.7352 70.5761 76.7684 70.6108 76.8163C70.6456 76.8643 70.6613 76.9234 70.6548 76.9822C70.6483 77.0411 70.6202 77.0954 70.5759 77.1346C70.5316 77.1739 70.4743 77.1952 70.4151 77.1945V77.1962Z" fill="white"/>
<path d="M43.1375 61.9883L69.6807 72.0091L68.4994 69.3633L43.1375 61.9883Z" fill="#2F2E35"/>
<path d="M153.014 112.648H105.246C104.07 112.648 103.117 113.602 103.117 114.778V115.772C103.117 116.948 104.07 117.901 105.246 117.901H153.014C154.19 117.901 155.143 116.948 155.143 115.772V114.778C155.143 113.602 154.19 112.648 153.014 112.648Z" fill="white"/>
<path d="M153.014 118.14H105.245C104.618 118.138 104.016 117.888 103.573 117.445C103.129 117.001 102.879 116.4 102.877 115.772V114.778C102.879 114.15 103.129 113.549 103.573 113.106C104.016 112.662 104.618 112.412 105.245 112.41H153.014C153.641 112.412 154.242 112.662 154.686 113.106C155.129 113.549 155.38 114.15 155.381 114.778V115.772C155.38 116.4 155.129 117.001 154.686 117.445C154.242 117.888 153.641 118.138 153.014 118.14ZM105.245 112.888C104.744 112.888 104.264 113.088 103.909 113.442C103.555 113.796 103.355 114.277 103.355 114.778V115.772C103.355 116.274 103.555 116.754 103.909 117.108C104.264 117.463 104.744 117.662 105.245 117.663H153.014C153.515 117.662 153.996 117.463 154.35 117.109C154.705 116.754 154.904 116.274 154.905 115.772V114.778C154.904 114.277 154.705 113.796 154.35 113.442C153.996 113.087 153.515 112.888 153.014 112.888H105.245Z" fill="#2F2E35"/>
<path d="M170.238 75.7079L152.277 109.688C151.727 110.727 152.124 112.016 153.164 112.565L154.043 113.03C155.082 113.579 156.371 113.182 156.92 112.142L174.881 78.1625C175.431 77.1228 175.034 75.8345 173.994 75.2849L173.115 74.8205C172.075 74.2709 170.787 74.6683 170.238 75.7079Z" fill="white"/>
<path d="M155.033 113.514C154.648 113.513 154.27 113.419 153.93 113.238L153.051 112.774C152.497 112.479 152.082 111.977 151.898 111.378C151.713 110.778 151.772 110.13 152.064 109.574L170.025 75.5931C170.318 75.0381 170.82 74.6224 171.42 74.4373C172.02 74.2522 172.669 74.3129 173.224 74.6061L174.103 75.0708C174.658 75.3643 175.074 75.8662 175.259 76.4662C175.444 77.0661 175.384 77.715 175.091 78.2703L157.13 112.251C156.928 112.632 156.626 112.951 156.257 113.173C155.887 113.395 155.465 113.513 155.034 113.514H155.033ZM172.119 74.8079C171.775 74.8082 171.437 74.9022 171.143 75.0799C170.848 75.2575 170.607 75.512 170.446 75.8162L152.489 109.797C152.255 110.241 152.207 110.759 152.354 111.238C152.502 111.717 152.834 112.117 153.277 112.352L154.156 112.817C154.375 112.933 154.616 113.004 154.863 113.028C155.11 113.051 155.359 113.025 155.596 112.952C155.834 112.878 156.054 112.759 156.245 112.601C156.436 112.442 156.594 112.248 156.71 112.028L174.669 78.0447C174.903 77.6013 174.952 77.083 174.804 76.6039C174.656 76.1247 174.324 75.724 173.88 75.4897L173.001 75.025C172.73 74.8817 172.427 74.8071 172.12 74.8079H172.119ZM161.831 108.587C161.582 108.587 161.337 108.526 161.116 108.41L160.581 108.127C160.553 108.112 160.529 108.092 160.509 108.068C160.489 108.044 160.473 108.016 160.464 107.986C160.455 107.956 160.451 107.924 160.454 107.893C160.457 107.861 160.466 107.831 160.481 107.803C160.495 107.775 160.515 107.751 160.54 107.73C160.564 107.71 160.592 107.695 160.622 107.686C160.652 107.677 160.683 107.673 160.715 107.676C160.746 107.679 160.776 107.688 160.804 107.703L161.339 107.985C161.588 108.116 161.877 108.143 162.145 108.06C162.413 107.978 162.638 107.792 162.769 107.544L173.704 86.8529C173.835 86.6049 173.862 86.3151 173.779 86.0472C173.696 85.7793 173.511 85.5552 173.263 85.424C173.207 85.3944 173.165 85.3437 173.146 85.283C173.127 85.2224 173.133 85.1567 173.163 85.1005C173.192 85.0443 173.243 85.0021 173.304 84.9832C173.364 84.9644 173.43 84.9704 173.486 85C173.846 85.1906 174.115 85.516 174.235 85.9049C174.355 86.2937 174.315 86.7143 174.125 87.0742L163.186 107.765C163.057 108.013 162.862 108.22 162.623 108.365C162.384 108.509 162.11 108.586 161.831 108.587Z" fill="#2F2E35"/>
<path d="M148.189 166.466H111.621L107.598 117.902H150.661L148.189 166.466Z" fill="white"/>
<path d="M148.189 166.704H111.621C111.561 166.704 111.504 166.682 111.46 166.641C111.416 166.601 111.389 166.545 111.384 166.486L107.36 117.922C107.358 117.89 107.363 117.857 107.374 117.826C107.385 117.796 107.402 117.768 107.424 117.744C107.447 117.72 107.474 117.701 107.503 117.688C107.533 117.675 107.566 117.668 107.598 117.668H150.661C150.694 117.668 150.726 117.675 150.756 117.688C150.786 117.701 150.813 117.72 150.835 117.744C150.857 117.768 150.874 117.796 150.885 117.827C150.896 117.857 150.901 117.89 150.899 117.922L148.428 166.486C148.423 166.545 148.396 166.601 148.351 166.642C148.307 166.682 148.249 166.705 148.189 166.704ZM111.841 166.228H147.966L150.413 118.141H107.857L111.841 166.228Z" fill="#2F2E35"/>
<path d="M157.991 166.702H132.74C132.677 166.702 132.616 166.677 132.571 166.633C132.527 166.588 132.501 166.527 132.501 166.464C132.501 166.401 132.527 166.34 132.571 166.296C132.616 166.251 132.677 166.226 132.74 166.226H157.991C158.055 166.226 158.115 166.251 158.16 166.296C158.205 166.34 158.23 166.401 158.23 166.464C158.23 166.527 158.205 166.588 158.16 166.633C158.115 166.677 158.055 166.702 157.991 166.702ZM117.457 166.702C117.394 166.702 117.333 166.677 117.289 166.633C117.244 166.588 117.219 166.527 117.219 166.464V130.119C117.219 129.574 117.002 129.05 116.616 128.665C116.231 128.279 115.708 128.063 115.162 128.063C114.617 128.063 114.094 128.279 113.708 128.665C113.323 129.05 113.106 129.574 113.106 130.119V166.464C113.106 166.527 113.081 166.588 113.036 166.633C112.991 166.677 112.931 166.702 112.868 166.702C112.804 166.702 112.744 166.677 112.699 166.633C112.655 166.588 112.629 166.527 112.629 166.464V130.119C112.629 129.447 112.896 128.803 113.371 128.328C113.846 127.853 114.491 127.586 115.162 127.586C115.834 127.586 116.478 127.853 116.953 128.328C117.428 128.803 117.695 129.447 117.695 130.119V166.464C117.695 166.527 117.67 166.588 117.626 166.633C117.581 166.677 117.52 166.702 117.457 166.702ZM126.861 166.702C126.797 166.702 126.737 166.677 126.692 166.633C126.647 166.588 126.622 166.527 126.622 166.464V130.119C126.622 129.574 126.406 129.05 126.02 128.665C125.634 128.279 125.111 128.063 124.566 128.063C124.02 128.063 123.497 128.279 123.112 128.665C122.726 129.05 122.509 129.574 122.509 130.119V166.464C122.506 166.525 122.479 166.582 122.435 166.624C122.39 166.666 122.332 166.689 122.271 166.689C122.21 166.689 122.151 166.666 122.107 166.624C122.062 166.582 122.036 166.525 122.032 166.464V130.119C122.044 129.455 122.316 128.822 122.79 128.357C123.264 127.892 123.901 127.631 124.565 127.631C125.229 127.631 125.867 127.892 126.341 128.357C126.814 128.822 127.087 129.455 127.099 130.119V166.464C127.099 166.527 127.074 166.588 127.029 166.633C126.984 166.677 126.924 166.702 126.861 166.702Z" fill="#2F2E35"/>
<path d="M136.264 166.72C136.233 166.72 136.202 166.714 136.173 166.702C136.144 166.691 136.117 166.673 136.095 166.651C136.073 166.629 136.055 166.602 136.043 166.573C136.031 166.545 136.025 166.513 136.025 166.482V130.119C136.025 129.574 135.808 129.051 135.423 128.665C135.037 128.279 134.514 128.063 133.968 128.063C133.423 128.063 132.9 128.279 132.514 128.665C132.129 129.051 131.912 129.574 131.912 130.119V166.464C131.912 166.527 131.887 166.588 131.842 166.633C131.798 166.677 131.737 166.703 131.674 166.703C131.611 166.703 131.55 166.677 131.505 166.633C131.461 166.588 131.435 166.527 131.435 166.464V130.119C131.448 129.455 131.72 128.823 132.194 128.357C132.667 127.892 133.305 127.632 133.969 127.632C134.633 127.632 135.27 127.892 135.744 128.357C136.218 128.823 136.49 129.455 136.502 130.119V166.482C136.502 166.545 136.477 166.606 136.433 166.651C136.388 166.695 136.327 166.72 136.264 166.72ZM145.391 166.72C145.328 166.72 145.267 166.695 145.223 166.651C145.178 166.606 145.153 166.545 145.153 166.482V130.119C145.153 129.574 144.936 129.051 144.55 128.665C144.165 128.279 143.642 128.063 143.096 128.063C142.551 128.063 142.028 128.279 141.642 128.665C141.257 129.051 141.04 129.574 141.04 130.119V166.482C141.04 166.545 141.015 166.606 140.97 166.651C140.925 166.695 140.865 166.72 140.802 166.72C140.738 166.72 140.678 166.695 140.633 166.651C140.588 166.606 140.563 166.545 140.563 166.482V130.119C140.576 129.455 140.848 128.823 141.322 128.357C141.795 127.892 142.433 127.632 143.097 127.632C143.761 127.632 144.398 127.892 144.872 128.357C145.346 128.823 145.618 129.455 145.63 130.119V166.482C145.63 166.513 145.624 166.545 145.612 166.573C145.6 166.602 145.582 166.629 145.56 166.651C145.538 166.673 145.511 166.691 145.482 166.702C145.453 166.714 145.422 166.72 145.391 166.72ZM150.443 122.44H110.818C110.786 122.441 110.753 122.437 110.722 122.426C110.692 122.414 110.664 122.397 110.64 122.375C110.616 122.352 110.597 122.326 110.584 122.296C110.571 122.266 110.565 122.233 110.565 122.201C110.565 122.168 110.571 122.136 110.584 122.106C110.597 122.076 110.616 122.049 110.64 122.027C110.664 122.004 110.692 121.987 110.722 121.976C110.753 121.965 110.786 121.96 110.818 121.962H150.443C150.503 121.966 150.561 121.992 150.602 122.037C150.644 122.081 150.667 122.14 150.667 122.201C150.667 122.262 150.644 122.32 150.602 122.365C150.561 122.409 150.503 122.436 150.443 122.44ZM87.2852 67.2364C87.2487 67.2366 87.2127 67.2281 87.1801 67.2118C87.1235 67.1836 87.0804 67.1341 87.0602 67.0742C87.0401 67.0143 87.0444 66.9488 87.0724 66.8921L88.1748 64.6737C88.1865 64.6425 88.2047 64.6141 88.2282 64.5904C88.2516 64.5667 88.2798 64.5481 88.3108 64.5359C88.3419 64.5238 88.3752 64.5183 88.4085 64.5198C88.4418 64.5213 88.4745 64.5298 88.5043 64.5447C88.5341 64.5596 88.5605 64.5806 88.5817 64.6064C88.6029 64.6321 88.6185 64.6621 88.6274 64.6942C88.6363 64.7264 88.6383 64.76 88.6334 64.793C88.6285 64.826 88.6167 64.8576 88.5988 64.8857L87.4964 67.1041C87.4768 67.1435 87.4467 67.1767 87.4095 67.2001C87.3722 67.2234 87.3292 67.236 87.2852 67.2364Z" fill="#2F2E35"/>
</svg>
