<svg width="16" height="14" viewBox="0 0 16 14" fill="none" xmlns="http://www.w3.org/2000/svg">
<path d="M7.99983 5.50015V8.16682M7.99983 10.8335H8.0065M7.07671 2.09464L1.59345 11.5657C1.28932 12.091 1.13725 12.3537 1.15972 12.5693C1.17933 12.7573 1.27784 12.9282 1.43075 13.0394C1.60605 13.1668 1.90956 13.1668 2.51658 13.1668H13.4831C14.0901 13.1668 14.3936 13.1668 14.5689 13.0394C14.7218 12.9282 14.8203 12.7573 14.8399 12.5693C14.8624 12.3537 14.7103 12.091 14.4062 11.5657L8.92295 2.09463C8.61991 1.57119 8.46838 1.30947 8.2707 1.22157C8.09826 1.14489 7.9014 1.14489 7.72897 1.22157C7.53128 1.30947 7.37976 1.57119 7.07671 2.09464Z" stroke="#FF0031" stroke-width="1.5" stroke-linecap="round" stroke-linejoin="round"/>
</svg>
