<svg xmlns="http://www.w3.org/2000/svg" width="20" height="20" viewBox="0 0 20 20" fill="none">
  <path d="M11.6667 1.89258V5.3347C11.6667 5.80141 11.6667 6.03476 11.7575 6.21302C11.8374 6.36982 11.9649 6.49731 12.1217 6.5772C12.2999 6.66803 12.5333 6.66803 13 6.66803H16.4421M6.66668 12.5013V15.0013M13.3333 10.8346V15.0013M10 8.7513V15.0013M16.6667 8.32482V14.3346C16.6667 15.7348 16.6667 16.4348 16.3942 16.9696C16.1545 17.44 15.7721 17.8225 15.3017 18.0622C14.7669 18.3346 14.0668 18.3346 12.6667 18.3346H7.33334C5.93321 18.3346 5.23315 18.3346 4.69837 18.0622C4.22796 17.8225 3.84551 17.44 3.60583 16.9696C3.33334 16.4348 3.33334 15.7348 3.33334 14.3346V5.66797C3.33334 4.26784 3.33334 3.56777 3.60583 3.03299C3.84551 2.56259 4.22796 2.18014 4.69837 1.94045C5.23315 1.66797 5.93321 1.66797 7.33334 1.66797H10.0098C10.6213 1.66797 10.927 1.66797 11.2148 1.73704C11.4698 1.79829 11.7137 1.8993 11.9374 2.03637C12.1897 2.19097 12.4059 2.40716 12.8382 2.83954L15.4951 5.4964C15.9275 5.92878 16.1437 6.14497 16.2983 6.39726C16.4353 6.62094 16.5364 6.8648 16.5976 7.11989C16.6667 7.40761 16.6667 7.71335 16.6667 8.32482Z" stroke="#F1F7F6" stroke-width="2" stroke-linecap="round" stroke-linejoin="round"/>
</svg>