<svg xmlns="http://www.w3.org/2000/svg" width="20" height="20" viewBox="0 0 20 20" fill="none">
  <path d="M8.74987 10.0003H4.16653M4.09599 10.2432L2.15022 16.0555C1.99736 16.5121 1.92093 16.7404 1.97578 16.881C2.02341 17.0031 2.12571 17.0957 2.25195 17.1309C2.39731 17.1715 2.61687 17.0727 3.05598 16.8751L16.9822 10.6083C17.4108 10.4154 17.6251 10.319 17.6913 10.185C17.7489 10.0686 17.7489 9.93203 17.6913 9.81564C17.6251 9.68168 17.4108 9.58524 16.9822 9.39237L3.05112 3.12342C2.61334 2.92641 2.39444 2.82791 2.24922 2.86832C2.12311 2.90341 2.02082 2.99573 1.97302 3.1176C1.91798 3.25793 1.9936 3.48574 2.14482 3.94137L4.09653 9.82159C4.1225 9.89984 4.13549 9.93897 4.14062 9.97899C4.14517 10.0145 4.14512 10.0504 4.14048 10.0859C4.13525 10.1259 4.12216 10.165 4.09599 10.2432Z" stroke="#F1F7F6" stroke-width="2" stroke-linecap="round" stroke-linejoin="round"/>
</svg>