<svg width="18" height="20" viewBox="0 0 18 20" fill="none" xmlns="http://www.w3.org/2000/svg">
<path d="M6.82924 16.1424L7.31628 17.2378C7.46106 17.5639 7.69734 17.8409 7.99647 18.0353C8.29559 18.2298 8.6447 18.3332 9.00146 18.3332C9.35823 18.3332 9.70734 18.2298 10.0065 18.0353C10.3056 17.8409 10.5419 17.5639 10.6866 17.2378L11.1737 16.1424C11.3471 15.7538 11.6387 15.4297 12.007 15.2165C12.3777 15.0027 12.8065 14.9116 13.232 14.9563L14.4237 15.0832C14.7784 15.1207 15.1364 15.0545 15.4543 14.8926C15.7721 14.7307 16.0362 14.4801 16.2144 14.1711C16.3929 13.8623 16.4779 13.5084 16.4592 13.1522C16.4405 12.7961 16.3188 12.453 16.1089 12.1647L15.4033 11.1952C15.1521 10.8474 15.0178 10.4289 15.02 9.99984C15.0199 9.57199 15.1554 9.15513 15.407 8.8091L16.1126 7.83965C16.3225 7.5513 16.4442 7.20823 16.4629 6.85207C16.4816 6.4959 16.3966 6.14195 16.2181 5.83317C16.0399 5.5242 15.7758 5.27358 15.458 5.11169C15.1401 4.94981 14.7821 4.88361 14.4274 4.92113L13.2357 5.04799C12.8102 5.09268 12.3814 5.00161 12.0107 4.7878C11.6417 4.57338 11.35 4.24764 11.1774 3.85725L10.6866 2.76187C10.5419 2.43581 10.3056 2.15877 10.0065 1.96434C9.70734 1.76991 9.35823 1.66645 9.00146 1.6665C8.6447 1.66645 8.29559 1.76991 7.99647 1.96434C7.69734 2.15877 7.46106 2.43581 7.31628 2.76187L6.82924 3.85725C6.65668 4.24764 6.36497 4.57338 5.99591 4.7878C5.62526 5.00161 5.19647 5.09268 4.77091 5.04799L3.57554 4.92113C3.22081 4.88361 2.86282 4.94981 2.54497 5.11169C2.22711 5.27358 1.96305 5.5242 1.7848 5.83317C1.60632 6.14195 1.52128 6.4959 1.54002 6.85207C1.55876 7.20823 1.68046 7.5513 1.89035 7.83965L2.59591 8.8091C2.84753 9.15513 2.98302 9.57199 2.98295 9.99984C2.98302 10.4277 2.84753 10.8445 2.59591 11.1906L1.89035 12.16C1.68046 12.4484 1.55876 12.7914 1.54002 13.1476C1.52128 13.5038 1.60632 13.8577 1.7848 14.1665C1.96323 14.4753 2.22732 14.7258 2.54513 14.8877C2.86294 15.0495 3.22084 15.1158 3.57554 15.0785L4.76721 14.9517C5.19276 14.907 5.62155 14.9981 5.99221 15.2119C6.36265 15.4257 6.65571 15.7515 6.82924 16.1424Z" stroke="#2F2E35" stroke-width="1.5" stroke-linecap="round" stroke-linejoin="round"/>
<path d="M8.99998 12.4998C10.3807 12.4998 11.5 11.3805 11.5 9.99984C11.5 8.61913 10.3807 7.49984 8.99998 7.49984C7.61926 7.49984 6.49998 8.61913 6.49998 9.99984C6.49998 11.3805 7.61926 12.4998 8.99998 12.4998Z" stroke="#2F2E35" stroke-width="1.5" stroke-linecap="round" stroke-linejoin="round"/>
</svg>
