<svg width="80" height="80" viewBox="0 0 80 80" fill="none" xmlns="http://www.w3.org/2000/svg">
<path d="M40 80C62.0914 80 80 62.0914 80 40C80 17.9086 62.0914 0 40 0C17.9086 0 0 17.9086 0 40C0 62.0914 17.9086 80 40 80Z" fill="#8DB300"/>
<path fill-rule="evenodd" clip-rule="evenodd" d="M58.7064 26.333C59.4808 27.1209 59.4696 28.3872 58.6816 29.1613L35.86 51.5831C35.0944 52.3355 33.8712 52.3491 33.0892 51.6143L22.3939 41.5683C21.5888 40.8123 21.5492 39.5463 22.3054 38.7415C23.0617 37.9363 24.3274 37.8967 25.1325 38.6527L34.4272 47.3835L55.8784 26.308C56.666 25.5339 57.9324 25.5451 58.7064 26.333Z" fill="white"/>
</svg>
