<svg xmlns="http://www.w3.org/2000/svg" width="40" height="40" viewBox="0 0 40 40" fill="none">
  <path d="M35.625 23.75H28.125V1.25C28.125 1.11882 28.0837 0.990972 28.007 0.884556C27.9303 0.77814 27.8221 0.698555 27.6976 0.657073C27.5732 0.615591 27.4389 0.614316 27.3136 0.653429C27.1884 0.692542 27.0787 0.770059 27 0.875L25.5575 2.79875L23.5669 0.808125C23.4497 0.690956 23.2907 0.625133 23.125 0.625133C22.9593 0.625133 22.8003 0.690956 22.6831 0.808125L20.625 2.86625L18.5669 0.808125C18.4509 0.69277 18.2942 0.627501 18.1307 0.626333C17.9671 0.625164 17.8095 0.688189 17.6919 0.801875L15.62 2.8125L13.5625 0.803125C13.4448 0.68814 13.2866 0.624178 13.1221 0.625115C12.9576 0.626051 12.8001 0.691809 12.6838 0.808125L10.625 2.86625L8.56687 0.808125C8.44967 0.690956 8.29073 0.625133 8.125 0.625133C7.95927 0.625133 7.80033 0.690956 7.68313 0.808125L5.6925 2.79875L4.25 0.875C4.17129 0.770059 4.06156 0.692542 3.93635 0.653429C3.81115 0.614316 3.6768 0.615591 3.55236 0.657073C3.42791 0.698555 3.31967 0.77814 3.24297 0.884556C3.16627 0.990972 3.125 1.11882 3.125 1.25V33.75C3.125 33.9158 3.19085 34.0747 3.30806 34.1919C3.42527 34.3092 3.58424 34.375 3.75 34.375H15.625V37.5C15.625 37.8315 15.7567 38.1495 15.9911 38.3839C16.2255 38.6183 16.5435 38.75 16.875 38.75H35.625C35.9565 38.75 36.2745 38.6183 36.5089 38.3839C36.7433 38.1495 36.875 37.8315 36.875 37.5V25C36.875 24.6685 36.7433 24.3505 36.5089 24.1161C36.2745 23.8817 35.9565 23.75 35.625 23.75ZM16.875 26.875H35.625V27.5H16.875V26.875ZM35.625 25.625H16.875V25H35.625V25.625ZM4.375 33.125V3.125L5.125 4.125C5.17856 4.19692 5.24698 4.25647 5.3256 4.2996C5.40421 4.34274 5.49119 4.36845 5.58063 4.375C5.67002 4.38184 5.75984 4.36912 5.84381 4.33771C5.92779 4.30629 6.00391 4.25696 6.06687 4.19313L8.125 2.13375L10.1831 4.19187C10.3003 4.30904 10.4593 4.37487 10.625 4.37487C10.7907 4.37487 10.9497 4.30904 11.0669 4.19187L13.1294 2.12937L15.1813 4.135C15.2981 4.24952 15.4552 4.31366 15.6187 4.31366C15.7823 4.31366 15.9394 4.24952 16.0563 4.135L18.1187 2.125L20.1813 4.1875C20.2985 4.30467 20.4574 4.37049 20.6231 4.37049C20.7889 4.37049 20.9478 4.30467 21.065 4.1875L23.125 2.13375L25.1831 4.19187C25.246 4.25593 25.322 4.3055 25.406 4.33713C25.49 4.36876 25.5799 4.38168 25.6694 4.375C25.7588 4.36845 25.8458 4.34274 25.9244 4.2996C26.003 4.25647 26.0714 4.19692 26.125 4.125L26.875 3.125V23.75H16.875C16.5435 23.75 16.2255 23.8817 15.9911 24.1161C15.7567 24.3505 15.625 24.6685 15.625 25V33.125H4.375ZM35.625 37.5H16.875V28.75H35.625V37.5Z" fill="#48586F"/>
  <path d="M26.25 30C25.6319 30 25.0277 30.1833 24.5138 30.5267C23.9999 30.87 23.5994 31.3581 23.3629 31.9291C23.1264 32.5001 23.0645 33.1285 23.185 33.7347C23.3056 34.3408 23.6033 34.8977 24.0403 35.3347C24.4773 35.7717 25.0342 36.0694 25.6403 36.19C26.2465 36.3105 26.8749 36.2486 27.4459 36.0121C28.0169 35.7756 28.505 35.3751 28.8483 34.8612C29.1917 34.3473 29.375 33.7431 29.375 33.125C29.374 32.2965 29.0444 31.5022 28.4586 30.9164C27.8728 30.3306 27.0785 30.001 26.25 30ZM26.25 35C25.8792 35 25.5166 34.89 25.2083 34.684C24.9 34.478 24.6596 34.1851 24.5177 33.8425C24.3758 33.4999 24.3387 33.1229 24.411 32.7592C24.4834 32.3955 24.662 32.0614 24.9242 31.7992C25.1864 31.537 25.5205 31.3584 25.8842 31.286C26.2479 31.2137 26.6249 31.2508 26.9675 31.3927C27.3101 31.5346 27.603 31.775 27.809 32.0833C28.015 32.3916 28.125 32.7542 28.125 33.125C28.125 33.6223 27.9275 34.0992 27.5758 34.4508C27.2242 34.8025 26.7473 35 26.25 35ZM18.125 30.625V32.5H19.375V31.25H20.625V30H18.75C18.5842 30 18.4253 30.0658 18.3081 30.1831C18.1908 30.3003 18.125 30.4592 18.125 30.625ZM33.75 30H31.875V31.25H33.125V32.5H34.375V30.625C34.375 30.4592 34.3092 30.3003 34.1919 30.1831C34.0747 30.0658 33.9158 30 33.75 30ZM19.375 33.75H18.125V35.625C18.125 35.7908 18.1908 35.9497 18.3081 36.0669C18.4253 36.1842 18.5842 36.25 18.75 36.25H20.625V35H19.375V33.75ZM33.125 35H31.875V36.25H33.75C33.9158 36.25 34.0747 36.1842 34.1919 36.0669C34.3092 35.9497 34.375 35.7908 34.375 35.625V33.75H33.125V35ZM18.125 6.875H23.125V8.125H18.125V6.875ZM18.125 9.375H23.125V10.625H18.125V9.375ZM8.125 13.125H19.375V14.375H8.125V13.125ZM20.625 13.125H23.125V14.375H20.625V13.125ZM8.125 15.625H19.375V16.875H8.125V15.625ZM20.625 15.625H23.125V16.875H20.625V15.625ZM8.125 18.125H19.375V19.375H8.125V18.125ZM20.625 18.125H23.125V19.375H20.625V18.125ZM8.125 20.625H19.375V21.875H8.125V20.625ZM20.625 20.625H23.125V21.875H20.625V20.625Z" fill="#48586F"/>
</svg>