<svg xmlns="http://www.w3.org/2000/svg" width="40" height="40" viewBox="0 0 40 40" fill="none">
  <path d="M3.75 30.625C3.58424 30.625 3.42527 30.6908 3.30806 30.8081C3.19085 30.9253 3.125 31.0842 3.125 31.25V38.125C3.125 38.2908 3.19085 38.4497 3.30806 38.5669C3.42527 38.6842 3.58424 38.75 3.75 38.75H36.25C36.4158 38.75 36.5747 38.6842 36.6919 38.5669C36.8092 38.4497 36.875 38.2908 36.875 38.125V31.25C36.875 31.0842 36.8092 30.9253 36.6919 30.8081C36.5747 30.6908 36.4158 30.625 36.25 30.625H28.125V7.5C28.125 7.33424 28.0592 7.17527 27.9419 7.05806C27.8247 6.94085 27.6658 6.875 27.5 6.875H23.75V5.625C23.9158 5.625 24.0747 5.55915 24.1919 5.44194C24.3092 5.32473 24.375 5.16576 24.375 5V1.875C24.375 1.70924 24.3092 1.55027 24.1919 1.43306C24.0747 1.31585 23.9158 1.25 23.75 1.25H9.375C9.20924 1.25 9.05027 1.31585 8.93306 1.43306C8.81585 1.55027 8.75 1.70924 8.75 1.875V5C8.75 5.16576 8.81585 5.32473 8.93306 5.44194C9.05027 5.55915 9.20924 5.625 9.375 5.625V7.4482L8.13352 14.8973C8.11917 14.9834 8.12301 15.0715 8.1448 15.156C8.16658 15.2405 8.20582 15.3195 8.26 15.388L9.375 16.7962V25C9.37584 25.7201 9.62496 26.418 10.0804 26.9759C10.5358 27.5337 11.1696 27.9175 11.875 28.0625V30.625H3.75ZM4.375 31.875H11.875V33.125H10C9.83424 33.125 9.67527 33.1908 9.55806 33.3081C9.44085 33.4253 9.375 33.5842 9.375 33.75V35H4.375V31.875ZM28.125 31.875H35.625V35H30.625V33.75C30.625 33.5842 30.5592 33.4253 30.4419 33.3081C30.3247 33.1908 30.1658 33.125 30 33.125H28.125V31.875ZM26.875 8.125V12.4595C25.7745 12.3192 24.7517 11.8174 23.9671 11.0329C23.1826 10.2483 22.6808 9.22555 22.5405 8.125H26.875ZM21.375 33.125H18.625C18.36 31.8175 17.6829 30.6295 16.693 29.7352C15.7031 28.8409 14.4526 28.2875 13.125 28.1562V21.4661L13.1288 21.4693C13.1719 22.819 13.6115 24.1262 14.3928 25.2276C15.1741 26.3291 16.2625 27.1761 17.5222 27.6628C18.7818 28.1496 20.1569 28.2546 21.4759 27.9648C22.7948 27.675 23.9992 27.0031 24.9387 26.0331C25.8782 25.0631 26.5113 23.8378 26.7588 22.5103C27.0064 21.1827 26.8575 19.8117 26.3307 18.5682C25.804 17.3248 24.9227 16.264 23.7968 15.5183C22.671 14.7726 21.3504 14.3749 20 14.375C18.2262 14.3675 16.5196 15.0525 15.2432 16.2842L14.5932 14.3119C15.923 14.1084 17.1361 13.4358 18.0131 12.4157C18.8902 11.3955 19.3732 10.0953 19.375 8.75V8.125H21.2812C21.4274 9.55875 22.0637 10.8982 23.0828 11.9172C24.1018 12.9363 25.4413 13.5726 26.875 13.7188V28.1562C25.5467 28.2854 24.2951 28.838 23.3048 29.7327C22.3145 30.6273 21.6379 31.8166 21.375 33.125ZM26.875 29.4146V33.125H22.6571C22.9049 32.1538 23.44 31.28 24.1926 30.6179C24.9452 29.9559 25.8801 29.5365 26.875 29.4146ZM17.3432 33.125H13.125V29.4148C14.1193 29.5383 15.0534 29.9582 15.8058 30.62C16.5581 31.2817 17.0938 32.1546 17.3432 33.125ZM22.5 23.125C22.6658 23.125 22.8247 23.0592 22.9419 22.9419C23.0592 22.8247 23.125 22.6658 23.125 22.5V21.875H23.75C23.9158 21.875 24.0747 21.8092 24.1919 21.6919C24.3092 21.5747 24.375 21.4158 24.375 21.25C24.375 21.0842 24.3092 20.9253 24.1919 20.8081C24.0747 20.6908 23.9158 20.625 23.75 20.625H23.0175C22.8699 20.2082 22.5798 19.8569 22.1984 19.6333C21.8169 19.4096 21.3687 19.328 20.9329 19.4028C20.4971 19.4775 20.1018 19.7039 19.8167 20.0419C19.5316 20.3799 19.3752 20.8078 19.375 21.25C19.375 21.4158 19.3092 21.5747 19.1919 21.6919C19.0747 21.8092 18.9158 21.875 18.75 21.875C18.5842 21.875 18.4253 21.8092 18.3081 21.6919C18.1908 21.5747 18.125 21.4158 18.125 21.25V20C18.125 19.8342 18.0592 19.6753 17.9419 19.5581C17.8247 19.4408 17.6658 19.375 17.5 19.375C17.3342 19.375 17.1753 19.4408 17.0581 19.5581C16.9408 19.6753 16.875 19.8342 16.875 20V20.625H16.25C16.2454 20.625 16.2409 20.6256 16.2364 20.6257C16.3847 20.2134 16.3904 19.7632 16.2526 19.3473L15.6888 17.6363C16.2146 17.0038 16.8738 16.4955 17.6191 16.1478C18.3645 15.8 19.1775 15.6215 20 15.625C21.0838 15.6248 22.1446 15.9376 23.0548 16.5259C23.965 17.1143 24.6858 17.953 25.1306 18.9413C25.5754 19.9296 25.7253 21.0253 25.5621 22.0968C25.399 23.1682 24.9298 24.1697 24.211 24.9808C23.4922 25.7919 22.5543 26.3781 21.5103 26.6688C20.4662 26.9596 19.3604 26.9425 18.3258 26.6197C17.2912 26.2969 16.3719 25.6821 15.6784 24.8492C14.985 24.0163 14.5469 23.0008 14.4169 21.9248C14.722 21.921 15.0219 21.8456 15.2927 21.7049C15.4242 21.636 15.5476 21.5525 15.6605 21.4561C15.7033 21.5784 15.7829 21.6844 15.8885 21.7595C15.9941 21.8345 16.1204 21.8749 16.25 21.875H16.9825C17.1301 22.2918 17.4202 22.6431 17.8016 22.8667C18.1831 23.0904 18.6313 23.172 19.0671 23.0972C19.5029 23.0225 19.8982 22.7961 20.1833 22.4581C20.4684 22.1201 20.6248 21.6922 20.625 21.25C20.625 21.0842 20.6908 20.9253 20.8081 20.8081C20.9253 20.6908 21.0842 20.625 21.25 20.625C21.4158 20.625 21.5747 20.6908 21.6919 20.8081C21.8092 20.9253 21.875 21.0842 21.875 21.25V22.5C21.875 22.6658 21.9408 22.8247 22.0581 22.9419C22.1753 23.0592 22.3342 23.125 22.5 23.125ZM10 2.5H23.125V4.375H10V2.5ZM9.41211 14.8293L10.6165 7.60273C10.6221 7.56878 10.625 7.53442 10.625 7.5V5.625H22.5V6.875H18.75C18.5842 6.875 18.4253 6.94085 18.3081 7.05806C18.1908 7.17527 18.125 7.33424 18.125 7.5V8.75C18.1237 9.90992 17.6623 11.022 16.8422 11.8422C16.022 12.6623 14.9099 13.1237 13.75 13.125C13.6512 13.125 13.5537 13.1484 13.4657 13.1934C13.3777 13.2383 13.3016 13.3035 13.2437 13.3835C13.1857 13.4636 13.1476 13.5563 13.1324 13.6539C13.1172 13.7516 13.1254 13.8514 13.1562 13.9453L15.0652 19.7381C15.1177 19.8975 15.1125 20.0702 15.0504 20.226C14.9882 20.3819 14.8732 20.5109 14.7255 20.5904C14.5778 20.67 14.4068 20.695 14.2425 20.6611C14.0782 20.6272 13.9311 20.5365 13.827 20.405L9.41211 14.8293ZM10.625 25V18.375L11.9118 20H11.875V26.7675C11.5097 26.6379 11.1935 26.3984 10.9697 26.082C10.7459 25.7655 10.6255 25.3876 10.625 25ZM29.375 34.375V35.625C29.375 35.7908 29.4408 35.9497 29.5581 36.0669C29.6753 36.1842 29.8342 36.25 30 36.25H35.625V37.5H4.375V36.25H10C10.1658 36.25 10.3247 36.1842 10.4419 36.0669C10.5592 35.9497 10.625 35.7908 10.625 35.625V34.375H29.375Z" fill="#48586F"/>
  <path d="M34.375 14.375H31.875C31.7092 14.375 31.5503 14.4408 31.4331 14.5581C31.3158 14.6753 31.25 14.8342 31.25 15V23.125H30.625C30.5155 23.125 30.408 23.1538 30.3131 23.2084C30.2182 23.263 30.1394 23.3416 30.0844 23.4363C30.0295 23.531 30.0004 23.6384 30 23.7479C29.9996 23.8574 30.028 23.965 30.0823 24.0601L32.5823 28.4351C32.637 28.5307 32.716 28.6103 32.8113 28.6656C32.9066 28.7209 33.0148 28.75 33.125 28.75C33.2352 28.75 33.3434 28.7209 33.4387 28.6656C33.534 28.6103 33.613 28.5307 33.6677 28.4351L36.1677 24.0601C36.222 23.965 36.2504 23.8574 36.25 23.7479C36.2496 23.6384 36.2205 23.531 36.1656 23.4363C36.1106 23.3416 36.0318 23.263 35.9369 23.2084C35.842 23.1538 35.7345 23.125 35.625 23.125H35V15C35 14.8342 34.9342 14.6753 34.8169 14.5581C34.6997 14.4408 34.5408 14.375 34.375 14.375ZM33.125 26.8652L31.702 24.375H31.875C32.0408 24.375 32.1997 24.3092 32.3169 24.1919C32.4342 24.0747 32.5 23.9158 32.5 23.75V15.625H33.75V23.75C33.75 23.9158 33.8158 24.0747 33.9331 24.1919C34.0503 24.3092 34.2092 24.375 34.375 24.375H34.548L33.125 26.8652Z" fill="#48586F"/>
</svg>