<svg width="16" height="17" viewBox="0 0 16 17" fill="none" xmlns="http://www.w3.org/2000/svg">
<path d="M9.33317 2.01306V4.76676C9.33317 5.14012 9.33317 5.32681 9.40583 5.46942C9.46975 5.59486 9.57173 5.69684 9.69718 5.76076C9.83978 5.83342 10.0265 5.83342 10.3998 5.83342H13.1535M6.33317 8.50004L9.6665 11.8334M9.6665 8.50004L6.33317 11.8334M9.33317 1.83337H5.8665C4.7464 1.83337 4.18635 1.83337 3.75852 2.05136C3.3822 2.24311 3.07624 2.54907 2.88449 2.92539C2.6665 3.35322 2.6665 3.91327 2.6665 5.03337V11.9667C2.6665 13.0868 2.6665 13.6469 2.88449 14.0747C3.07624 14.451 3.3822 14.757 3.75852 14.9487C4.18635 15.1667 4.7464 15.1667 5.8665 15.1667H10.1332C11.2533 15.1667 11.8133 15.1667 12.2412 14.9487C12.6175 14.757 12.9234 14.451 13.1152 14.0747C13.3332 13.6469 13.3332 13.0868 13.3332 11.9667V5.83337L9.33317 1.83337Z" stroke="#FF0031" stroke-width="1.5" stroke-linecap="round" stroke-linejoin="round"/>
</svg>
