<svg width="32" height="32" viewBox="0 0 32 32" fill="none" xmlns="http://www.w3.org/2000/svg">
<g clip-path="url(#clip0_452_42787)">
<path d="M27.9634 0.640015H4.03637C3.13557 0.640015 2.27166 0.997857 1.6347 1.63482C0.997735 2.27178 0.639893 3.13569 0.639893 4.03649C0.639893 4.9373 0.997735 5.80121 1.6347 6.43817C2.27166 7.07513 3.13557 7.43297 4.03637 7.43297H27.9634C28.8642 7.43297 29.7281 7.07513 30.3651 6.43817C31.002 5.80121 31.3599 4.9373 31.3599 4.03649C31.3599 3.13569 31.002 2.27178 30.3651 1.63482C29.7281 0.997857 28.8642 0.640015 27.9634 0.640015Z" fill="#3AB7FC"/>
<path d="M4.03627 6.79299C2.51627 6.79299 1.27979 5.55651 1.27979 4.03651C1.27979 2.51651 2.51627 1.28003 4.03627 1.28003H27.9633C29.4833 1.28003 30.7198 2.51651 30.7198 4.03651C30.7198 5.55651 29.4833 6.79299 27.9633 6.79299H4.03627Z" fill="white"/>
<path d="M6.93245 3.6941L5.94109 3.8253L6.57981 2.98498C6.61027 2.94493 6.63181 2.89883 6.64297 2.84977C6.65414 2.80071 6.65468 2.74982 6.64456 2.70054C6.63443 2.65125 6.61388 2.6047 6.58428 2.56402C6.55467 2.52333 6.51671 2.48945 6.47293 2.46466L6.46013 2.45698C6.41708 2.4327 6.36941 2.41773 6.32022 2.41304C6.27102 2.40834 6.22139 2.41401 6.17452 2.42969C6.12765 2.44538 6.0846 2.47072 6.04814 2.50408C6.01168 2.53744 5.98262 2.57808 5.96285 2.62338L5.55133 3.56674L5.13341 2.63042C5.11335 2.58538 5.08407 2.54506 5.04745 2.51204C5.01084 2.47903 4.96772 2.45405 4.92086 2.43873C4.874 2.42342 4.82445 2.41809 4.77541 2.42311C4.72636 2.42813 4.67892 2.44337 4.63613 2.46786L4.61117 2.48258C4.56746 2.50757 4.52963 2.54164 4.50021 2.58251C4.4708 2.62337 4.45049 2.67006 4.44067 2.71944C4.43084 2.76882 4.43172 2.81973 4.44325 2.86874C4.45477 2.91775 4.47668 2.96372 4.50749 3.00354L5.13341 3.8157L4.17981 3.69282C4.13056 3.68719 4.08067 3.69203 4.03342 3.70701C3.98617 3.722 3.94262 3.7468 3.90562 3.77978C3.86861 3.81277 3.83899 3.85319 3.8187 3.89842C3.7984 3.94365 3.78789 3.99265 3.78784 4.04222C3.7878 4.09179 3.79822 4.14081 3.81843 4.18607C3.83865 4.23133 3.86819 4.27182 3.90514 4.30487C3.94208 4.33792 3.98559 4.3628 4.03281 4.37787C4.08003 4.39295 4.12991 4.39787 4.17917 4.39234L5.14237 4.26882L4.50173 5.09122C4.47141 5.12999 4.44957 5.1747 4.43761 5.22244C4.42564 5.27018 4.42382 5.3199 4.43226 5.36839C4.44071 5.41688 4.45923 5.46306 4.48662 5.50395C4.51402 5.54484 4.54969 5.57953 4.59133 5.60578L4.59389 5.60706C4.63631 5.63402 4.68402 5.65158 4.7338 5.65857C4.78358 5.66555 4.83428 5.66179 4.88248 5.64754C4.93069 5.63329 4.97529 5.60888 5.01327 5.57596C5.05125 5.54303 5.08174 5.50235 5.10269 5.45666L5.54109 4.5069L5.94365 5.44706C6.02685 5.64098 6.25981 5.71906 6.44285 5.61474L6.47741 5.5949C6.52167 5.56964 6.55994 5.53509 6.58957 5.49362C6.61919 5.45215 6.63948 5.40475 6.64903 5.35469C6.65858 5.30463 6.65717 5.25309 6.64488 5.20363C6.6326 5.15417 6.60975 5.10796 6.57789 5.06818L5.94429 4.2765L6.93757 4.3949C6.98705 4.40088 7.03724 4.39628 7.08481 4.38141C7.13239 4.36654 7.17626 4.34174 7.21353 4.30865C7.2508 4.27555 7.28062 4.23492 7.30101 4.18944C7.3214 4.14395 7.3319 4.09466 7.33181 4.04482V4.04354C7.3319 3.99326 7.32122 3.94354 7.30048 3.89774C7.27975 3.85193 7.24944 3.8111 7.2116 3.77799C7.17376 3.74488 7.12927 3.72026 7.08112 3.70579C7.03296 3.69132 6.98227 3.68733 6.93245 3.6941ZM12.1542 3.6941L11.1628 3.8253L11.8016 2.98498C11.832 2.94493 11.8536 2.89883 11.8647 2.84977C11.8759 2.80071 11.8764 2.74982 11.8663 2.70054C11.8562 2.65125 11.8356 2.6047 11.806 2.56402C11.7764 2.52333 11.7385 2.48945 11.6947 2.46466L11.6819 2.45698C11.6389 2.43258 11.5913 2.4175 11.5421 2.41271C11.4929 2.40791 11.4432 2.41351 11.3963 2.42914C11.3495 2.44477 11.3064 2.47008 11.2699 2.50343C11.2334 2.53678 11.2044 2.57743 11.1846 2.62274L10.7731 3.5661L10.3552 2.63042C10.3351 2.58537 10.3058 2.54504 10.2692 2.51203C10.2326 2.47903 10.1894 2.45408 10.1426 2.43882C10.0957 2.42355 10.0461 2.41831 9.99707 2.42342C9.94803 2.42853 9.90061 2.44389 9.85789 2.4685L9.83357 2.48258C9.78986 2.50757 9.75203 2.54164 9.72261 2.58251C9.6932 2.62337 9.67289 2.67006 9.66307 2.71944C9.65324 2.76882 9.65412 2.81973 9.66565 2.86874C9.67717 2.91775 9.69908 2.96372 9.72989 3.00354L10.3558 3.8157L9.40157 3.69282C9.35232 3.68719 9.30243 3.69203 9.25518 3.70701C9.20793 3.722 9.16438 3.7468 9.12738 3.77978C9.09037 3.81277 9.06075 3.85319 9.04046 3.89842C9.02016 3.94365 9.00965 3.99265 9.0096 4.04222C9.00956 4.09179 9.01998 4.14081 9.04019 4.18607C9.06041 4.23133 9.08995 4.27182 9.1269 4.30487C9.16384 4.33792 9.20735 4.3628 9.25457 4.37787C9.30179 4.39295 9.35167 4.39787 9.40093 4.39234L10.3641 4.26882L9.72349 5.09186C9.69317 5.13063 9.67133 5.17534 9.65937 5.22308C9.6474 5.27082 9.64558 5.32054 9.65402 5.36903C9.66247 5.41752 9.68099 5.4637 9.70838 5.50459C9.73578 5.54548 9.77145 5.58017 9.81309 5.60642L9.81565 5.6077C9.85805 5.63455 9.9057 5.65202 9.95541 5.65894C10.0051 5.66587 10.0557 5.66208 10.1039 5.64783C10.152 5.63359 10.1965 5.60922 10.2344 5.57636C10.2724 5.54349 10.3029 5.5029 10.3238 5.4573L10.7622 4.50754L11.1654 5.4477C11.2486 5.64162 11.4816 5.7197 11.6646 5.61538L11.6985 5.59554C11.7428 5.57028 11.7811 5.53572 11.8107 5.49426C11.8403 5.45279 11.8606 5.40539 11.8701 5.35533C11.8797 5.30527 11.8783 5.25373 11.866 5.20427C11.8537 5.15481 11.8309 5.1086 11.799 5.06882L11.166 4.27714L12.1593 4.39554C12.2088 4.40152 12.259 4.39692 12.3066 4.38205C12.3541 4.36718 12.398 4.34238 12.4353 4.30929C12.4726 4.27619 12.5024 4.23556 12.5228 4.19008C12.5432 4.14459 12.5537 4.0953 12.5536 4.04546V4.04354C12.5535 3.99332 12.5426 3.94371 12.5218 3.898C12.501 3.8523 12.4707 3.81156 12.4329 3.77849C12.3951 3.74542 12.3507 3.72079 12.3027 3.70624C12.2546 3.69169 12.204 3.68755 12.1542 3.6941ZM17.376 3.6941L16.3846 3.8253L17.0233 2.98498C17.0538 2.94493 17.0753 2.89883 17.0865 2.84977C17.0977 2.80071 17.0982 2.74982 17.0881 2.70054C17.078 2.65125 17.0574 2.6047 17.0278 2.56402C16.9982 2.52333 16.9602 2.48945 16.9164 2.46466L16.9036 2.45698C16.8607 2.43258 16.813 2.4175 16.7638 2.41271C16.7146 2.40791 16.665 2.41351 16.6181 2.42914C16.5712 2.44477 16.5281 2.47008 16.4917 2.50343C16.4552 2.53678 16.4261 2.57743 16.4064 2.62274L15.9948 3.5661L15.5769 2.63042C15.5569 2.58537 15.5276 2.54504 15.491 2.51203C15.4543 2.47903 15.4112 2.45408 15.3643 2.43882C15.3174 2.42355 15.2679 2.41831 15.2188 2.42342C15.1698 2.42853 15.1224 2.44389 15.0796 2.4685L15.0547 2.48258C15.011 2.50757 14.9731 2.54164 14.9437 2.58251C14.9143 2.62337 14.894 2.67006 14.8842 2.71944C14.8744 2.76882 14.8752 2.81973 14.8868 2.86874C14.8983 2.91775 14.9202 2.96372 14.951 3.00354L15.5776 3.8157L14.6227 3.69282C14.5734 3.68719 14.5236 3.69203 14.4763 3.70701C14.4291 3.722 14.3855 3.7468 14.3485 3.77978C14.3115 3.81277 14.2819 3.85319 14.2616 3.89842C14.2413 3.94365 14.2308 3.99265 14.2307 4.04222C14.2307 4.09179 14.2411 4.14081 14.2613 4.18607C14.2815 4.23133 14.3111 4.27182 14.348 4.30487C14.385 4.33792 14.4285 4.3628 14.4757 4.37787C14.5229 4.39295 14.5728 4.39787 14.622 4.39234L15.5846 4.26882L14.944 5.09186C14.9137 5.13063 14.8918 5.17534 14.8798 5.22308C14.8679 5.27082 14.8661 5.32054 14.8745 5.36903C14.8829 5.41752 14.9015 5.4637 14.9289 5.50459C14.9563 5.54548 14.9919 5.58017 15.0336 5.60642L15.0361 5.6077C15.0785 5.63455 15.1262 5.65202 15.1759 5.65894C15.2256 5.66587 15.2762 5.66208 15.3243 5.64783C15.3725 5.63359 15.417 5.60922 15.4549 5.57636C15.4929 5.54349 15.5233 5.5029 15.5443 5.4573L15.9827 4.50754L16.3859 5.4477C16.4691 5.64162 16.702 5.7197 16.8851 5.61538L16.9196 5.59554C16.9639 5.57028 17.0022 5.53572 17.0318 5.49426C17.0614 5.45279 17.0817 5.40539 17.0913 5.35533C17.1008 5.30527 17.0994 5.25373 17.0871 5.20427C17.0748 5.15481 17.052 5.1086 17.0201 5.06882L16.3865 4.27714L17.3798 4.39554C17.4293 4.40152 17.4795 4.39692 17.5271 4.38205C17.5746 4.36718 17.6185 4.34238 17.6558 4.30929C17.693 4.27619 17.7229 4.23556 17.7432 4.19008C17.7636 4.14459 17.7741 4.0953 17.774 4.04546V4.04354C17.7741 3.99338 17.7635 3.94379 17.7428 3.89808C17.7221 3.85238 17.692 3.81162 17.6543 3.77853C17.6166 3.74544 17.5722 3.72079 17.5242 3.70623C17.4762 3.69167 17.4257 3.68753 17.376 3.6941ZM22.5977 3.6941L21.6064 3.8253L22.2451 2.98498C22.2755 2.94493 22.2971 2.89883 22.3083 2.84977C22.3194 2.80071 22.32 2.74982 22.3098 2.70054C22.2997 2.65125 22.2792 2.6047 22.2496 2.56402C22.22 2.52333 22.182 2.48945 22.1382 2.46466L22.1248 2.45762C22.0818 2.43322 22.0341 2.41814 21.985 2.41335C21.9358 2.40855 21.8861 2.41415 21.8392 2.42978C21.7923 2.44541 21.7493 2.47072 21.7128 2.50407C21.6763 2.53742 21.6472 2.57807 21.6275 2.62338L21.216 3.56674L20.7987 2.63042C20.7786 2.58537 20.7494 2.54504 20.7127 2.51203C20.6761 2.47903 20.633 2.45408 20.5861 2.43882C20.5392 2.42355 20.4896 2.41831 20.4406 2.42342C20.3916 2.42853 20.3441 2.44389 20.3014 2.4685L20.2764 2.48258C20.2327 2.50757 20.1949 2.54164 20.1655 2.58251C20.1361 2.62337 20.1158 2.67006 20.1059 2.71944C20.0961 2.76882 20.097 2.81973 20.1085 2.86874C20.1201 2.91775 20.142 2.96372 20.1728 3.00354L20.7993 3.8157L19.8444 3.69282C19.7952 3.68719 19.7453 3.69203 19.6981 3.70701C19.6508 3.722 19.6073 3.7468 19.5703 3.77978C19.5333 3.81277 19.5036 3.85319 19.4833 3.89842C19.463 3.94365 19.4525 3.99265 19.4525 4.04222C19.4524 4.09179 19.4629 4.14081 19.4831 4.18607C19.5033 4.23133 19.5328 4.27182 19.5698 4.30487C19.6067 4.33792 19.6502 4.3628 19.6974 4.37787C19.7447 4.39295 19.7945 4.39787 19.8438 4.39234L20.8064 4.26882L20.1664 5.09122C20.1361 5.13003 20.1143 5.17477 20.1024 5.22254C20.0904 5.27031 20.0887 5.32005 20.0972 5.36854C20.1057 5.41703 20.1243 5.4632 20.1517 5.50407C20.1792 5.54493 20.2149 5.57958 20.2566 5.60578L20.2592 5.60706C20.3016 5.63391 20.3492 5.65138 20.3989 5.6583C20.4486 5.66523 20.4993 5.66144 20.5474 5.64719C20.5955 5.63295 20.64 5.60858 20.678 5.57572C20.7159 5.54285 20.7464 5.50226 20.7673 5.45666L21.2057 4.5069L21.6083 5.44706C21.6915 5.64098 21.9244 5.71906 22.1075 5.61474L22.142 5.5949C22.1863 5.56964 22.2246 5.53509 22.2542 5.49362C22.2838 5.45215 22.3041 5.40475 22.3137 5.35469C22.3232 5.30463 22.3218 5.25309 22.3095 5.20363C22.2972 5.15417 22.2744 5.10796 22.2425 5.06818L21.6096 4.2765L22.6028 4.3949C22.6523 4.40088 22.7025 4.39628 22.7501 4.38141C22.7977 4.36654 22.8415 4.34174 22.8788 4.30865C22.9161 4.27555 22.9459 4.23492 22.9663 4.18944C22.9867 4.14395 22.9972 4.09466 22.9971 4.04482V4.04354C22.997 3.99332 22.9861 3.94371 22.9653 3.898C22.9445 3.8523 22.9142 3.81156 22.8764 3.77849C22.8387 3.74542 22.7942 3.72079 22.7462 3.70624C22.6981 3.69169 22.6475 3.68755 22.5977 3.6941ZM27.8188 3.6941L26.8275 3.8253L27.4662 2.98498C27.4967 2.94493 27.5182 2.89883 27.5294 2.84977C27.5405 2.80071 27.5411 2.74982 27.531 2.70054C27.5208 2.65125 27.5003 2.6047 27.4707 2.56402C27.4411 2.52333 27.4031 2.48945 27.3593 2.46466L27.3465 2.45698C27.3036 2.43259 27.256 2.41752 27.2069 2.41273C27.1577 2.40793 27.1081 2.41354 27.0613 2.42917C27.0144 2.4448 26.9714 2.47012 26.935 2.50347C26.8986 2.53681 26.8696 2.57745 26.8499 2.62274L26.4384 3.5661L26.0198 2.63042C25.9998 2.58537 25.9705 2.54504 25.9339 2.51203C25.8972 2.47903 25.8541 2.45408 25.8072 2.43882C25.7603 2.42355 25.7107 2.41831 25.6617 2.42342C25.6127 2.42853 25.5653 2.44389 25.5225 2.4685L25.4976 2.48258C25.4539 2.50757 25.416 2.54164 25.3866 2.58251C25.3572 2.62337 25.3369 2.67006 25.3271 2.71944C25.3172 2.76882 25.3181 2.81973 25.3296 2.86874C25.3412 2.91775 25.3631 2.96372 25.3939 3.00354L26.0204 3.8157L25.0662 3.69282C25.017 3.68719 24.9671 3.69203 24.9198 3.70701C24.8726 3.722 24.829 3.7468 24.792 3.77978C24.755 3.81277 24.7254 3.85319 24.7051 3.89842C24.6848 3.94365 24.6743 3.99265 24.6742 4.04222C24.6742 4.09179 24.6846 4.14081 24.7048 4.18607C24.725 4.23133 24.7546 4.27182 24.7915 4.30487C24.8285 4.33792 24.872 4.3628 24.9192 4.37787C24.9664 4.39295 25.0163 4.39787 25.0656 4.39234L26.0281 4.26882L25.3875 5.09186C25.3572 5.13063 25.3353 5.17534 25.3234 5.22308C25.3114 5.27082 25.3096 5.32054 25.318 5.36903C25.3265 5.41752 25.345 5.4637 25.3724 5.50459C25.3998 5.54548 25.4355 5.58017 25.4771 5.60642L25.4796 5.6077C25.5221 5.63466 25.5698 5.65223 25.6196 5.65921C25.6693 5.66619 25.72 5.66243 25.7682 5.64818C25.8165 5.63393 25.861 5.60952 25.899 5.5766C25.937 5.54367 25.9675 5.50299 25.9884 5.4573L26.4268 4.50754L26.83 5.4477C26.9132 5.64162 27.1462 5.7197 27.3292 5.61538L27.3638 5.59554C27.4081 5.57028 27.4463 5.53572 27.476 5.49426C27.5056 5.45279 27.5259 5.40539 27.5354 5.35533C27.545 5.30527 27.5436 5.25373 27.5313 5.20427C27.519 5.15481 27.4961 5.1086 27.4643 5.06882L26.8307 4.27714L27.824 4.39554C27.8734 4.40152 27.9236 4.39692 27.9712 4.38205C28.0188 4.36718 28.0627 4.34238 28.0999 4.30929C28.1372 4.27619 28.167 4.23556 28.1874 4.19008C28.2078 4.14459 28.2183 4.0953 28.2182 4.04546V4.04354C28.2182 3.99329 28.2074 3.94362 28.1867 3.89787C28.1659 3.85211 28.1356 3.81133 28.0978 3.77824C28.06 3.74515 28.0155 3.72053 27.9674 3.70601C27.9193 3.6915 27.8687 3.68744 27.8188 3.6941Z" fill="#515151"/>
<path d="M23.6056 16.5229H23.5864C23.5417 16.1582 23.3652 15.8224 23.0902 15.5787C22.8153 15.335 22.4608 15.2001 22.0933 15.1994C21.7259 15.2001 21.3714 15.335 21.0964 15.5787C20.8214 15.8224 20.645 16.1582 20.6002 16.5229H20.581V15.7216C20.5851 15.5204 20.5491 15.3205 20.475 15.1334C20.4008 14.9463 20.2901 14.7759 20.1493 14.6322C20.0085 14.4885 19.8404 14.3743 19.6549 14.2963C19.4694 14.2183 19.2702 14.1782 19.069 14.1782C18.8678 14.1782 18.6686 14.2183 18.4831 14.2963C18.2976 14.3743 18.1295 14.4885 17.9887 14.6322C17.8479 14.7759 17.7372 14.9463 17.663 15.1334C17.5889 15.3205 17.5529 15.5204 17.557 15.7216V14.7322C17.557 14.5337 17.5178 14.3371 17.4418 14.1537C17.3658 13.9703 17.2544 13.8037 17.114 13.6634C16.9736 13.523 16.8069 13.4117 16.6235 13.3358C16.4401 13.2598 16.2435 13.2208 16.045 13.2208C15.8465 13.2209 15.6499 13.26 15.4665 13.336C15.2831 13.412 15.1165 13.5234 14.9762 13.6638C14.8358 13.8042 14.7245 13.9709 14.6486 14.1543C14.5727 14.3377 14.5336 14.5343 14.5336 14.7328V7.39714C14.5336 7.29794 14.5132 7.20322 14.4837 7.11106C14.3192 6.45442 13.7298 5.96609 13.022 5.96609C12.3141 5.96609 11.7247 6.45442 11.5602 7.11106C11.5288 7.20324 11.5119 7.29976 11.5103 7.39714V16.8512C10.8741 16.2298 7.23381 12.8685 5.55317 15.5539C5.51665 15.6167 5.50205 15.6898 5.51167 15.7618C5.52129 15.8337 5.55458 15.9004 5.60629 15.9514C6.60789 16.9875 7.46229 16.9683 7.82325 18.0506C8.10165 18.8858 8.45045 19.4567 8.78773 19.888C9.94933 21.3715 10.0172 22.88 12.3615 24.8173C12.766 25.5303 13.0379 26.3107 13.164 27.1207H20.9439C21.4322 25.3517 22.5688 24.9882 23.2549 22.7501C24.2092 19.6371 23.6056 16.5229 23.6056 16.5229Z" fill="#FFCC66"/>
<path d="M20.9581 26.9434H13.0362C12.8991 26.9434 12.7677 26.9978 12.6707 27.0946C12.5738 27.1914 12.5192 27.3228 12.519 27.4598V29.3101C12.519 29.5955 12.7507 29.8266 13.0362 29.8266H20.9581C21.0259 29.8266 21.0931 29.8132 21.1557 29.7872C21.2184 29.7613 21.2753 29.7232 21.3233 29.6753C21.3712 29.6273 21.4093 29.5704 21.4352 29.5077C21.4612 29.4451 21.4746 29.3779 21.4746 29.3101V27.4598C21.4746 27.3229 21.4201 27.1915 21.3233 27.0946C21.2264 26.9978 21.0951 26.9434 20.9581 26.9434Z" fill="#E6E6E6"/>
<path d="M21.5576 27.9373H12.4363C12.2874 27.9373 12.1447 27.9964 12.0394 28.1017C11.9341 28.2069 11.875 28.3497 11.875 28.4986V30.7994C11.875 31.1091 12.1259 31.3606 12.4363 31.3606H21.5576C21.7064 31.3606 21.8492 31.3015 21.9544 31.1963C22.0597 31.091 22.1188 30.9482 22.1188 30.7994C22.1188 28.6374 22.2833 27.9373 21.5576 27.9373Z" fill="#666666"/>
</g>
<defs>
<clipPath id="clip0_452_42787">
<rect width="32" height="32" fill="white"/>
</clipPath>
</defs>
</svg>
